<?xml version="1.0" encoding="utf-8"?>
<!-- Generator: Adobe Illustrator 16.0.0, SVG Export Plug-In . SVG Version: 6.00 Build 0)  -->
<svg version="1.2" baseProfile="tiny" id="katman_1"
	 xmlns="http://www.w3.org/2000/svg" xmlns:xlink="http://www.w3.org/1999/xlink" x="0px" y="0px" width="115px" height="90px"
	 viewBox="0 0 115 90" xml:space="preserve">
<g>
	<g>
		<path fill="#E20D18" d="M7.8,69V82H6.5V70.2H3.5V69H7.8z"/>
		<path fill="#E20D18" d="M19.8,80.8V82h-9.1V81l5.4-5.3c1.5-1.4,1.7-2.3,1.7-3.2c0-1.5-1.1-2.4-3-2.4c-1.5,0-2.7,0.5-3.5,1.4
			l-0.9-0.8c1-1.2,2.6-1.8,4.6-1.8c2.6,0,4.3,1.3,4.3,3.5c0,1.2-0.4,2.3-2.1,4l-4.4,4.3H19.8z"/>
		<path fill="#E20D18" d="M21.4,75.5c0-4.1,2.2-6.6,5.2-6.6c3,0,5.2,2.5,5.2,6.6s-2.2,6.6-5.2,6.6C23.5,82.1,21.4,79.6,21.4,75.5z
			 M30.3,75.5c0-3.5-1.6-5.4-3.8-5.4c-2.3,0-3.8,1.9-3.8,5.4c0,3.5,1.6,5.4,3.8,5.4C28.8,80.8,30.3,78.9,30.3,75.5z"/>
		<path fill="#E20D18" d="M40.5,82l-3.1-4.1L34.3,82h-1.5l3.8-5L33,72.2h1.5l2.9,3.8l2.9-3.8h1.4L38.1,77l3.9,5H40.5z"/>
		<path fill="#E20D18" d="M52.1,80.8V82H43V81l5.4-5.3c1.5-1.4,1.7-2.3,1.7-3.2c0-1.5-1.1-2.4-3-2.4c-1.5,0-2.7,0.5-3.5,1.4
			l-0.9-0.8c1-1.2,2.6-1.8,4.6-1.8c2.6,0,4.3,1.3,4.3,3.5c0,1.2-0.4,2.3-2.1,4L45,80.8H52.1z"/>
		<path fill="#E20D18" d="M64.3,78.6h-2.6V82h-1.3v-3.4h-7.3v-1L60,69h1.5l-6.6,8.4h5.6v-3h1.3v3h2.6V78.6z"/>
		<path fill="#E20D18" d="M65.5,75.5c0-4.1,2.2-6.6,5.2-6.6c3,0,5.2,2.5,5.2,6.6s-2.2,6.6-5.2,6.6C67.7,82.1,65.5,79.6,65.5,75.5z
			 M74.5,75.5c0-3.5-1.6-5.4-3.8-5.4c-2.3,0-3.8,1.9-3.8,5.4c0,3.5,1.6,5.4,3.8,5.4C73,80.8,74.5,78.9,74.5,75.5z"/>
		<path fill="#E20D18" d="M82.5,77.1c0-2.9,2.1-4.9,5-4.9c1.6,0,3,0.6,3.8,1.9l-1,0.7c-0.7-1-1.7-1.4-2.8-1.4
			c-2.1,0-3.7,1.5-3.7,3.8c0,2.3,1.6,3.8,3.7,3.8c1.1,0,2.2-0.4,2.8-1.4l1,0.7c-0.8,1.3-2.2,1.9-3.8,1.9
			C84.6,82.1,82.5,80,82.5,77.1z"/>
		<path fill="#E20D18" d="M110,76.3V82h-1.3v-5.5c0-2.1-1-3.1-2.8-3.1c-2,0-3.3,1.3-3.3,3.5V82h-1.3v-5.5c0-2.1-1-3.1-2.8-3.1
			c-2,0-3.3,1.3-3.3,3.5V82h-1.3v-9.7h1.3V74c0.7-1.2,1.9-1.8,3.6-1.8c1.6,0,2.9,0.7,3.5,2.1c0.7-1.3,2.1-2.1,3.8-2.1
			C108.4,72.2,110,73.5,110,76.3z"/>
	</g>
	<g>
		<path fill="#1E1E1C" stroke="#1E1E1C" stroke-width="3" stroke-miterlimit="10" d="M56.1,53.3H36.5c0,0,0,0-0.1,0L18.7,46
			c-0.6-0.4-0.3-1.3,0.4-1.3h59.2c0,0,0,0,0.1,0L97.7,53c0.1,0.1,0.1,0.2-0.1,0.2H56.1"/>
		<line fill="none" stroke="#FFFFFF" stroke-width="0.75" stroke-miterlimit="10" x1="24.9" y1="44.7" x2="42.8" y2="52"/>
		<line fill="none" stroke="#FFFFFF" stroke-width="0.75" stroke-miterlimit="10" x1="21" y1="44.7" x2="38.9" y2="52"/>
		<line fill="none" stroke="#FFFFFF" stroke-width="0.75" stroke-miterlimit="10" x1="28.6" y1="44.7" x2="46.6" y2="52"/>
		<line fill="none" stroke="#FFFFFF" stroke-width="0.75" stroke-miterlimit="10" x1="32.3" y1="44.7" x2="50.3" y2="52"/>
		<line fill="none" stroke="#FFFFFF" stroke-width="0.75" stroke-miterlimit="10" x1="36.1" y1="44.7" x2="54" y2="52"/>
		<line fill="none" stroke="#FFFFFF" stroke-width="0.75" stroke-miterlimit="10" x1="39.8" y1="44.7" x2="57.8" y2="52"/>
		<line fill="none" stroke="#FFFFFF" stroke-width="0.75" stroke-miterlimit="10" x1="43.6" y1="44.7" x2="61.5" y2="52"/>
		<line fill="none" stroke="#FFFFFF" stroke-width="0.75" stroke-miterlimit="10" x1="47.3" y1="44.7" x2="65.3" y2="52"/>
		<line fill="none" stroke="#FFFFFF" stroke-width="0.75" stroke-miterlimit="10" x1="51.1" y1="44.7" x2="69" y2="52"/>
		<line fill="none" stroke="#FFFFFF" stroke-width="0.75" stroke-miterlimit="10" x1="54.8" y1="44.7" x2="72.8" y2="52"/>
		<line fill="none" stroke="#FFFFFF" stroke-width="0.75" stroke-miterlimit="10" x1="58.5" y1="44.7" x2="76.5" y2="52"/>
		<line fill="none" stroke="#FFFFFF" stroke-width="0.75" stroke-miterlimit="10" x1="62.3" y1="44.7" x2="80.2" y2="52"/>
		<line fill="none" stroke="#FFFFFF" stroke-width="0.75" stroke-miterlimit="10" x1="66" y1="44.7" x2="84" y2="52"/>
		<line fill="none" stroke="#FFFFFF" stroke-width="0.75" stroke-miterlimit="10" x1="69.8" y1="44.7" x2="87.7" y2="52"/>
		<line fill="none" stroke="#FFFFFF" stroke-width="0.75" stroke-miterlimit="10" x1="73.5" y1="44.7" x2="91.5" y2="52"/>
		<line fill="none" stroke="#FFFFFF" stroke-width="0.75" stroke-miterlimit="10" x1="77.1" y1="44.7" x2="95.1" y2="52"/>
		<g>
			<circle id="XMLID_2_" fill="#E20D18" cx="54.1" cy="7" r="3.8"/>
			<path id="XMLID_1_" fill="#E20D18" d="M59,12.1c-0.2,0,0.2,0-9.9,0c-2.4,0-4.4,2-4.4,4.3L44.6,30c0,1,0.8,1.9,1.8,1.9
				c0,0,0,0,0,0c1,0,1.8-0.8,1.8-1.8l0.1-13.6c0-0.2,0.2-0.4,0.4-0.4s0.4,0.2,0.4,0.4l0,31c0,1.2,1,2.2,2.2,2.2s2.2-1,2.2-2.2
				c0-0.6,0-14.3,0-17.2c0-0.3,0.2-0.5,0.5-0.5c0.3,0,0.5,0.2,0.5,0.5c0,2.8,0,16.1,0,17.2c0,1.2,1,2.2,2.2,2.2c1.2,0,2.2-1,2.2-2.2
				l0-31c0-0.2,0.2-0.4,0.4-0.4c0.2,0,0.4,0.2,0.4,0.4L59.8,30c0,1,0.8,1.8,1.8,1.8c0,0,0,0,0,0c1,0,1.8-0.8,1.8-1.9l-0.1-13.6
				C63.4,14,61.4,12.1,59,12.1z"/>
		</g>
		<g>
			<polygon fill="#1E1E1C" points="90,60.6 40,60.6 40.5,59.3 37.1,60.8 40.5,62.3 40,61 90,61 			"/>
		</g>
		<g>
			<polygon fill="#1E1E1C" points="46.1,61 96,61 95.5,62.3 99,60.8 95.5,59.3 96,60.6 46.1,60.6 			"/>
		</g>
		<g>
			<line fill="#1E1E1C" x1="30.1" y1="58.7" x2="12.3" y2="51.1"/>
			<g>
				<polygon fill="#1E1E1C" points="30.1,58.5 15.1,52 16.1,51.1 12.3,51.1 14.9,53.8 14.9,52.5 30,58.9 				"/>
			</g>
		</g>
		<g>
			<line fill="#1E1E1C" x1="15.3" y1="52.4" x2="33.1" y2="60"/>
			<g>
				<polygon fill="#1E1E1C" points="15.2,52.6 30.3,59 29.3,60 33.1,60 30.5,57.3 30.4,58.6 15.4,52.1 				"/>
			</g>
		</g>
	</g>
</g>
</svg>
