<?xml version="1.0" encoding="utf-8"?>
<!-- Generator: Adobe Illustrator 16.0.0, SVG Export Plug-In . SVG Version: 6.00 Build 0)  -->
<svg version="1.2" baseProfile="tiny" id="katman_1"
	 xmlns="http://www.w3.org/2000/svg" xmlns:xlink="http://www.w3.org/1999/xlink" x="0px" y="0px" width="115px" height="90px"
	 viewBox="0 0 115 90" xml:space="preserve">
<g>
	<g>
		<path fill="#E20D18" d="M23.9,80.8v1.2h-8.9V81l5.3-5.2c1.4-1.4,1.7-2.3,1.7-3.2c0-1.5-1-2.4-3-2.4c-1.5,0-2.6,0.5-3.5,1.4
			l-0.9-0.8c1-1.2,2.6-1.8,4.5-1.8c2.6,0,4.2,1.3,4.2,3.4c0,1.2-0.4,2.3-2.1,4l-4.3,4.3H23.9z"/>
		<path fill="#E20D18" d="M34.2,78.2c0,2.2-1.5,3.9-4.6,3.9c-1.8,0-3.6-0.6-4.6-1.6l0.6-1c0.8,0.9,2.3,1.5,3.9,1.5
			c2.2,0,3.3-1.1,3.3-2.6c0-1.6-1-2.7-4.3-2.7h-2.7l0.7-6.4h7v1.2h-5.8l-0.4,4.1h1.6C32.7,74.4,34.2,75.9,34.2,78.2z"/>
		<path fill="#E20D18" d="M42.7,81.9l-3-4l-3.1,4h-1.5l3.8-4.9l-3.6-4.7h1.5l2.9,3.8l2.9-3.8h1.4L40.3,77l3.8,4.9H42.7z"/>
		<path fill="#E20D18" d="M54.1,80.8v1.2h-8.9V81l5.3-5.2c1.4-1.4,1.7-2.3,1.7-3.2c0-1.5-1-2.4-3-2.4c-1.5,0-2.6,0.5-3.5,1.4
			l-0.9-0.8c1-1.2,2.6-1.8,4.5-1.8c2.6,0,4.2,1.3,4.2,3.4c0,1.2-0.4,2.3-2.1,4l-4.3,4.3H54.1z"/>
		<path fill="#E20D18" d="M65.5,78.4c0,2.3-1.9,3.7-5,3.7c-3.1,0-4.9-1.4-4.9-3.7c0-1.5,0.9-2.6,2.5-3.1c-1.3-0.5-2-1.5-2-2.8
			c0-2.1,1.8-3.4,4.5-3.4c2.7,0,4.5,1.3,4.5,3.4c0,1.3-0.7,2.3-2,2.8C64.6,75.8,65.5,76.9,65.5,78.4z M64.2,78.4
			c0-1.6-1.3-2.6-3.6-2.6c-2.3,0-3.6,1-3.6,2.6c0,1.6,1.3,2.6,3.6,2.6C62.8,80.9,64.2,80,64.2,78.4z M60.6,74.8c2,0,3.2-0.9,3.2-2.3
			c0-1.4-1.3-2.3-3.2-2.3c-1.9,0-3.2,0.9-3.2,2.3C57.4,73.9,58.6,74.8,60.6,74.8z"/>
		<path fill="#E20D18" d="M72,77.1c0-2.9,2.1-4.9,4.9-4.9c1.6,0,3,0.6,3.8,1.9l-1,0.7c-0.7-1-1.7-1.4-2.8-1.4
			c-2.1,0-3.6,1.5-3.6,3.7c0,2.3,1.5,3.7,3.6,3.7c1.1,0,2.1-0.4,2.8-1.4l1,0.7C79.9,81.4,78.6,82,77,82C74.1,82,72,80,72,77.1z"/>
		<path fill="#E20D18" d="M99.1,76.4v5.6h-1.3v-5.4c0-2-1-3.1-2.8-3.1c-2,0-3.2,1.3-3.2,3.5v5h-1.3v-5.4c0-2-1-3.1-2.8-3.1
			c-1.9,0-3.2,1.3-3.2,3.5v5h-1.3v-9.6h1.2v1.7c0.7-1.1,1.9-1.8,3.5-1.8c1.6,0,2.8,0.7,3.4,2c0.7-1.2,2.1-2,3.8-2
			C97.5,72.3,99.1,73.6,99.1,76.4z"/>
	</g>
	<path fill="#1E1E1C" stroke="#1E1E1C" stroke-width="3" stroke-miterlimit="10" d="M71.7,52.8H50.4c0,0-0.1,0-0.1,0l-19.4-8
		c-0.6-0.4-0.3-1.4,0.4-1.4h31c0,0,0.1,0,0.1,0l21.1,9.1c0.1,0.1,0.1,0.3-0.1,0.3H71.7"/>
	<line fill="none" stroke="#FFFFFF" stroke-width="0.75" stroke-miterlimit="10" x1="38" y1="43.3" x2="57.5" y2="51.7"/>
	<line fill="none" stroke="#FFFFFF" stroke-width="0.75" stroke-miterlimit="10" x1="33.9" y1="43.2" x2="53.4" y2="51.5"/>
	<line fill="none" stroke="#FFFFFF" stroke-width="0.75" stroke-miterlimit="10" x1="42.1" y1="43.4" x2="61.6" y2="51.7"/>
	<line fill="none" stroke="#FFFFFF" stroke-width="0.75" stroke-miterlimit="10" x1="46.2" y1="43.4" x2="65.7" y2="51.8"/>
	<line fill="none" stroke="#FFFFFF" stroke-width="0.75" stroke-miterlimit="10" x1="50.3" y1="43.5" x2="69.7" y2="51.8"/>
	<line fill="none" stroke="#FFFFFF" stroke-width="0.75" stroke-miterlimit="10" x1="54.3" y1="43.5" x2="73.8" y2="51.9"/>
	<line fill="none" stroke="#FFFFFF" stroke-width="0.75" stroke-miterlimit="10" x1="58.4" y1="43.6" x2="77.9" y2="51.9"/>
	<line fill="none" stroke="#FFFFFF" stroke-width="0.75" stroke-miterlimit="10" x1="62.5" y1="43.7" x2="82" y2="52"/>
	<g>
		<ellipse id="XMLID_00000075856104478492166650000012305656467367484862_" fill="#E20D18" cx="58.5" cy="7.1" rx="3.7" ry="3.8"/>
		<path id="XMLID_00000124141594148406184560000012995947554120684989_" fill="#E20D18" d="M63.4,12.1c-0.2,0,0.2,0-9.7,0
			c-2.3,0-4.3,1.9-4.3,4.3l-0.1,13.4c0,1,0.8,1.8,1.8,1.8c0,0,0,0,0,0c1,0,1.8-0.8,1.8-1.8L53,16.4c0-0.2,0.2-0.4,0.4-0.4
			c0.2,0,0.4,0.2,0.4,0.4V47c0,1.2,1,2.2,2.2,2.2c1.2,0,2.2-1,2.2-2.2c0-0.6,0-14.2,0-17c0-0.3,0.2-0.5,0.5-0.5S59,29.7,59,30
			c0,2.7,0,15.9,0,17c0,1.2,1,2.2,2.2,2.2c1.2,0,2.2-1,2.2-2.2l0-30.7c0-0.2,0.2-0.4,0.4-0.4c0.2,0,0.4,0.2,0.4,0.4l0.1,13.4
			c0,1,0.8,1.8,1.8,1.8c0,0,0,0,0,0c1,0,1.8-0.8,1.8-1.8l-0.1-13.4C67.6,14,65.7,12.1,63.4,12.1z"/>
	</g>
	<g>
		<polygon fill="#1E1E1C" points="78.1,60.7 56,60.7 56.5,59.5 53,60.9 56.5,62.4 56,61.2 78.1,61.2 		"/>
	</g>
	<g>
		<polygon fill="#1E1E1C" points="62.9,61.2 85,61.2 84.5,62.4 88,60.9 84.5,59.5 85,60.7 62.9,60.7 		"/>
	</g>
	<g>
		<line fill="#1E1E1C" x1="44.7" y1="58.4" x2="25.4" y2="50"/>
		<g>
			<polygon fill="#1E1E1C" points="44.8,58.2 28.2,51 29.1,50.1 25.4,50 28,52.8 28,51.4 44.6,58.6 			"/>
		</g>
	</g>
	<g>
		<line fill="#1E1E1C" x1="28.6" y1="51.5" x2="48" y2="59.9"/>
		<g>
			<polygon fill="#1E1E1C" points="28.6,51.7 45.2,58.9 44.2,59.8 48,59.9 45.4,57.1 45.4,58.5 28.7,51.2 			"/>
		</g>
	</g>
</g>
</svg>
