<?xml version="1.0" encoding="utf-8"?>
<!-- Generator: Adobe Illustrator 16.0.0, SVG Export Plug-In . SVG Version: 6.00 Build 0)  -->
<svg version="1.2" baseProfile="tiny" id="katman_1"
	 xmlns="http://www.w3.org/2000/svg" xmlns:xlink="http://www.w3.org/1999/xlink" x="0px" y="0px" width="115px" height="90px"
	 viewBox="0 0 115 90" xml:space="preserve">
<g>
	<g>
		<path fill="#E20D18" d="M24,81.3v1.2H15v-0.9l5.4-5.3c1.5-1.4,1.7-2.3,1.7-3.2c0-1.5-1.1-2.4-3-2.4c-1.5,0-2.7,0.5-3.5,1.4
			l-0.9-0.8c1-1.2,2.6-1.8,4.6-1.8c2.6,0,4.3,1.3,4.3,3.5c0,1.2-0.4,2.3-2.1,4l-4.4,4.3H24z"/>
		<path fill="#E20D18" d="M34.5,78.6c0,2.2-1.5,3.9-4.7,3.9c-1.9,0-3.6-0.6-4.6-1.7l0.6-1.1c0.8,0.9,2.3,1.5,4,1.5
			c2.2,0,3.4-1.1,3.4-2.6c0-1.7-1-2.7-4.3-2.7H26l0.7-6.5h7.1v1.2h-5.9l-0.4,4.1h1.7C33,74.8,34.5,76.3,34.5,78.6z"/>
		<path fill="#E20D18" d="M43.1,82.4L40,78.4l-3.1,4.1h-1.5l3.8-5l-3.7-4.7h1.5l2.9,3.8l2.9-3.8h1.4l-3.7,4.7l3.9,5H43.1z"/>
		<path fill="#E20D18" d="M54.4,78.7c0,2.2-1.6,3.8-4.7,3.8c-1.9,0-3.7-0.6-4.7-1.7l0.6-1.1c0.8,0.9,2.3,1.5,4,1.5
			c2.1,0,3.3-1,3.3-2.6c0-1.6-1.1-2.6-3.5-2.6h-0.9v-1l3.6-4.5h-6.6v-1.2h8.3v0.9L50.3,75C53,75.2,54.4,76.7,54.4,78.7z"/>
		<path fill="#E20D18" d="M65.2,69.5v0.9l-5.4,12h-1.4l5.3-11.7H57v2.4h-1.3v-3.6H65.2z"/>
		<path fill="#E20D18" d="M71.6,77.6c0-2.9,2.1-4.9,5-4.9c1.6,0,3,0.6,3.8,1.9l-1,0.7c-0.7-1-1.7-1.4-2.8-1.4
			c-2.1,0-3.7,1.5-3.7,3.8c0,2.3,1.6,3.8,3.7,3.8c1.1,0,2.2-0.4,2.8-1.4l1,0.7c-0.8,1.3-2.2,1.9-3.8,1.9
			C73.7,82.5,71.6,80.5,71.6,77.6z"/>
		<path fill="#E20D18" d="M99,76.8v5.6h-1.3v-5.5c0-2-1-3.1-2.8-3.1c-2,0-3.2,1.3-3.2,3.5v5.1h-1.3v-5.5c0-2-1-3.1-2.8-3.1
			c-2,0-3.3,1.3-3.3,3.5v5.1H83v-9.7h1.3v1.8c0.7-1.2,1.9-1.8,3.6-1.8c1.6,0,2.9,0.7,3.5,2c0.7-1.3,2.1-2,3.8-2
			C97.5,72.6,99,74,99,76.8z"/>
	</g>
	<path fill="#1E1E1C" stroke="#1E1E1C" stroke-width="3" stroke-miterlimit="10" d="M71.9,52.9H50.3c0,0-0.1,0-0.1,0l-19.7-8.1
		c-0.6-0.4-0.3-1.4,0.4-1.4h31.4c0,0,0.1,0,0.1,0l21.4,9.2c0.1,0.1,0.1,0.3-0.1,0.3H71.9"/>
	<line fill="none" stroke="#FFFFFF" stroke-width="0.75" stroke-miterlimit="10" x1="37.7" y1="43.3" x2="57.5" y2="51.8"/>
	<line fill="none" stroke="#FFFFFF" stroke-width="0.75" stroke-miterlimit="10" x1="33.6" y1="43.1" x2="53.3" y2="51.6"/>
	<line fill="none" stroke="#FFFFFF" stroke-width="0.75" stroke-miterlimit="10" x1="41.9" y1="43.4" x2="61.6" y2="51.8"/>
	<line fill="none" stroke="#FFFFFF" stroke-width="0.75" stroke-miterlimit="10" x1="46" y1="43.4" x2="65.8" y2="51.9"/>
	<line fill="none" stroke="#FFFFFF" stroke-width="0.75" stroke-miterlimit="10" x1="50.2" y1="43.5" x2="69.9" y2="51.9"/>
	<line fill="none" stroke="#FFFFFF" stroke-width="0.75" stroke-miterlimit="10" x1="54.3" y1="43.5" x2="74.1" y2="52"/>
	<line fill="none" stroke="#FFFFFF" stroke-width="0.75" stroke-miterlimit="10" x1="58.4" y1="43.6" x2="78.2" y2="52"/>
	<line fill="none" stroke="#FFFFFF" stroke-width="0.75" stroke-miterlimit="10" x1="62.6" y1="43.6" x2="82.3" y2="52.1"/>
	<g>
		<ellipse id="XMLID_00000063595938798582167580000012251405302989324421_" fill="#E20D18" cx="58.6" cy="6.6" rx="3.8" ry="3.8"/>
		<path id="XMLID_00000137836433887694578060000012368946461231452041_" fill="#E20D18" d="M63.5,11.6c-0.2,0,0.2,0-9.8,0
			c-2.4,0-4.3,2-4.3,4.4l-0.1,13.6c0,1,0.8,1.9,1.8,1.9c0,0,0,0,0,0c1,0,1.8-0.8,1.8-1.8L52.9,16c0-0.2,0.2-0.4,0.4-0.4
			c0.2,0,0.4,0.2,0.4,0.4v31.1c0,1.2,1,2.2,2.2,2.2c1.2,0,2.2-1,2.2-2.2c0-0.6,0-14.4,0-17.3c0-0.3,0.2-0.5,0.5-0.5
			c0.3,0,0.5,0.2,0.5,0.5c0,2.8,0,16.1,0,17.3c0,1.2,1,2.2,2.2,2.2c1.2,0,2.2-1,2.2-2.2l0-31.1c0-0.2,0.2-0.4,0.4-0.4
			c0.2,0,0.4,0.2,0.4,0.4l0.1,13.6c0,1,0.8,1.8,1.8,1.8c0,0,0,0,0,0c1,0,1.8-0.8,1.8-1.9L67.8,16C67.8,13.6,65.8,11.6,63.5,11.6z"/>
	</g>
	<g>
		<polygon fill="#1E1E1C" points="78.4,60.9 55.9,60.9 56.5,59.7 53,61.1 56.5,62.6 55.9,61.4 78.4,61.4 		"/>
	</g>
	<g>
		<polygon fill="#1E1E1C" points="62.9,61.4 85.4,61.4 84.9,62.6 88.4,61.1 84.9,59.7 85.4,60.9 62.9,60.9 		"/>
	</g>
	<g>
		<line fill="#1E1E1C" x1="44.5" y1="58.6" x2="24.9" y2="50.1"/>
		<g>
			<polygon fill="#1E1E1C" points="44.6,58.4 27.7,51.1 28.7,50.1 24.9,50.1 27.5,52.8 27.5,51.5 44.5,58.8 			"/>
		</g>
	</g>
	<g>
		<line fill="#1E1E1C" x1="28.3" y1="51.5" x2="47.9" y2="60.1"/>
		<g>
			<polygon fill="#1E1E1C" points="28.2,51.8 45.1,59.1 44.1,60 47.9,60.1 45.3,57.3 45.3,58.7 28.4,51.3 			"/>
		</g>
	</g>
</g>
</svg>
