<?xml version="1.0" encoding="utf-8"?>
<!-- Generator: Adobe Illustrator 16.0.0, SVG Export Plug-In . SVG Version: 6.00 Build 0)  -->
<svg version="1.2" baseProfile="tiny" id="katman_1"
	 xmlns="http://www.w3.org/2000/svg" xmlns:xlink="http://www.w3.org/1999/xlink" x="0px" y="0px" width="115px" height="90px"
	 viewBox="0 0 115 90" xml:space="preserve">
<g>
	<g>
		<path fill="#E20D18" d="M23.6,78.2c0,2.1-1.5,3.8-4.6,3.8c-1.8,0-3.6-0.6-4.6-1.6l0.6-1c0.8,0.9,2.3,1.5,3.9,1.5
			c2.1,0,3.3-1,3.3-2.6c0-1.5-1.1-2.5-3.4-2.5h-0.9v-1l3.5-4.4h-6.5v-1.2h8.2V70l-3.6,4.5C22.2,74.7,23.6,76.1,23.6,78.2z"/>
		<path fill="#E20D18" d="M25.4,75.5c0-4.1,2.1-6.5,5.1-6.5c2.9,0,5.1,2.4,5.1,6.5s-2.1,6.5-5.1,6.5C27.6,81.9,25.4,79.5,25.4,75.5z
			 M34.2,75.5c0-3.4-1.5-5.3-3.7-5.3c-2.2,0-3.7,1.9-3.7,5.3s1.5,5.3,3.7,5.3C32.7,80.7,34.2,78.9,34.2,75.5z"/>
		<path fill="#E20D18" d="M44.2,81.8l-3-4l-3.1,4h-1.5l3.8-4.9l-3.6-4.7h1.5l2.9,3.7l2.9-3.7h1.4l-3.6,4.7l3.8,4.9H44.2z"/>
		<path fill="#E20D18" d="M55.4,78.2c0,2.1-1.5,3.8-4.6,3.8c-1.8,0-3.6-0.6-4.6-1.6l0.6-1c0.8,0.9,2.3,1.5,3.9,1.5
			c2.1,0,3.3-1,3.3-2.6c0-1.5-1.1-2.5-3.4-2.5h-0.9v-1l3.5-4.4h-6.5v-1.2h8.2V70l-3.6,4.5C54,74.7,55.4,76.1,55.4,78.2z"/>
		<path fill="#E20D18" d="M65.8,80.7v1.2h-8.9v-0.9l5.3-5.2c1.4-1.4,1.7-2.3,1.7-3.1c0-1.5-1-2.4-3-2.4c-1.5,0-2.6,0.5-3.5,1.4
			l-0.9-0.8c1-1.2,2.6-1.8,4.5-1.8c2.6,0,4.2,1.3,4.2,3.4c0,1.2-0.4,2.3-2.1,4l-4.3,4.3H65.8z"/>
		<path fill="#E20D18" d="M72.1,77.1c0-2.9,2.1-4.9,4.9-4.9c1.6,0,3,0.6,3.7,1.9l-1,0.7c-0.7-1-1.7-1.4-2.8-1.4
			c-2.1,0-3.6,1.5-3.6,3.7c0,2.3,1.5,3.7,3.6,3.7c1.1,0,2.1-0.4,2.8-1.4l1,0.7c-0.8,1.2-2.1,1.9-3.7,1.9
			C74.2,81.9,72.1,79.9,72.1,77.1z"/>
		<path fill="#E20D18" d="M99.1,76.3v5.5h-1.3v-5.4c0-2-1-3.1-2.7-3.1c-2,0-3.2,1.3-3.2,3.5v5h-1.3v-5.4c0-2-1-3.1-2.8-3.1
			c-1.9,0-3.2,1.3-3.2,3.5v5h-1.3v-9.6h1.2V74c0.7-1.1,1.9-1.8,3.5-1.8c1.6,0,2.8,0.7,3.4,2c0.7-1.2,2.1-2,3.8-2
			C97.5,72.2,99.1,73.5,99.1,76.3z"/>
	</g>
	<path fill="#1E1E1C" stroke="#1E1E1C" stroke-width="3" stroke-miterlimit="10" d="M71.7,52.8H50.4c0,0-0.1,0-0.1,0l-19.4-8
		c-0.6-0.4-0.3-1.4,0.4-1.4h30.9c0,0,0.1,0,0.1,0l21.1,9.1c0.1,0.1,0.1,0.3-0.1,0.3H71.7"/>
	<line fill="none" stroke="#FFFFFF" stroke-width="0.75" stroke-miterlimit="10" x1="38.1" y1="43.3" x2="57.5" y2="51.7"/>
	<line fill="none" stroke="#FFFFFF" stroke-width="0.75" stroke-miterlimit="10" x1="33.9" y1="43.2" x2="53.4" y2="51.5"/>
	<line fill="none" stroke="#FFFFFF" stroke-width="0.75" stroke-miterlimit="10" x1="42.1" y1="43.4" x2="61.6" y2="51.7"/>
	<line fill="none" stroke="#FFFFFF" stroke-width="0.75" stroke-miterlimit="10" x1="46.2" y1="43.5" x2="65.6" y2="51.8"/>
	<line fill="none" stroke="#FFFFFF" stroke-width="0.75" stroke-miterlimit="10" x1="50.3" y1="43.5" x2="69.7" y2="51.8"/>
	<line fill="none" stroke="#FFFFFF" stroke-width="0.75" stroke-miterlimit="10" x1="54.3" y1="43.6" x2="73.8" y2="51.9"/>
	<line fill="none" stroke="#FFFFFF" stroke-width="0.75" stroke-miterlimit="10" x1="58.4" y1="43.6" x2="77.9" y2="51.9"/>
	<line fill="none" stroke="#FFFFFF" stroke-width="0.75" stroke-miterlimit="10" x1="62.5" y1="43.7" x2="81.9" y2="52"/>
	<g>
		<ellipse id="XMLID_00000051352950277288043470000005134638263631522460_" fill="#E20D18" cx="58.5" cy="7.2" rx="3.7" ry="3.8"/>
		<path id="XMLID_00000059990049550448326980000009980520328788166276_" fill="#E20D18" d="M63.4,12.1c-0.2,0,0.2,0-9.7,0
			c-2.3,0-4.2,1.9-4.3,4.3l-0.1,13.4c0,1,0.8,1.8,1.8,1.8c0,0,0,0,0,0c1,0,1.8-0.8,1.8-1.8L53,16.4c0-0.2,0.2-0.4,0.4-0.4
			c0.2,0,0.4,0.2,0.4,0.4V47c0,1.2,1,2.2,2.2,2.2s2.2-1,2.2-2.2c0-0.6,0-14.1,0-17c0-0.3,0.2-0.5,0.5-0.5c0.3,0,0.5,0.2,0.5,0.5
			c0,2.7,0,15.9,0,17c0,1.2,1,2.2,2.2,2.2s2.2-1,2.2-2.2l0-30.6c0-0.2,0.2-0.4,0.4-0.4c0.2,0,0.4,0.2,0.4,0.4l0.1,13.4
			c0,1,0.8,1.8,1.8,1.8c0,0,0,0,0,0c1,0,1.8-0.8,1.8-1.8l-0.1-13.4C67.6,14.1,65.7,12.1,63.4,12.1z"/>
	</g>
	<g>
		<polygon fill="#1E1E1C" points="78.1,60.6 56,60.6 56.5,59.4 53.1,60.9 56.5,62.4 56,61.1 78.1,61.1 		"/>
	</g>
	<g>
		<polygon fill="#1E1E1C" points="62.8,61.1 84.9,61.1 84.4,62.4 87.9,60.9 84.4,59.4 84.9,60.6 62.8,60.6 		"/>
	</g>
	<g>
		<line fill="#1E1E1C" x1="44.8" y1="58.4" x2="25.4" y2="50"/>
		<g>
			<polygon fill="#1E1E1C" points="44.8,58.2 28.2,51 29.2,50.1 25.4,50 28,52.7 28.1,51.4 44.7,58.6 			"/>
		</g>
	</g>
	<g>
		<line fill="#1E1E1C" x1="28.7" y1="51.4" x2="48" y2="59.8"/>
		<g>
			<polygon fill="#1E1E1C" points="28.6,51.7 45.2,58.9 44.3,59.8 48,59.8 45.4,57.1 45.4,58.4 28.8,51.2 			"/>
		</g>
	</g>
</g>
</svg>
