<?xml version="1.0" encoding="utf-8"?>
<!-- Generator: Adobe Illustrator 16.0.0, SVG Export Plug-In . SVG Version: 6.00 Build 0)  -->
<svg version="1.2" baseProfile="tiny" id="katman_1"
	 xmlns="http://www.w3.org/2000/svg" xmlns:xlink="http://www.w3.org/1999/xlink" x="0px" y="0px" width="115px" height="90px"
	 viewBox="0 0 115 90" xml:space="preserve">
<g>
	<g>
		<path fill="#E20D18" d="M21.7,78.8h-2.6v3.4h-1.3v-3.4h-7.4v-1l6.9-8.7h1.5l-6.7,8.4h5.7v-3h1.3v3h2.6V78.8z"/>
		<path fill="#E20D18" d="M31.7,78.4c0,2.2-1.5,4-4.7,4c-1.9,0-3.7-0.7-4.7-1.7l0.7-1.1c0.8,0.9,2.3,1.5,4,1.5
			c2.2,0,3.4-1.1,3.4-2.7c0-1.7-1-2.7-4.4-2.7h-2.8l0.7-6.6h7.1v1.2h-6l-0.4,4.2h1.7C30.3,74.6,31.7,76.1,31.7,78.4z"/>
		<path fill="#E20D18" d="M40.4,82.3l-3.1-4.1l-3.1,4.1h-1.5l3.9-5l-3.7-4.8h1.5l2.9,3.8l2.9-3.8h1.5L38,77.2l3.9,5H40.4z"/>
		<path fill="#E20D18" d="M47,69.2v13.1h-1.3V70.4h-3.1v-1.2H47z"/>
		<path fill="#E20D18" d="M59,78.4c0,2.2-1.5,4-4.7,4c-1.9,0-3.7-0.7-4.7-1.7l0.7-1.1c0.8,0.9,2.3,1.5,4,1.5c2.2,0,3.4-1.1,3.4-2.7
			c0-1.7-1-2.7-4.4-2.7h-2.8l0.7-6.6h7.1v1.2h-6l-0.4,4.2h1.7C57.5,74.6,59,76.1,59,78.4z"/>
		<path fill="#E20D18" d="M69.4,78.4c0,2.2-1.5,4-4.7,4c-1.9,0-3.7-0.7-4.7-1.7l0.7-1.1c0.8,0.9,2.3,1.5,4,1.5
			c2.2,0,3.4-1.1,3.4-2.7c0-1.7-1-2.7-4.4-2.7h-2.8l0.7-6.6h7.1v1.2h-6l-0.4,4.2H64C67.9,74.6,69.4,76.1,69.4,78.4z"/>
		<path fill="#E20D18" d="M75.9,77.4c0-2.9,2.1-5,5.1-5c1.7,0,3.1,0.7,3.8,1.9l-1,0.7c-0.7-1-1.7-1.5-2.9-1.5
			c-2.1,0-3.7,1.5-3.7,3.8c0,2.3,1.6,3.8,3.7,3.8c1.1,0,2.2-0.4,2.9-1.4l1,0.7c-0.8,1.3-2.2,1.9-3.8,1.9
			C78,82.4,75.9,80.3,75.9,77.4z"/>
		<path fill="#E20D18" d="M103.6,76.6v5.7h-1.3v-5.6c0-2.1-1-3.1-2.8-3.1c-2,0-3.3,1.3-3.3,3.5v5.2h-1.3v-5.6c0-2.1-1-3.1-2.8-3.1
			c-2,0-3.3,1.3-3.3,3.5v5.2h-1.3v-9.8h1.3v1.8c0.7-1.2,2-1.9,3.6-1.9c1.6,0,2.9,0.7,3.5,2.1c0.7-1.3,2.1-2.1,3.9-2.1
			C102,72.4,103.6,73.8,103.6,76.6z"/>
	</g>
	<g>
		<path fill="#1E1E1C" stroke="#1E1E1C" stroke-width="3" stroke-miterlimit="10" d="M56.1,53.3H36.4c0,0-0.1,0-0.1,0l-18-7.3
			c-0.6-0.4-0.3-1.3,0.4-1.3h59.7c0,0,0,0,0.1,0L98,53.1c0.1,0.1,0.1,0.2-0.1,0.2H56.1"/>
		<line fill="none" stroke="#FFFFFF" stroke-width="0.75" stroke-miterlimit="10" x1="24.6" y1="44.7" x2="42.7" y2="52.1"/>
		<line fill="none" stroke="#FFFFFF" stroke-width="0.75" stroke-miterlimit="10" x1="20.6" y1="44.7" x2="38.8" y2="52.1"/>
		<line fill="none" stroke="#FFFFFF" stroke-width="0.75" stroke-miterlimit="10" x1="28.4" y1="44.7" x2="46.5" y2="52.1"/>
		<line fill="none" stroke="#FFFFFF" stroke-width="0.75" stroke-miterlimit="10" x1="32.1" y1="44.7" x2="50.2" y2="52.1"/>
		<line fill="none" stroke="#FFFFFF" stroke-width="0.75" stroke-miterlimit="10" x1="35.9" y1="44.7" x2="54" y2="52.1"/>
		<line fill="none" stroke="#FFFFFF" stroke-width="0.75" stroke-miterlimit="10" x1="39.7" y1="44.7" x2="57.8" y2="52.1"/>
		<line fill="none" stroke="#FFFFFF" stroke-width="0.75" stroke-miterlimit="10" x1="43.4" y1="44.7" x2="61.6" y2="52.1"/>
		<line fill="none" stroke="#FFFFFF" stroke-width="0.75" stroke-miterlimit="10" x1="47.2" y1="44.7" x2="65.3" y2="52.1"/>
		<line fill="none" stroke="#FFFFFF" stroke-width="0.75" stroke-miterlimit="10" x1="51" y1="44.7" x2="69.1" y2="52.1"/>
		<line fill="none" stroke="#FFFFFF" stroke-width="0.75" stroke-miterlimit="10" x1="54.8" y1="44.7" x2="72.9" y2="52.1"/>
		<line fill="none" stroke="#FFFFFF" stroke-width="0.75" stroke-miterlimit="10" x1="58.5" y1="44.7" x2="76.6" y2="52.1"/>
		<line fill="none" stroke="#FFFFFF" stroke-width="0.75" stroke-miterlimit="10" x1="62.3" y1="44.7" x2="80.4" y2="52.1"/>
		<line fill="none" stroke="#FFFFFF" stroke-width="0.75" stroke-miterlimit="10" x1="66.1" y1="44.7" x2="84.2" y2="52.1"/>
		<line fill="none" stroke="#FFFFFF" stroke-width="0.75" stroke-miterlimit="10" x1="69.9" y1="44.7" x2="88" y2="52.1"/>
		<line fill="none" stroke="#FFFFFF" stroke-width="0.75" stroke-miterlimit="10" x1="73.6" y1="44.7" x2="91.7" y2="52.1"/>
		<line fill="none" stroke="#FFFFFF" stroke-width="0.75" stroke-miterlimit="10" x1="77.3" y1="44.7" x2="95.4" y2="52.1"/>
		<g>
			<circle id="XMLID_00000047053515314573510480000018405058272831892878_" fill="#E20D18" cx="54" cy="6.7" r="3.9"/>
			<path id="XMLID_00000181773555449511325180000015879774371032942756_" fill="#E20D18" d="M59,11.8c-0.2,0,0.2,0-10,0
				c-2.4,0-4.4,2-4.4,4.4l-0.1,13.7c0,1,0.8,1.9,1.9,1.9c0,0,0,0,0,0c1,0,1.9-0.8,1.9-1.9l0.1-13.7c0-0.2,0.2-0.4,0.4-0.4
				c0.2,0,0.4,0.2,0.4,0.4l0,31.3c0,1.2,1,2.2,2.2,2.2c1.2,0,2.2-1,2.2-2.2c0-0.6,0-14.5,0-17.4c0-0.3,0.2-0.5,0.5-0.5
				c0.3,0,0.5,0.2,0.5,0.5c0,2.8,0,16.2,0,17.4c0,1.2,1,2.2,2.2,2.2s2.2-1,2.2-2.2l0-31.3c0-0.2,0.2-0.4,0.4-0.4s0.4,0.2,0.4,0.4
				l0.1,13.7c0,1,0.8,1.9,1.9,1.9c0,0,0,0,0,0c1,0,1.9-0.8,1.9-1.9l-0.1-13.7C63.4,13.8,61.4,11.8,59,11.8z"/>
		</g>
		<g>
			<polygon fill="#1E1E1C" points="90.2,60.7 39.8,60.7 40.4,59.5 36.9,60.9 40.4,62.4 39.8,61.2 90.2,61.2 			"/>
		</g>
		<g>
			<polygon fill="#1E1E1C" points="45.9,61.2 96.3,61.2 95.8,62.4 99.3,60.9 95.8,59.5 96.3,60.7 45.9,60.7 			"/>
		</g>
		<g>
			<line fill="#1E1E1C" x1="29.8" y1="58.8" x2="11.9" y2="51.1"/>
			<g>
				<polygon fill="#1E1E1C" points="29.9,58.6 14.7,52.1 15.7,51.1 11.9,51.1 14.5,53.8 14.5,52.5 29.7,59 				"/>
			</g>
		</g>
		<g>
			<line fill="#1E1E1C" x1="15" y1="52.4" x2="32.8" y2="60.1"/>
			<g>
				<polygon fill="#1E1E1C" points="14.9,52.6 30,59.2 29.1,60.1 32.8,60.1 30.2,57.4 30.2,58.7 15.1,52.2 				"/>
			</g>
		</g>
	</g>
</g>
</svg>
