<?xml version="1.0" encoding="utf-8"?>
<!-- Generator: Adobe Illustrator 16.0.0, SVG Export Plug-In . SVG Version: 6.00 Build 0)  -->
<svg version="1.2" baseProfile="tiny" id="katman_1"
	 xmlns="http://www.w3.org/2000/svg" xmlns:xlink="http://www.w3.org/1999/xlink" x="0px" y="0px" width="115px" height="90px"
	 viewBox="0 0 115 90" xml:space="preserve">
<g>
	<g>
		<path fill="#E20D18" d="M24.3,79.9c0,2.3-1.6,4.1-4.9,4.1c-1.9,0-3.8-0.7-4.8-1.7l0.7-1.1c0.9,0.9,2.4,1.6,4.1,1.6
			c2.3,0,3.5-1.1,3.5-2.7c0-1.7-1.1-2.8-4.5-2.8h-2.9l0.7-6.7h7.3v1.2h-6.1L17,75.9h1.7C22.8,75.9,24.3,77.5,24.3,79.9z"/>
		<path fill="#E20D18" d="M29.8,70.4v13.4h-1.4V71.6h-3.2v-1.2H29.8z"/>
		<path fill="#E20D18" d="M40.3,83.8l-3.2-4.2l-3.2,4.2h-1.5l4-5.2l-3.8-4.9h1.5l3,3.9l3-3.9h1.5l-3.8,4.9l4,5.2H40.3z"/>
		<path fill="#E20D18" d="M52.3,79.9c0,2.3-1.6,4.1-4.9,4.1c-1.9,0-3.8-0.7-4.8-1.7l0.7-1.1c0.9,0.9,2.4,1.6,4.1,1.6
			c2.3,0,3.5-1.1,3.5-2.7c0-1.7-1.1-2.8-4.5-2.8h-2.9l0.7-6.7h7.3v1.2h-6.1L45,75.9h1.7C50.7,75.9,52.3,77.5,52.3,79.9z"/>
		<path fill="#E20D18" d="M64.1,79.8c0,2.5-2,4.1-4.6,4.1c-3.6,0-5.5-2.5-5.5-6.7c0-4.6,2.5-6.9,6.1-6.9c1.2,0,2.3,0.2,3.2,0.7
			l-0.6,1.1c-0.7-0.5-1.6-0.6-2.6-0.6c-2.9,0-4.7,1.9-4.7,5.5c0,0.3,0,0.7,0.1,1.1c0.7-1.5,2.2-2.3,4.1-2.3
			C62.2,75.8,64.1,77.4,64.1,79.8z M62.7,79.8c0-1.8-1.3-2.9-3.4-2.9c-2,0-3.4,1.3-3.4,2.9c0,1.5,1.2,2.9,3.5,2.9
			C61.4,82.7,62.7,81.6,62.7,79.8z"/>
		<path fill="#E20D18" d="M70.6,78.8c0-3,2.2-5.1,5.2-5.1c1.7,0,3.1,0.7,3.9,2l-1,0.7c-0.7-1-1.8-1.5-2.9-1.5
			c-2.2,0-3.8,1.6-3.8,3.9c0,2.4,1.6,3.9,3.8,3.9c1.2,0,2.2-0.5,2.9-1.5l1,0.7c-0.8,1.3-2.2,2-3.9,2C72.8,83.9,70.6,81.8,70.6,78.8z
			"/>
		<path fill="#E20D18" d="M99,78v5.8h-1.4v-5.7c0-2.1-1.1-3.2-2.9-3.2c-2.1,0-3.4,1.3-3.4,3.6v5.3H90v-5.7c0-2.1-1.1-3.2-2.9-3.2
			c-2,0-3.4,1.3-3.4,3.6v5.3h-1.4V73.7h1.3v1.8c0.7-1.2,2-1.9,3.7-1.9c1.7,0,3,0.7,3.6,2.1c0.7-1.3,2.2-2.1,4-2.1
			C97.4,73.7,99,75.1,99,78z"/>
	</g>
	<path fill="#1E1E1C" stroke="#1E1E1C" stroke-width="3" stroke-miterlimit="10" d="M72.4,53.2H50c0,0-0.1,0-0.1,0l-20.4-8.4
		c-0.6-0.4-0.3-1.5,0.4-1.5h32.5c0,0,0.1,0,0.1,0l22.2,9.6c0.1,0.1,0.1,0.3-0.1,0.3H72.4"/>
	<line fill="none" stroke="#FFFFFF" stroke-width="0.75" stroke-miterlimit="10" x1="37" y1="43.3" x2="57.5" y2="52"/>
	<line fill="none" stroke="#FFFFFF" stroke-width="0.75" stroke-miterlimit="10" x1="32.7" y1="43.1" x2="53.2" y2="51.8"/>
	<line fill="none" stroke="#FFFFFF" stroke-width="0.75" stroke-miterlimit="10" x1="41.3" y1="43.3" x2="61.8" y2="52.1"/>
	<line fill="none" stroke="#FFFFFF" stroke-width="0.75" stroke-miterlimit="10" x1="45.6" y1="43.4" x2="66.1" y2="52.1"/>
	<line fill="none" stroke="#FFFFFF" stroke-width="0.75" stroke-miterlimit="10" x1="49.9" y1="43.4" x2="70.4" y2="52.2"/>
	<line fill="none" stroke="#FFFFFF" stroke-width="0.75" stroke-miterlimit="10" x1="54.2" y1="43.5" x2="74.7" y2="52.2"/>
	<line fill="none" stroke="#FFFFFF" stroke-width="0.75" stroke-miterlimit="10" x1="58.5" y1="43.5" x2="78.9" y2="52.3"/>
	<line fill="none" stroke="#FFFFFF" stroke-width="0.75" stroke-miterlimit="10" x1="62.8" y1="43.6" x2="83.2" y2="52.3"/>
	<g>
		<ellipse id="XMLID_00000070822333237627829500000013667487823567214246_" fill="#E20D18" cx="58.6" cy="5.2" rx="3.9" ry="4"/>
		<path id="XMLID_00000140732030319564928500000004330329294759260305_" fill="#E20D18" d="M63.7,10.4c-0.2,0,0.2,0-10.2,0
			c-2.5,0-4.5,2-4.5,4.5L48.9,29c0,1.1,0.8,1.9,1.9,1.9c0,0,0,0,0,0c1,0,1.9-0.9,1.9-1.9l0.1-14.1c0-0.2,0.2-0.4,0.4-0.4
			c0.2,0,0.4,0.2,0.4,0.4l0,32.2c0,1.3,1,2.3,2.3,2.3c1.3,0,2.3-1,2.3-2.3c0-0.7,0-14.9,0-17.9c0-0.3,0.2-0.5,0.5-0.5
			c0.3,0,0.5,0.2,0.5,0.5c0,2.9,0,16.7,0,17.9c0,1.3,1,2.3,2.3,2.3s2.3-1,2.3-2.3l0-32.2c0-0.2,0.2-0.4,0.4-0.4
			c0.2,0,0.4,0.2,0.4,0.4L64.4,29c0,1.1,0.9,1.9,1.9,1.9c0,0,0,0,0,0c1,0,1.9-0.9,1.9-1.9l-0.1-14.1C68.2,12.4,66.1,10.4,63.7,10.4z
			"/>
	</g>
	<g>
		<polygon fill="#1E1E1C" points="79.2,61.5 55.8,61.5 56.3,60.3 52.8,61.7 56.3,63.2 55.8,62 79.2,62 		"/>
	</g>
	<g>
		<polygon fill="#1E1E1C" points="63.1,62 86.5,62 86,63.2 89.5,61.7 86,60.3 86.5,61.5 63.1,61.5 		"/>
	</g>
	<g>
		<line fill="#1E1E1C" x1="44.1" y1="59.1" x2="23.7" y2="50.3"/>
		<g>
			<polygon fill="#1E1E1C" points="44.2,58.9 26.5,51.2 27.5,50.3 23.7,50.3 26.3,53 26.4,51.7 44,59.3 			"/>
		</g>
	</g>
	<g>
		<line fill="#1E1E1C" x1="27.2" y1="51.8" x2="47.5" y2="60.6"/>
		<g>
			<polygon fill="#1E1E1C" points="27.1,52 44.7,59.7 43.8,60.6 47.5,60.6 44.9,57.9 44.9,59.2 27.3,51.6 			"/>
		</g>
	</g>
</g>
</svg>
