<?xml version="1.0" encoding="utf-8"?>
<!-- Generator: Adobe Illustrator 16.0.0, SVG Export Plug-In . SVG Version: 6.00 Build 0)  -->
<svg version="1.2" baseProfile="tiny" id="katman_1"
	 xmlns="http://www.w3.org/2000/svg" xmlns:xlink="http://www.w3.org/1999/xlink" x="0px" y="0px" width="115px" height="90px"
	 viewBox="0 0 115 90" xml:space="preserve">
<g>
	<g>
		<path fill="#E20D18" d="M16.9,78.1c0,2.4-1.9,4-4.4,4c-3.4,0-5.3-2.4-5.3-6.5c0-4.4,2.4-6.7,5.9-6.7c1.2,0,2.3,0.2,3.1,0.7
			l-0.5,1.1c-0.7-0.4-1.6-0.6-2.5-0.6c-2.8,0-4.6,1.8-4.6,5.3c0,0.3,0,0.7,0.1,1.1c0.6-1.4,2.2-2.2,4-2.2
			C15.1,74.2,16.9,75.7,16.9,78.1z M15.6,78.1c0-1.7-1.3-2.8-3.3-2.8c-2,0-3.3,1.2-3.3,2.8c0,1.4,1.2,2.8,3.4,2.8
			C14.3,80.9,15.6,79.9,15.6,78.1z"/>
		<path fill="#E20D18" d="M18.4,75.5c0-4.1,2.2-6.6,5.2-6.6s5.2,2.5,5.2,6.6s-2.2,6.6-5.2,6.6S18.4,79.6,18.4,75.5z M27.4,75.5
			c0-3.5-1.6-5.4-3.8-5.4c-2.3,0-3.8,1.9-3.8,5.4c0,3.5,1.6,5.4,3.8,5.4C25.9,80.8,27.4,78.9,27.4,75.5z"/>
		<path fill="#E20D18" d="M37.6,82l-3.1-4.1L31.4,82h-1.5l3.8-5l-3.7-4.7h1.5l2.9,3.8l2.9-3.8h1.4L35.2,77l3.9,5H37.6z"/>
		<path fill="#E20D18" d="M49.2,80.8V82h-9.1V81l5.4-5.3c1.5-1.4,1.7-2.3,1.7-3.2c0-1.5-1.1-2.4-3-2.4c-1.5,0-2.7,0.5-3.5,1.4
			l-0.9-0.8c1-1.2,2.6-1.8,4.6-1.8c2.6,0,4.3,1.3,4.3,3.5c0,1.2-0.4,2.3-2.1,4L42,80.8H49.2z"/>
		<path fill="#E20D18" d="M61.4,78.6h-2.6V82h-1.3v-3.4h-7.3v-1L57,69h1.5l-6.6,8.4h5.6v-3h1.3v3h2.6V78.6z"/>
		<path fill="#E20D18" d="M62.6,75.5c0-4.1,2.2-6.6,5.2-6.6s5.2,2.5,5.2,6.6s-2.2,6.6-5.2,6.6S62.6,79.6,62.6,75.5z M71.6,75.5
			c0-3.5-1.6-5.4-3.8-5.4c-2.3,0-3.8,1.9-3.8,5.4c0,3.5,1.6,5.4,3.8,5.4C70,80.8,71.6,78.9,71.6,75.5z"/>
		<path fill="#E20D18" d="M79.6,77.1c0-2.9,2.1-4.9,5-4.9c1.6,0,3,0.6,3.8,1.9l-1,0.7c-0.7-1-1.7-1.4-2.8-1.4
			c-2.1,0-3.7,1.5-3.7,3.8c0,2.3,1.6,3.8,3.7,3.8c1.1,0,2.2-0.4,2.8-1.4l1,0.7c-0.8,1.3-2.2,1.9-3.8,1.9
			C81.7,82.1,79.6,80,79.6,77.1z"/>
		<path fill="#E20D18" d="M107,76.3V82h-1.3v-5.5c0-2.1-1-3.1-2.8-3.1c-2,0-3.3,1.3-3.3,3.5V82h-1.3v-5.5c0-2.1-1-3.1-2.8-3.1
			c-2,0-3.3,1.3-3.3,3.5V82H91v-9.7h1.3V74c0.7-1.2,1.9-1.8,3.6-1.8c1.6,0,2.9,0.7,3.5,2.1c0.7-1.3,2.1-2.1,3.8-2.1
			C105.5,72.2,107,73.5,107,76.3z"/>
	</g>
	<g>
		<path fill="#1E1E1C" stroke="#1E1E1C" stroke-width="3" stroke-miterlimit="10" d="M56.1,53.3H36.5c0,0-0.1,0-0.1,0L18.7,46
			c-0.6-0.4-0.3-1.3,0.4-1.3h59.2c0,0,0,0,0.1,0L97.7,53c0.1,0.1,0.1,0.2-0.1,0.2H56.1"/>
		<line fill="none" stroke="#FFFFFF" stroke-width="0.75" stroke-miterlimit="10" x1="24.9" y1="44.7" x2="42.8" y2="52"/>
		<line fill="none" stroke="#FFFFFF" stroke-width="0.75" stroke-miterlimit="10" x1="21" y1="44.7" x2="38.9" y2="52"/>
		<line fill="none" stroke="#FFFFFF" stroke-width="0.75" stroke-miterlimit="10" x1="28.6" y1="44.7" x2="46.5" y2="52"/>
		<line fill="none" stroke="#FFFFFF" stroke-width="0.75" stroke-miterlimit="10" x1="32.3" y1="44.7" x2="50.3" y2="52"/>
		<line fill="none" stroke="#FFFFFF" stroke-width="0.75" stroke-miterlimit="10" x1="36.1" y1="44.7" x2="54" y2="52"/>
		<line fill="none" stroke="#FFFFFF" stroke-width="0.75" stroke-miterlimit="10" x1="39.8" y1="44.7" x2="57.8" y2="52"/>
		<line fill="none" stroke="#FFFFFF" stroke-width="0.75" stroke-miterlimit="10" x1="43.6" y1="44.7" x2="61.5" y2="52"/>
		<line fill="none" stroke="#FFFFFF" stroke-width="0.75" stroke-miterlimit="10" x1="47.3" y1="44.7" x2="65.3" y2="52"/>
		<line fill="none" stroke="#FFFFFF" stroke-width="0.75" stroke-miterlimit="10" x1="51" y1="44.7" x2="69" y2="52"/>
		<line fill="none" stroke="#FFFFFF" stroke-width="0.75" stroke-miterlimit="10" x1="54.8" y1="44.7" x2="72.7" y2="52"/>
		<line fill="none" stroke="#FFFFFF" stroke-width="0.75" stroke-miterlimit="10" x1="58.5" y1="44.7" x2="76.5" y2="52"/>
		<line fill="none" stroke="#FFFFFF" stroke-width="0.75" stroke-miterlimit="10" x1="62.3" y1="44.7" x2="80.2" y2="52"/>
		<line fill="none" stroke="#FFFFFF" stroke-width="0.75" stroke-miterlimit="10" x1="66" y1="44.7" x2="84" y2="52"/>
		<line fill="none" stroke="#FFFFFF" stroke-width="0.75" stroke-miterlimit="10" x1="69.8" y1="44.7" x2="87.7" y2="52"/>
		<line fill="none" stroke="#FFFFFF" stroke-width="0.75" stroke-miterlimit="10" x1="73.5" y1="44.7" x2="91.5" y2="52"/>
		<line fill="none" stroke="#FFFFFF" stroke-width="0.75" stroke-miterlimit="10" x1="77.1" y1="44.7" x2="95.1" y2="52"/>
		<g>
			<circle id="XMLID_00000062885053545992739940000008376233924435380635_" fill="#E20D18" cx="54.1" cy="7" r="3.8"/>
			<path id="XMLID_00000064338608627177887540000017254250949400188840_" fill="#E20D18" d="M59,12.1c-0.2,0,0.2,0-9.9,0
				c-2.4,0-4.4,2-4.4,4.3L44.6,30c0,1,0.8,1.9,1.8,1.9c0,0,0,0,0,0c1,0,1.8-0.8,1.8-1.8l0.1-13.6c0-0.2,0.2-0.4,0.4-0.4
				c0.2,0,0.4,0.2,0.4,0.4l0,31c0,1.2,1,2.2,2.2,2.2s2.2-1,2.2-2.2c0-0.6,0-14.3,0-17.2c0-0.3,0.2-0.5,0.5-0.5
				c0.3,0,0.5,0.2,0.5,0.5c0,2.8,0,16.1,0,17.2c0,1.2,1,2.2,2.2,2.2c1.2,0,2.2-1,2.2-2.2l0-31c0-0.2,0.2-0.4,0.4-0.4
				c0.2,0,0.4,0.2,0.4,0.4L59.7,30c0,1,0.8,1.8,1.8,1.8c0,0,0,0,0,0c1,0,1.8-0.8,1.8-1.9l-0.1-13.6C63.4,14,61.4,12.1,59,12.1z"/>
		</g>
		<g>
			<polygon fill="#1E1E1C" points="90,60.6 40,60.6 40.5,59.3 37.1,60.8 40.5,62.3 40,61 90,61 			"/>
		</g>
		<g>
			<polygon fill="#1E1E1C" points="46,61 96,61 95.5,62.3 98.9,60.8 95.5,59.3 96,60.6 46,60.6 			"/>
		</g>
		<g>
			<line fill="#1E1E1C" x1="30" y1="58.7" x2="12.3" y2="51.1"/>
			<g>
				<polygon fill="#1E1E1C" points="30.1,58.5 15.1,52 16.1,51.1 12.3,51.1 14.9,53.8 14.9,52.5 29.9,58.9 				"/>
			</g>
		</g>
		<g>
			<line fill="#1E1E1C" x1="15.3" y1="52.4" x2="33.1" y2="60"/>
			<g>
				<polygon fill="#1E1E1C" points="15.2,52.6 30.2,59 29.3,60 33.1,60 30.4,57.3 30.4,58.6 15.4,52.1 				"/>
			</g>
		</g>
	</g>
</g>
</svg>
