<?xml version="1.0" encoding="utf-8"?>
<!-- Generator: Adobe Illustrator 16.0.0, SVG Export Plug-In . SVG Version: 6.00 Build 0)  -->
<svg version="1.2" baseProfile="tiny" id="katman_1"
	 xmlns="http://www.w3.org/2000/svg" xmlns:xlink="http://www.w3.org/1999/xlink" x="0px" y="0px" width="90px" height="90px"
	 viewBox="0 0 90 90" xml:space="preserve">
<g>
	<rect x="3.2" y="33.4" fill="#1D1D1B" width="83.6" height="21.6"/>
	<g>
		<path d="M3.2,24.3c0-3.4,2.6-5.9,6.1-5.9c1.7,0,3.2,0.6,4.2,1.7l-0.8,0.8c-0.9-1-2.1-1.4-3.4-1.4c-2.8,0-4.9,2-4.9,4.8
			c0,2.7,2.1,4.8,4.9,4.8c1.3,0,2.5-0.4,3.4-1.4l0.8,0.8c-1,1.1-2.5,1.7-4.2,1.7C5.8,30.1,3.2,27.7,3.2,24.3z"/>
		<path d="M23.4,26.1h-7.3c0.1,1.8,1.5,3,3.4,3c1.1,0,2-0.4,2.7-1.1l0.7,0.8c-0.8,0.9-2,1.4-3.3,1.4c-2.7,0-4.6-1.8-4.6-4.4
			c0-2.6,1.8-4.4,4.2-4.4s4.2,1.8,4.2,4.4C23.4,25.8,23.4,25.9,23.4,26.1z M16.1,25.2h6.2c-0.1-1.7-1.4-2.9-3.1-2.9
			C17.5,22.3,16.3,23.5,16.1,25.2z"/>
		<path d="M30.2,21.3v1.1c-0.1,0-0.2,0-0.3,0c-1.8,0-2.9,1.2-2.9,3.2V30h-1.2v-8.7h1.1v1.7C27.5,21.9,28.6,21.3,30.2,21.3z"/>
		<path d="M37,29.5c-0.5,0.4-1.2,0.6-1.8,0.6c-1.6,0-2.5-0.9-2.5-2.5v-5.2h-1.6v-1h1.6v-1.9h1.2v1.9h2.6v1h-2.6v5.2
			c0,1,0.5,1.6,1.5,1.6c0.5,0,1-0.1,1.3-0.4L37,29.5z"/>
		<path d="M38.9,18.9c0-0.4,0.3-0.8,0.8-0.8s0.8,0.3,0.8,0.8s-0.3,0.8-0.8,0.8S38.9,19.3,38.9,18.9z M39.1,21.4h1.2V30h-1.2V21.4z"
			/>
		<path d="M44.9,20.4v1h2.7v1h-2.6V30h-1.2v-7.7h-1.6v-1h1.6v-1.1c0-1.6,0.9-2.6,2.6-2.6c0.6,0,1.3,0.2,1.7,0.5l-0.4,0.9
			c-0.3-0.3-0.8-0.4-1.3-0.4C45.4,18.7,44.9,19.3,44.9,20.4z"/>
		<path d="M49,18.9c0-0.4,0.3-0.8,0.8-0.8s0.8,0.3,0.8,0.8s-0.3,0.8-0.8,0.8S49,19.3,49,18.9z M49.2,21.4h1.2V30h-1.2V21.4z"/>
		<path d="M52.7,25.7c0-2.6,1.9-4.4,4.5-4.4c1.5,0,2.7,0.6,3.4,1.7l-0.9,0.6c-0.6-0.9-1.5-1.3-2.5-1.3c-1.9,0-3.3,1.4-3.3,3.4
			c0,2,1.4,3.4,3.3,3.4c1,0,1.9-0.4,2.5-1.3l0.9,0.6c-0.7,1.1-1.9,1.7-3.4,1.7C54.6,30.1,52.7,28.3,52.7,25.7z"/>
		<path d="M69.4,24.7V30h-1.1v-1.4c-0.5,0.9-1.6,1.4-3,1.4c-2,0-3.2-1-3.2-2.5c0-1.3,0.9-2.5,3.3-2.5h2.8v-0.5
			c0-1.5-0.8-2.3-2.5-2.3c-1.1,0-2.2,0.4-2.9,1l-0.5-0.9c0.9-0.7,2.2-1.2,3.5-1.2C68.2,21.3,69.4,22.4,69.4,24.7z M68.3,27.4V26
			h-2.7c-1.7,0-2.2,0.7-2.2,1.6c0,1,0.8,1.6,2.2,1.6C66.8,29.2,67.8,28.6,68.3,27.4z"/>
		<path d="M77.2,29.5c-0.5,0.4-1.2,0.6-1.8,0.6c-1.6,0-2.5-0.9-2.5-2.5v-5.2h-1.6v-1h1.6v-1.9H74v1.9h2.6v1H74v5.2
			c0,1,0.5,1.6,1.5,1.6c0.5,0,1-0.1,1.3-0.4L77.2,29.5z"/>
		<path d="M86.9,26.1h-7.3c0.1,1.8,1.5,3,3.4,3c1.1,0,2-0.4,2.7-1.1l0.7,0.8c-0.8,0.9-2,1.4-3.3,1.4c-2.7,0-4.6-1.8-4.6-4.4
			c0-2.6,1.8-4.4,4.2-4.4s4.2,1.8,4.2,4.4C86.9,25.8,86.9,25.9,86.9,26.1z M79.6,25.2h6.2c-0.1-1.7-1.4-2.9-3.1-2.9
			C81,22.3,79.8,23.5,79.6,25.2z"/>
		<path fill="#FFFFFF" d="M29.4,47.7v2.1h-8.9V38.3h8.7v2.1h-6.1V43h5.4V45h-5.4v2.7H29.4z"/>
		<path fill="#FFFFFF" d="M42.1,38.3v11.5h-2.2l-5.8-7v7h-2.6V38.3h2.2l5.7,7v-7H42.1z"/>
		<path fill="#FFFFFF" d="M53.3,38.3v11.5h-2.7v-9.4h-2.3v-2.1H53.3z"/>
		<path fill="#FFFFFF" d="M63.8,46.3c0,1.9-1.5,3.7-4.8,3.7c-1.6,0-3.3-0.4-4.4-1.2l1-2c0.9,0.7,2.1,1,3.3,1c1.3,0,2.2-0.5,2.2-1.5
			c0-0.9-0.6-1.4-2.2-1.4h-1.2v-1.8l2.4-2.7h-4.9v-2.1h8.1V40l-2.6,3C62.8,43.3,63.8,44.6,63.8,46.3z"/>
		<path fill="#FFFFFF" d="M69.5,38.3v11.5h-2.7v-9.4h-2.3v-2.1H69.5z"/>
		<path d="M32.6,58.1v11.5h-1l-7.4-9.4v9.4h-1.2V58.1h1l7.4,9.4v-9.4H32.6z"/>
		<path d="M35.2,65.3c0-2.6,1.9-4.4,4.4-4.4c2.5,0,4.4,1.8,4.4,4.4s-1.9,4.4-4.4,4.4C37.1,69.7,35.2,67.9,35.2,65.3z M42.9,65.3
			c0-2-1.4-3.4-3.2-3.4c-1.8,0-3.2,1.4-3.2,3.4c0,2,1.4,3.4,3.2,3.4C41.5,68.7,42.9,67.3,42.9,65.3z"/>
		<path d="M50.8,60.9V62c-0.1,0-0.2,0-0.3,0c-1.8,0-2.9,1.2-2.9,3.2v4.4h-1.2V61h1.1v1.7C48.1,61.5,49.2,60.9,50.8,60.9z"/>
		<path d="M67.4,64.6v5h-1.2v-4.9c0-1.8-0.9-2.8-2.5-2.8c-1.8,0-2.9,1.2-2.9,3.1v4.6h-1.2v-4.9c0-1.8-0.9-2.8-2.5-2.8
			c-1.8,0-2.9,1.2-2.9,3.1v4.6h-1.2V61h1.1v1.6c0.6-1,1.7-1.6,3.2-1.6c1.4,0,2.6,0.6,3.1,1.8c0.6-1.1,1.9-1.8,3.4-1.8
			C66,60.9,67.4,62.1,67.4,64.6z"/>
	</g>
</g>
</svg>
