<?xml version="1.0" encoding="utf-8"?>
<!-- Generator: Adobe Illustrator 16.0.0, SVG Export Plug-In . SVG Version: 6.00 Build 0)  -->
<svg version="1.2" baseProfile="tiny" id="katman_1"
	 xmlns="http://www.w3.org/2000/svg" xmlns:xlink="http://www.w3.org/1999/xlink" x="0px" y="0px" width="130px" height="130px"
	 viewBox="0 0 130 130" xml:space="preserve">
<g>
	<g>
		<g>
			<path fill-rule="evenodd" d="M40.4,98.8c0-7.5,0-15.1,0-22.6c0-1.4,1.6-2.9,2.9-2.9c3.1,0,6.3,0,9.4,0c2.3,0,4.1-1.5,4.5-3.5
				c0.4-2-0.7-4.3-2.7-4.9c-0.6-0.2-1.2-0.3-1.8-0.3c-1.3-0.1-2.7-1.4-2.8-2.7c0-1.6,0-3.2,0-4.7c0-1.2,1.2-2.5,2.4-2.7
				c0.5-0.1,1-0.1,1.4-0.1c7.7,0,15.5,0,23.2,0c1.5,0,2.7,0.7,3.2,2.1c0.1,0.4,0.2,0.8,0.2,1.2c0,1.2,0.1,2.3,0,3.5
				c-0.1,1.7-0.6,2.8-2.4,3.3c-0.6,0.2-1.3,0.1-2,0.3c-1.8,0.4-3.3,2.4-3.1,4.4c0.2,2.3,1.8,4,4.3,4.1c3.2,0.1,6.3,0,9.5,0
				c1.7,0,3,1.3,3,3c0,15,0,30,0,45c0,1.6-1.3,3-3.1,3c-1.9,0-3.9,0-5.8,0c-12.3,0-24.6,0-36.9,0c-1.5,0-2.6-0.6-3.2-2
				c-0.1-0.3-0.2-0.6-0.2-0.8C40.4,113.9,40.4,106.3,40.4,98.8z M42.9,98.8c0,7.4,0,14.7,0,22.1c0,0.8,0,0.8,0.8,0.8
				c14.1,0,28.3,0,42.4,0c0.9,0,0.9-0.1,0.9-1c0-14.6,0-29.2,0-43.7c0-0.9-0.2-1.1-1.1-1.1c-3,0-6.1,0-9.1,0c-1.6,0-3-0.6-4.2-1.6
				c-2.3-1.9-3.2-4.9-2-7.9c1-2.5,3.4-4.4,6.2-4.4c0.5,0,0.7-0.2,0.7-0.7c0-1.2,0-2.4,0-3.6c0-0.6-0.2-0.8-0.8-0.8
				c-7.9,0-15.8,0-23.7,0c-0.1,0-0.3,0-0.3,0c-0.2,0.1-0.5,0.3-0.5,0.5c0,1.3,0,2.6,0,3.9c0,0.4,0.2,0.6,0.6,0.6c0.3,0,0.7,0,1,0.1
				c3.3,0.6,5.6,3.3,5.8,6.6c0.1,1.6-0.4,3-1.4,4.3c-1.4,1.8-3.1,2.8-5.4,2.8c-3.1,0-6.1,0-9.2,0c-0.9,0-1,0.2-1,1
				C42.9,84.1,42.9,91.5,42.9,98.8z"/>
		</g>
	</g>
	<g>
		<path d="M59.4,93.7c0.2-0.8,0.6-1.4,1-2c0.5-0.6,1-1,1.7-1.3c0.7-0.3,1.5-0.5,2.4-0.5c0.7,0,1.3,0.1,2,0.3
			c0.6,0.2,1.2,0.5,1.6,0.9c0.5,0.4,0.8,0.9,1.1,1.5c0.3,0.6,0.4,1.3,0.4,2c0,0.8-0.1,1.4-0.4,2c-0.2,0.6-0.6,1.1-1,1.5
			c-0.4,0.4-0.9,0.8-1.4,1.2c-0.5,0.4-1,0.7-1.5,1c-0.5,0.3-1,0.7-1.5,1.1c-0.5,0.4-0.9,0.9-1.3,1.4h7.1v2.7h-11
			c0-0.9,0.1-1.7,0.4-2.3c0.3-0.7,0.6-1.2,1-1.8c0.4-0.5,0.9-1,1.5-1.4s1.2-0.9,1.8-1.3c0.3-0.2,0.7-0.5,1-0.7
			c0.4-0.2,0.7-0.5,1-0.8c0.3-0.3,0.6-0.6,0.8-1c0.2-0.4,0.3-0.8,0.3-1.3c0-0.7-0.2-1.3-0.6-1.7c-0.4-0.4-1-0.6-1.6-0.6
			c-0.4,0-0.8,0.1-1.1,0.3c-0.3,0.2-0.6,0.5-0.7,0.8s-0.3,0.7-0.4,1.1C62,95.3,62,95.7,62,96.2h-2.9C59.1,95.3,59.2,94.5,59.4,93.7z
			"/>
		<g>
			<path d="M48.2,109.1v5.4l2.4-2.6h2.3l-2.6,2.7l2.9,4.6h-2.3l-1.9-3.2l-0.7,0.7v2.5h-1.9v-10H48.2z"/>
			<path d="M56,109.1l4,6.7h0v-6.7h2v10h-2.1l-4-6.7h0v6.7h-2v-10H56z"/>
			<path d="M67.9,108.9l-3.8,10.4h-1.5l3.8-10.4H67.9z"/>
			<path d="M70.1,111.9v1h0c0.3-0.4,0.6-0.7,0.9-0.9s0.8-0.3,1.2-0.3c0.4,0,0.8,0.1,1.2,0.3c0.4,0.2,0.6,0.5,0.8,0.9
				c0.2-0.3,0.5-0.6,0.8-0.8c0.4-0.2,0.8-0.4,1.3-0.4c0.4,0,0.7,0,1,0.1c0.3,0.1,0.6,0.2,0.8,0.4c0.2,0.2,0.4,0.5,0.5,0.8
				c0.1,0.3,0.2,0.7,0.2,1.2v4.8h-1.9V115c0-0.2,0-0.5,0-0.7s-0.1-0.4-0.1-0.6c-0.1-0.2-0.2-0.3-0.4-0.4s-0.4-0.1-0.6-0.1
				s-0.5,0.1-0.7,0.2c-0.2,0.1-0.3,0.2-0.4,0.4c-0.1,0.2-0.2,0.4-0.2,0.6c0,0.2,0,0.4,0,0.7v4h-1.9v-4.1c0-0.2,0-0.4,0-0.6
				c0-0.2,0-0.4-0.1-0.6c-0.1-0.2-0.2-0.3-0.3-0.4c-0.2-0.1-0.4-0.2-0.7-0.2c-0.1,0-0.2,0-0.4,0.1c-0.1,0-0.3,0.1-0.4,0.2
				c-0.1,0.1-0.3,0.3-0.4,0.5c-0.1,0.2-0.1,0.5-0.1,0.9v4.2h-1.9v-7.2H70.1z"/>
			<path d="M80,109.2c0.1-0.3,0.3-0.6,0.5-0.9c0.2-0.3,0.5-0.4,0.8-0.6s0.7-0.2,1.1-0.2c0.3,0,0.6,0,0.9,0.1
				c0.3,0.1,0.5,0.2,0.7,0.4c0.2,0.2,0.4,0.4,0.5,0.7c0.1,0.3,0.2,0.6,0.2,0.9c0,0.3-0.1,0.6-0.2,0.9c-0.1,0.2-0.3,0.5-0.4,0.7
				c-0.2,0.2-0.4,0.4-0.6,0.5s-0.5,0.3-0.7,0.5c-0.2,0.2-0.5,0.3-0.7,0.5s-0.4,0.4-0.6,0.6h3.2v1.2h-4.9c0-0.4,0.1-0.7,0.2-1
				c0.1-0.3,0.3-0.6,0.5-0.8c0.2-0.2,0.4-0.4,0.7-0.6s0.5-0.4,0.8-0.6c0.1-0.1,0.3-0.2,0.5-0.3c0.2-0.1,0.3-0.2,0.5-0.4
				c0.1-0.1,0.3-0.3,0.3-0.4c0.1-0.2,0.1-0.3,0.1-0.6c0-0.3-0.1-0.6-0.3-0.8c-0.2-0.2-0.4-0.3-0.7-0.3c-0.2,0-0.4,0-0.5,0.1
				c-0.1,0.1-0.2,0.2-0.3,0.4s-0.1,0.3-0.2,0.5c0,0.2-0.1,0.4-0.1,0.6h-1.3C79.9,109.9,79.9,109.5,80,109.2z"/>
		</g>
	</g>
	<g>
		<path d="M52.1,79.5v1h0c0.3-0.4,0.6-0.7,0.9-0.9c0.4-0.2,0.8-0.3,1.3-0.3c0.5,0,0.9,0.1,1.2,0.3c0.4,0.2,0.7,0.5,0.9,0.9
			c0.2-0.3,0.5-0.6,0.9-0.8c0.4-0.2,0.8-0.4,1.3-0.4c0.4,0,0.7,0,1.1,0.1c0.3,0.1,0.6,0.2,0.8,0.4c0.2,0.2,0.4,0.5,0.5,0.8
			c0.1,0.3,0.2,0.7,0.2,1.2v4.8h-2v-4.1c0-0.2,0-0.5,0-0.7c0-0.2-0.1-0.4-0.2-0.6c-0.1-0.2-0.2-0.3-0.4-0.4
			c-0.2-0.1-0.4-0.1-0.7-0.1c-0.3,0-0.5,0.1-0.7,0.2c-0.2,0.1-0.3,0.2-0.4,0.4c-0.1,0.2-0.2,0.4-0.2,0.6s0,0.4,0,0.7v4h-2v-4
			c0-0.2,0-0.4,0-0.6s0-0.4-0.1-0.6c-0.1-0.2-0.2-0.3-0.3-0.4s-0.4-0.2-0.7-0.2c-0.1,0-0.2,0-0.4,0.1c-0.2,0-0.3,0.1-0.4,0.2
			c-0.1,0.1-0.3,0.3-0.4,0.5c-0.1,0.2-0.2,0.5-0.2,0.9v4.2h-2v-7.2H52.1z"/>
		<path d="M62.4,81.7c0-0.5,0.1-0.8,0.3-1.2s0.5-0.5,0.8-0.7c0.3-0.2,0.7-0.3,1.1-0.4c0.4-0.1,0.8-0.1,1.2-0.1c0.4,0,0.7,0,1.1,0.1
			c0.4,0.1,0.7,0.2,1,0.3c0.3,0.1,0.6,0.4,0.7,0.6c0.2,0.3,0.3,0.6,0.3,1V85c0,0.3,0,0.6,0.1,0.9c0,0.3,0.1,0.5,0.2,0.7h-2
			c0-0.1-0.1-0.2-0.1-0.3c0-0.1,0-0.2,0-0.4c-0.3,0.3-0.7,0.5-1.1,0.7c-0.4,0.1-0.9,0.2-1.3,0.2c-0.3,0-0.7,0-1-0.1
			c-0.3-0.1-0.6-0.2-0.8-0.4c-0.2-0.2-0.4-0.4-0.5-0.7c-0.1-0.3-0.2-0.6-0.2-1c0-0.4,0.1-0.7,0.2-1c0.1-0.3,0.3-0.5,0.6-0.6
			c0.2-0.2,0.5-0.3,0.8-0.4c0.3-0.1,0.6-0.1,0.9-0.2c0.3,0,0.6-0.1,0.9-0.1c0.3,0,0.5-0.1,0.8-0.1c0.2-0.1,0.4-0.1,0.5-0.2
			c0.1-0.1,0.2-0.3,0.2-0.5c0-0.2,0-0.4-0.1-0.5c-0.1-0.1-0.2-0.2-0.3-0.3s-0.2-0.1-0.4-0.1c-0.2,0-0.3,0-0.5,0
			c-0.4,0-0.7,0.1-0.9,0.2c-0.2,0.2-0.4,0.4-0.4,0.8H62.4z M66.9,83.1c-0.1,0.1-0.2,0.1-0.3,0.2c-0.1,0-0.3,0.1-0.4,0.1
			c-0.1,0-0.3,0.1-0.5,0.1c-0.2,0-0.3,0-0.5,0.1c-0.1,0-0.3,0.1-0.4,0.1s-0.3,0.1-0.4,0.2c-0.1,0.1-0.2,0.2-0.3,0.3
			c-0.1,0.1-0.1,0.3-0.1,0.5c0,0.2,0,0.3,0.1,0.4c0.1,0.1,0.2,0.2,0.3,0.3c0.1,0.1,0.2,0.1,0.4,0.1c0.1,0,0.3,0,0.5,0
			c0.4,0,0.7-0.1,0.9-0.2c0.2-0.1,0.4-0.3,0.5-0.5c0.1-0.2,0.2-0.4,0.2-0.5c0-0.2,0-0.3,0-0.4V83.1z"/>
		<path d="M69.6,79.5h2.2l1.3,1.9l1.2-1.9h2.2l-2.4,3.4l2.6,3.8h-2.2l-1.5-2.3l-1.5,2.3h-2.2l2.6-3.8L69.6,79.5z"/>
		<path d="M79.6,84.5v2.1h-2.2v-2.1H79.6z"/>
	</g>
</g>
</svg>
