<?xml version="1.0" encoding="utf-8"?>
<!-- Generator: Adobe Illustrator 16.0.0, SVG Export Plug-In . SVG Version: 6.00 Build 0)  -->
<svg version="1.2" baseProfile="tiny" id="katman_1"
	 xmlns="http://www.w3.org/2000/svg" xmlns:xlink="http://www.w3.org/1999/xlink" x="0px" y="0px" width="201.3px" height="130px"
	 viewBox="0 0 201.3 130" xml:space="preserve">
<g>
	<g>
		<g>
			<circle fill="#E10A17" cx="168" cy="38.2" r="4.8"/>
		</g>
		<g>
			<path fill="#E10A17" d="M168.6,99c2.1-0.1,2.7-1.9,2.7-3.5v-22l1.4-5.4V49c0-1.5-0.9-3.6-2.7-3.8l0,0c-3.7-0.6-6.4,0.9-6.4,3.8
				v20.7l0.8,5l1.2,21C165.5,95.7,165.5,99.2,168.6,99z"/>
		</g>
		<g>
			<path fill="#E10A17" d="M153.5,62.4l7.1-6.4c0.1-0.1,0.2-0.1,0.3-0.2c0,0,0,0,0-0.1l5.9-7.5c0.8-1,2.2-1.1,3.2-0.4l0,0
				c1,0.8,1.1,2.2,0.4,3.2l-5.9,7.5c-0.2,0.2-0.3,0.4-0.5,0.5c-0.1,0.1-0.2,0.2-0.3,0.3l-7.1,6.4c-0.9,0.8-2.4,0.8-3.2-0.2l0,0
				C152.5,64.7,152.6,63.3,153.5,62.4z"/>
		</g>
	</g>
	<g>
		<g>
			<path fill="#E10E17" d="M17.5,67.6v11.7h-1.2V70l-4.6,7.9h-0.6L6.5,70v9.3H5.3V67.6h1l5.1,8.7l5-8.7H17.5z"/>
			<path fill="#E10E17" d="M27.7,73.9v5.4h-1.1V78c-0.5,0.9-1.6,1.5-3,1.5c-2,0-3.2-1-3.2-2.6c0-1.4,0.9-2.5,3.4-2.5h2.8v-0.5
				c0-1.5-0.9-2.3-2.5-2.3c-1.1,0-2.2,0.4-2.9,1l-0.5-0.9c0.9-0.8,2.2-1.2,3.6-1.2C26.4,70.5,27.7,71.6,27.7,73.9z M26.5,76.7v-1.4
				h-2.8c-1.7,0-2.3,0.7-2.3,1.6c0,1,0.8,1.7,2.2,1.7C25.1,78.5,26,77.9,26.5,76.7z"/>
			<path fill="#E10E17" d="M36.5,79.3l-2.8-3.7l-2.8,3.7h-1.3l3.5-4.5l-3.3-4.3h1.3l2.6,3.4l2.6-3.4h1.3l-3.3,4.3l3.5,4.5H36.5z"/>
			<path fill="#E10E17" d="M51.4,78.3v1.1h-8.2v-0.9l4.9-4.8c1.3-1.3,1.6-2.1,1.6-2.9c0-1.4-1-2.2-2.7-2.2c-1.4,0-2.4,0.4-3.2,1.3
				l-0.9-0.7c0.9-1.1,2.4-1.7,4.1-1.7c2.4,0,3.9,1.2,3.9,3.2c0,1.1-0.4,2.1-1.9,3.7l-4,3.9H51.4z"/>
			<path fill="#E10E17" d="M53,78.5c0-0.5,0.4-0.9,0.9-0.9s0.9,0.4,0.9,0.9c0,0.5-0.4,0.9-0.9,0.9S53,79,53,78.5z"/>
			<path fill="#E10E17" d="M65.5,76.1c0,2.1-1.8,3.4-4.5,3.4c-2.8,0-4.5-1.3-4.5-3.4c0-1.4,0.8-2.4,2.3-2.9
				c-1.2-0.5-1.8-1.4-1.8-2.6c0-1.9,1.6-3.1,4.1-3.1c2.5,0,4.1,1.2,4.1,3.1c0,1.2-0.7,2.1-1.9,2.6C64.7,73.7,65.5,74.7,65.5,76.1z
				 M64.3,76.1c0-1.4-1.2-2.3-3.3-2.3c-2.1,0-3.3,0.9-3.3,2.3c0,1.5,1.2,2.4,3.3,2.4C63,78.4,64.3,77.5,64.3,76.1z M60.9,72.8
				c1.8,0,2.9-0.8,2.9-2.1c0-1.3-1.2-2.1-2.9-2.1c-1.8,0-2.9,0.8-2.9,2.1C58,72,59.1,72.8,60.9,72.8z"/>
			<path fill="#E10E17" d="M67.2,73.5c0-3.7,2-5.9,4.7-5.9s4.7,2.2,4.7,5.9c0,3.7-2,6-4.7,6S67.2,77.2,67.2,73.5z M75.3,73.5
				c0-3.1-1.4-4.8-3.4-4.8s-3.4,1.7-3.4,4.8s1.4,4.8,3.4,4.8S75.3,76.6,75.3,73.5z"/>
			<path fill="#E10E17" d="M97.9,74.3v5.1h-1.2v-5c0-1.9-0.9-2.8-2.5-2.8c-1.8,0-2.9,1.2-2.9,3.2v4.6h-1.2v-5c0-1.9-0.9-2.8-2.5-2.8
				c-1.8,0-2.9,1.2-2.9,3.2v4.6h-1.2v-8.8h1.1v1.6c0.6-1.1,1.8-1.7,3.2-1.7c1.5,0,2.6,0.6,3.1,1.9c0.6-1.1,1.9-1.9,3.5-1.9
				C96.5,70.5,97.9,71.7,97.9,74.3z"/>
			<path fill="#E10E17" d="M100.4,78.5c0-0.5,0.4-0.9,0.9-0.9s0.9,0.4,0.9,0.9c0,0.5-0.4,0.9-0.9,0.9S100.4,79,100.4,78.5z"/>
		</g>
		<g>
			<rect x="98" y="123.4" fill="#1D1D1B" width="99" height="0.6"/>
		</g>
		<g>
			<g>
				<g>
					<rect x="175.9" y="112.8" fill="#010101" width="6.2" height="0.8"/>
				</g>
			</g>
			<g>
				<g>
					<rect x="167.1" y="98.7" fill="#010101" width="6.2" height="0.8"/>
				</g>
			</g>
			<g>
				<g>
					<rect x="160.1" y="86.2" fill="#010101" width="6.2" height="0.8"/>
				</g>
			</g>
			<g>
				<g>
					<g>
						<polygon fill="#010101" points="181.6,123.7 182.2,123.3 119.5,18.8 118.9,19.2 						"/>
					</g>
				</g>
				<g>
					<g>
						<path fill="#010101" d="M118.9,8.5h63.6v10.9h-63.6V8.5z M181.7,9.2h-62.1v9.4h62.1V9.2z"/>
					</g>
				</g>
				<g>
					<g>
						<g>
							<g>
								<rect x="115.8" y="25.4" fill="#E20613" width="1" height="94.7"/>
							</g>
						</g>
					</g>
					<g>
						<g>
							<g>
								<polygon fill="#E20613" points="112.9,29.1 112.2,28.3 116.3,24.2 120.4,28.3 119.7,29.1 116.3,25.7 								"/>
							</g>
						</g>
					</g>
				</g>
				<g>
					<g>
						<rect x="152.3" y="73.3" fill="#010101" width="6.2" height="0.8"/>
					</g>
				</g>
				<g>
					<g>
						<rect x="143.3" y="59.2" fill="#010101" width="6.2" height="0.8"/>
					</g>
				</g>
				<g>
					<g>
						<rect x="135.7" y="46.6" fill="#010101" width="6.2" height="0.8"/>
					</g>
				</g>
			</g>
		</g>
	</g>
	<g>
		<rect x="113" y="119.5" fill="#E20613" width="7.4" height="1"/>
	</g>
</g>
</svg>
