<?xml version="1.0" encoding="utf-8"?>
<!-- Generator: Adobe Illustrator 16.0.0, SVG Export Plug-In . SVG Version: 6.00 Build 0)  -->
<svg version="1.2" baseProfile="tiny" id="katman_1"
	 xmlns="http://www.w3.org/2000/svg" xmlns:xlink="http://www.w3.org/1999/xlink" x="0px" y="0px" width="130px" height="130px"
	 viewBox="0 0 130 130" xml:space="preserve">
<g>
	<g>
		<g>
			<path fill="#E20613" d="M68.3,10.1L68.3,10.1c-0.6-0.2-1.2,0-1.4,0.6L65.2,15L62,18.2c-0.4,0.4-0.4,1.1,0,1.5l0,0
				c0.4,0.4,1.1,0.4,1.5,0l3.2-3.2c0.1-0.1,0.2-0.2,0.2-0.4c0.1-0.1,0.2-0.2,0.2-0.3l1.7-4.3C69.1,11,68.9,10.3,68.3,10.1z"/>
		</g>
		<g>
			<circle fill="#E20613" cx="61.7" cy="13.5" r="2.3"/>
		</g>
		<g>
			<path fill="#E20613" d="M61.4,42.7c-1,0-1.3-0.9-1.3-1.7V30.5l-0.7-2.6v-9.2c0-0.7,0.4-1.7,1.3-1.8l0,0c1.8-0.3,3.1,0.4,3.1,1.8
				v9.9l-0.4,2.4l-0.6,10.1C62.9,41.1,62.9,42.8,61.4,42.7z"/>
		</g>
		<g>
			<path fill="#E20613" d="M68.7,25.1l-3.4-3.1c0,0-0.1-0.1-0.1-0.1c0,0,0,0,0,0l-2.9-3.6c-0.4-0.5-1.1-0.5-1.5-0.2l0,0
				c-0.5,0.4-0.5,1.1-0.2,1.5l2.9,3.6c0.1,0.1,0.2,0.2,0.3,0.2c0,0.1,0.1,0.1,0.2,0.2l3.4,3.1c0.4,0.4,1.1,0.4,1.5-0.1l0,0
				C69.2,26.2,69.1,25.5,68.7,25.1z"/>
		</g>
	</g>
	<g>
		<g>
			<g>
				<rect x="38.2" y="21.8" fill="#1D1D1B" width="2.1" height="98.8"/>
			</g>
		</g>
	</g>
	<g>
		<g>
			<g>
				<rect x="39.5" y="42.4" fill="#1D1D1B" width="36.2" height="2.1"/>
			</g>
		</g>
	</g>
	<g>
		<g>
			<g>
				<rect x="39.2" y="78.6" fill="#1D1D1B" width="36.2" height="2.1"/>
			</g>
		</g>
	</g>
	<g>
		<g>
			<g>
				<rect x="39.9" y="111.9" fill="#1D1D1B" width="35.6" height="1.7"/>
			</g>
		</g>
	</g>
	<g>
		<g>
			<g>
				<path fill="#1D1D1B" d="M39.2,125c-1.6,0-3-1.3-3-3c0-1.6,1.3-3,3-3c1.6,0,3,1.3,3,3C42.1,123.6,40.8,125,39.2,125z M39.2,120.6
					c-0.8,0-1.4,0.6-1.4,1.4c0,0.8,0.6,1.4,1.4,1.4c0.8,0,1.4-0.6,1.4-1.4C40.6,121.2,39.9,120.6,39.2,120.6z"/>
			</g>
		</g>
	</g>
	<g>
		<g>
			<g>
				<rect x="74.5" y="21.8" fill="#1D1D1B" width="2.1" height="98.8"/>
			</g>
		</g>
	</g>
	<g>
		<g>
			<g>
				<path fill="#1D1D1B" d="M75.5,125c-1.6,0-3-1.3-3-3c0-1.6,1.3-3,3-3c1.6,0,3,1.3,3,3C78.4,123.6,77.1,125,75.5,125z M75.5,120.6
					c-0.8,0-1.4,0.6-1.4,1.4c0,0.8,0.6,1.4,1.4,1.4c0.8,0,1.4-0.6,1.4-1.4C76.9,121.2,76.2,120.6,75.5,120.6z"/>
			</g>
		</g>
	</g>
	<g>
		<g>
			<g>
				<line fill="#FFFFFF" x1="70.1" y1="25.2" x2="70.1" y2="36.8"/>
			</g>
			<g>
				<rect x="69.7" y="25.2" fill="#1D1D1B" width="0.8" height="11.6"/>
			</g>
		</g>
		<g>
			<g>
				<line fill="#FFFFFF" x1="44.6" y1="25.2" x2="44.6" y2="36.8"/>
			</g>
			<g>
				<rect x="44.3" y="25.2" fill="#1D1D1B" width="0.8" height="11.6"/>
			</g>
		</g>
		<g>
			<g>
				<g>
					<line fill="#FFFFFF" x1="38.9" y1="25.2" x2="75.8" y2="25.2"/>
				</g>
				<g>
					<rect x="38.9" y="24.9" fill="#1D1D1B" width="36.9" height="0.8"/>
				</g>
			</g>
			<g>
				<g>
					<line fill="#FFFFFF" x1="42.4" y1="36.8" x2="72.3" y2="36.8"/>
				</g>
				<g>
					<rect x="42.4" y="36.4" fill="#1D1D1B" width="29.8" height="0.8"/>
				</g>
			</g>
			<g>
				<g>
					<line fill="#FFFFFF" x1="57.3" y1="25.2" x2="57.3" y2="36.8"/>
				</g>
				<g>
					<rect x="57" y="25.2" fill="#1D1D1B" width="0.8" height="11.6"/>
				</g>
			</g>
			<g>
				<g>
					<line fill="#FFFFFF" x1="60.7" y1="25.2" x2="67" y2="36.8"/>
				</g>
				<g>
					
						<rect x="57.3" y="30.6" transform="matrix(0.4795 0.8775 -0.8775 0.4795 60.463 -39.8934)" fill="#1D1D1B" width="13.2" height="0.8"/>
				</g>
			</g>
			<g>
				<g>
					<line fill="#FFFFFF" x1="54" y1="25.2" x2="47.7" y2="36.8"/>
				</g>
				<g>
					
						<rect x="50.5" y="24.4" transform="matrix(0.8772 0.4802 -0.4802 0.8772 21.1444 -20.615)" fill="#1D1D1B" width="0.8" height="13.2"/>
				</g>
			</g>
			<g>
				<g>
					<line fill="#FFFFFF" x1="61.8" y1="36.8" x2="75.8" y2="48"/>
				</g>
				<g>
					
						<rect x="59.9" y="42" transform="matrix(0.7797 0.6262 -0.6262 0.7797 41.7059 -33.7406)" fill="#1D1D1B" width="17.9" height="0.8"/>
				</g>
			</g>
			<g>
				<g>
					<line fill="#FFFFFF" x1="52.8" y1="36.8" x2="38.9" y2="48"/>
				</g>
				<g>
					
						<rect x="45.5" y="33.5" transform="matrix(0.6251 0.7806 -0.7806 0.6251 50.2832 -19.8994)" fill="#1D1D1B" width="0.8" height="17.9"/>
				</g>
			</g>
		</g>
	</g>
	<g>
		<g>
			<g>
				<line fill="#FFFFFF" x1="70.1" y1="61.4" x2="70.1" y2="73"/>
			</g>
			<g>
				<rect x="69.7" y="61.4" fill="#1D1D1B" width="0.8" height="11.6"/>
			</g>
		</g>
		<g>
			<g>
				<line fill="#FFFFFF" x1="44.6" y1="61.4" x2="44.6" y2="73"/>
			</g>
			<g>
				<rect x="44.3" y="61.4" fill="#1D1D1B" width="0.8" height="11.6"/>
			</g>
		</g>
		<g>
			<g>
				<g>
					<line fill="#FFFFFF" x1="38.9" y1="61.4" x2="75.8" y2="61.4"/>
				</g>
				<g>
					<rect x="38.9" y="61" fill="#1D1D1B" width="36.9" height="0.8"/>
				</g>
			</g>
			<g>
				<g>
					<line fill="#FFFFFF" x1="42.4" y1="73" x2="72.3" y2="73"/>
				</g>
				<g>
					<rect x="42.4" y="72.6" fill="#1D1D1B" width="29.8" height="0.8"/>
				</g>
			</g>
			<g>
				<g>
					<line fill="#FFFFFF" x1="57.3" y1="61.4" x2="57.3" y2="73"/>
				</g>
				<g>
					<rect x="57" y="61.4" fill="#1D1D1B" width="0.8" height="11.6"/>
				</g>
			</g>
			<g>
				<g>
					<line fill="#FFFFFF" x1="60.7" y1="61.4" x2="67" y2="73"/>
				</g>
				<g>
					
						<rect x="57.3" y="66.8" transform="matrix(0.4795 0.8775 -0.8775 0.4795 92.204 -21.067)" fill="#1D1D1B" width="13.2" height="0.8"/>
				</g>
			</g>
			<g>
				<g>
					<line fill="#FFFFFF" x1="54" y1="61.4" x2="47.7" y2="73"/>
				</g>
				<g>
					
						<rect x="50.5" y="60.6" transform="matrix(0.8774 0.4797 -0.4797 0.8774 38.465 -16.1653)" fill="#1D1D1B" width="0.8" height="13.2"/>
				</g>
			</g>
			<g>
				<g>
					<line fill="#FFFFFF" x1="61.8" y1="73" x2="75.8" y2="84.2"/>
				</g>
				<g>
					
						<rect x="59.9" y="78.2" transform="matrix(0.7797 0.6261 -0.6261 0.7797 64.3501 -25.7716)" fill="#1D1D1B" width="17.9" height="0.8"/>
				</g>
			</g>
			<g>
				<g>
					<line fill="#FFFFFF" x1="52.8" y1="73" x2="38.9" y2="84.2"/>
				</g>
				<g>
					
						<rect x="45.5" y="69.6" transform="matrix(0.6248 0.7808 -0.7808 0.6248 78.5503 -6.3257)" fill="#1D1D1B" width="0.8" height="17.9"/>
				</g>
			</g>
		</g>
	</g>
	<g>
		<g>
			<g>
				<line fill="#FFFFFF" x1="70.1" y1="95.6" x2="70.1" y2="107.1"/>
			</g>
			<g>
				<rect x="69.7" y="95.6" fill="#1D1D1B" width="0.8" height="11.6"/>
			</g>
		</g>
		<g>
			<g>
				<line fill="#FFFFFF" x1="44.6" y1="95.6" x2="44.6" y2="107.1"/>
			</g>
			<g>
				<rect x="44.3" y="95.6" fill="#1D1D1B" width="0.8" height="11.6"/>
			</g>
		</g>
		<g>
			<g>
				<g>
					<line fill="#FFFFFF" x1="38.9" y1="95.6" x2="75.8" y2="95.6"/>
				</g>
				<g>
					<rect x="38.9" y="95.2" fill="#1D1D1B" width="36.9" height="0.8"/>
				</g>
			</g>
			<g>
				<g>
					<line fill="#FFFFFF" x1="42.4" y1="107.1" x2="72.3" y2="107.1"/>
				</g>
				<g>
					<rect x="42.4" y="106.8" fill="#1D1D1B" width="29.8" height="0.8"/>
				</g>
			</g>
			<g>
				<g>
					<line fill="#FFFFFF" x1="57.3" y1="95.6" x2="57.3" y2="107.1"/>
				</g>
				<g>
					<rect x="57" y="95.6" fill="#1D1D1B" width="0.8" height="11.6"/>
				</g>
			</g>
			<g>
				<g>
					<line fill="#FFFFFF" x1="60.7" y1="95.6" x2="67" y2="107.1"/>
				</g>
				<g>
					
						<rect x="57.3" y="101" transform="matrix(0.4795 0.8775 -0.8775 0.4795 122.1804 -3.2873)" fill="#1D1D1B" width="13.2" height="0.8"/>
				</g>
			</g>
			<g>
				<g>
					<line fill="#FFFFFF" x1="54" y1="95.6" x2="47.7" y2="107.1"/>
				</g>
				<g>
					
						<rect x="50.5" y="94.8" transform="matrix(0.8774 0.4797 -0.4797 0.8774 54.8504 -11.979)" fill="#1D1D1B" width="0.8" height="13.2"/>
				</g>
			</g>
			<g>
				<g>
					<line fill="#FFFFFF" x1="61.8" y1="107.1" x2="75.8" y2="118.3"/>
				</g>
				<g>
					
						<rect x="59.9" y="112.4" transform="matrix(0.7797 0.6262 -0.6262 0.7797 85.7475 -18.2454)" fill="#1D1D1B" width="17.9" height="0.8"/>
				</g>
			</g>
			<g>
				<g>
					<line fill="#FFFFFF" x1="52.8" y1="107.1" x2="38.9" y2="118.3"/>
				</g>
				<g>
					
						<rect x="45.5" y="103.8" transform="matrix(0.6248 0.7808 -0.7808 0.6248 105.2224 6.4919)" fill="#1D1D1B" width="0.8" height="17.9"/>
				</g>
			</g>
		</g>
	</g>
	<g>
		<g>
			<rect x="88.3" y="8.7" fill="#E20613" width="1.4" height="115"/>
		</g>
		<g>
			<rect x="62.4" y="8" fill="#E20613" width="31.4" height="1.4"/>
		</g>
		<g>
			<rect x="84.2" y="122.8" fill="#E20613" width="9.6" height="1.4"/>
		</g>
	</g>
</g>
</svg>
