<?xml version="1.0" encoding="utf-8"?>
<!-- Generator: Adobe Illustrator 16.0.0, SVG Export Plug-In . SVG Version: 6.00 Build 0)  -->
<svg version="1.2" baseProfile="tiny" id="katman_1"
	 xmlns="http://www.w3.org/2000/svg" xmlns:xlink="http://www.w3.org/1999/xlink" x="0px" y="0px" width="130px" height="130px"
	 viewBox="0 0 130 130" xml:space="preserve">
<g>
	<g>
		<g>
			
				<rect x="31.6" y="113" transform="matrix(0.9837 0.18 -0.18 0.9837 21.2705 -7.7721)" fill="#E20613" width="43.7" height="0.7"/>
		</g>
		<g>
			
				<rect x="87.2" y="104" transform="matrix(0.281 0.9597 -0.9597 0.281 172.7222 -1.787)" fill="#E20613" width="0.7" height="20.8"/>
		</g>
	</g>
	<g>
		<rect x="97.3" y="109.3" fill="#E20613" width="0.7" height="4.6"/>
	</g>
	<g>
		<rect x="77" y="114.8" fill="#E20613" width="0.7" height="4.6"/>
	</g>
	<g>
		<rect x="74.9" y="114.8" fill="#E20613" width="0.7" height="4.6"/>
	</g>
	<g>
		<rect x="31.5" y="106.8" fill="#E20613" width="0.7" height="4.6"/>
	</g>
	<g>
		<g>
			<g>
				<g>
					<g>
						<path fill="#D9D9D9" d="M53.1,96.2h2.5V56c0-0.7-0.6-1.2-1.2-1.2l0,0c-0.7,0-1.2,0.6-1.2,1.2V96.2z"/>
					</g>
				</g>
			</g>
		</g>
		<g>
			<g>
				<g>
					<g>
						<path fill="#D9D9D9" d="M51.6,97.9c0-1.6,1.3-2.8,2.8-2.8c1.6,0,2.8,1.3,2.8,2.8c0,1.6-1.3,2.8-2.8,2.8
							C52.8,100.8,51.6,99.5,51.6,97.9z M53,97.9c0,0.7,0.6,1.4,1.4,1.4c0.7,0,1.4-0.6,1.4-1.4c0-0.7-0.6-1.4-1.4-1.4
							C53.6,96.6,53,97.2,53,97.9z"/>
					</g>
				</g>
			</g>
		</g>
		<g>
			<g>
				<line fill="#D9D9D9" x1="32.8" y1="98" x2="53.7" y2="91.9"/>
			</g>
			<g>
				
					<rect x="42.1" y="84" transform="matrix(0.2785 0.9604 -0.9604 0.2785 122.3944 26.9479)" fill="#D9D9D9" width="2.4" height="21.8"/>
			</g>
		</g>
		<g>
			<g>
				<line fill="#D9D9D9" x1="53.7" y1="86.2" x2="32.8" y2="92.3"/>
			</g>
			<g>
				
					<rect x="42.1" y="78.4" transform="matrix(0.2785 0.9604 -0.9604 0.2785 116.9531 22.8605)" fill="#D9D9D9" width="2.4" height="21.8"/>
			</g>
		</g>
		<g>
			<g>
				<line fill="#D9D9D9" x1="32.8" y1="86.7" x2="53.7" y2="80.6"/>
			</g>
			<g>
				
					<rect x="42.1" y="72.7" transform="matrix(0.2785 0.9604 -0.9604 0.2785 111.5106 18.7722)" fill="#D9D9D9" width="2.4" height="21.8"/>
			</g>
		</g>
		<g>
			<g>
				<line fill="#D9D9D9" x1="32.8" y1="81" x2="53.7" y2="74.9"/>
			</g>
			<g>
				
					<rect x="42.1" y="67" transform="matrix(0.2785 0.9604 -0.9604 0.2785 106.0695 14.6849)" fill="#D9D9D9" width="2.4" height="21.8"/>
			</g>
		</g>
		<g>
			<g>
				<line fill="#D9D9D9" x1="32.8" y1="75.3" x2="53.7" y2="69.2"/>
			</g>
			<g>
				
					<rect x="42.1" y="61.4" transform="matrix(0.2785 0.9604 -0.9604 0.2785 100.6268 10.5965)" fill="#D9D9D9" width="2.4" height="21.8"/>
			</g>
		</g>
		<g>
			<g>
				<line fill="#D9D9D9" x1="32.8" y1="69.7" x2="53.7" y2="63.6"/>
			</g>
			<g>
				
					<rect x="42.1" y="55.7" transform="matrix(0.2785 0.9604 -0.9604 0.2785 95.185 6.5087)" fill="#D9D9D9" width="2.4" height="21.8"/>
			</g>
		</g>
		<g>
			<g>
				<polygon fill="#D9D9D9" points="32.1,87 74.9,92.6 74.9,95.3 32,88.9 				"/>
			</g>
		</g>
		<g>
			<g>
				<g>
					<g>
						<line fill="#D9D9D9" x1="60.8" y1="64.6" x2="60.8" y2="78.6"/>
					</g>
				</g>
				<g>
					<g>
						<polygon fill="#D9D9D9" points="60.4,78.5 61.3,78.7 61.3,64.7 60.4,64.5 						"/>
					</g>
				</g>
			</g>
			<g>
				<g>
					<g>
						<line fill="#D9D9D9" x1="91.5" y1="70.6" x2="91.5" y2="84.5"/>
					</g>
				</g>
				<g>
					<g>
						<polygon fill="#D9D9D9" points="91,84.4 91.9,84.6 91.9,70.6 91,70.5 						"/>
					</g>
				</g>
			</g>
			<g>
				<g>
					<g>
						<g>
							<line fill="#D9D9D9" x1="98.4" y1="71.9" x2="54" y2="63.3"/>
						</g>
					</g>
					<g>
						<g>
							<polygon fill="#D9D9D9" points="54,63.8 98.4,72.3 98.4,71.4 54,62.9 							"/>
						</g>
					</g>
				</g>
				<g>
					<g>
						<g>
							<line fill="#D9D9D9" x1="94.2" y1="85" x2="58.2" y2="78.1"/>
						</g>
					</g>
					<g>
						<g>
							<polygon fill="#D9D9D9" points="58.2,78.5 94.2,85.5 94.2,84.5 58.2,77.6 							"/>
						</g>
					</g>
				</g>
				<g>
					<g>
						<g>
							<line fill="#D9D9D9" x1="76.2" y1="67.6" x2="76.2" y2="81.5"/>
						</g>
					</g>
					<g>
						<g>
							<polygon fill="#D9D9D9" points="75.7,81.4 76.6,81.6 76.6,67.7 75.7,67.5 							"/>
						</g>
					</g>
				</g>
				<g>
					<g>
						<g>
							<line fill="#D9D9D9" x1="72.1" y1="66.8" x2="64.5" y2="79.3"/>
						</g>
					</g>
					<g>
						<g>
							<polygon fill="#D9D9D9" points="64.9,79.6 72.5,67.1 71.7,66.5 64.1,79 							"/>
						</g>
					</g>
				</g>
				<g>
					<g>
						<g>
							<line fill="#D9D9D9" x1="80.2" y1="68.4" x2="87.8" y2="83.8"/>
						</g>
					</g>
					<g>
						<g>
							<polygon fill="#D9D9D9" points="87.4,83.9 88.2,83.6 80.6,68.2 79.8,68.5 							"/>
						</g>
					</g>
				</g>
				<g>
					<g>
						<g>
							<line fill="#D9D9D9" x1="70.8" y1="80.5" x2="54" y2="90.7"/>
						</g>
					</g>
					<g>
						<g>
							<polygon fill="#D9D9D9" points="54.2,91.1 71,80.9 70.5,80.1 53.7,90.3 							"/>
						</g>
					</g>
				</g>
				<g>
					<g>
						<g>
							<line fill="#D9D9D9" x1="81.6" y1="82.6" x2="98.4" y2="99.3"/>
						</g>
					</g>
					<g>
						<g>
							<polygon fill="#D9D9D9" points="98.1,99.6 98.7,99 81.9,82.3 81.3,82.9 							"/>
						</g>
					</g>
				</g>
			</g>
		</g>
		<g>
			<g>
				<g>
					<g>
						<polygon fill="#D9D9D9" points="32,86.9 76.8,93 97.7,87.1 53.7,80.6 						"/>
					</g>
				</g>
			</g>
		</g>
		<g>
			<g>
				<polygon fill="#1D1D1B" points="19.8,89.2 19.1,87.5 31.8,84.9 32.4,86.6 				"/>
			</g>
		</g>
		<g>
			<g>
				<g>
					<g>
						<path fill="#1D1D1B" d="M74.9,109.1h2.5V68.8c0-0.7-0.6-1.2-1.2-1.2l0,0c-0.7,0-1.2,0.6-1.2,1.2V109.1z"/>
					</g>
				</g>
			</g>
		</g>
		<g>
			<g>
				<g>
					<g>
						<path fill="#1D1D1B" d="M96.5,103.5H99V63.2c0-0.7-0.6-1.2-1.2-1.2l0,0c-0.7,0-1.2,0.6-1.2,1.2V103.5z"/>
					</g>
				</g>
			</g>
		</g>
		<g>
			<g>
				<g>
					<g>
						<path fill="#1D1D1B" d="M73.3,110.8c0-1.6,1.3-2.8,2.8-2.8c1.6,0,2.8,1.3,2.8,2.8c0,1.6-1.3,2.8-2.8,2.8
							C74.6,113.6,73.3,112.4,73.3,110.8z M74.8,110.8c0,0.7,0.6,1.4,1.4,1.4c0.7,0,1.4-0.6,1.4-1.4c0-0.7-0.6-1.4-1.4-1.4
							C75.4,109.4,74.8,110,74.8,110.8z"/>
					</g>
				</g>
			</g>
		</g>
		<g>
			<g>
				<g>
					<g>
						<path fill="#1D1D1B" d="M94.9,105.6c0-1.6,1.3-2.8,2.8-2.8c1.6,0,2.8,1.3,2.8,2.8c0,1.6-1.3,2.8-2.8,2.8
							C96.2,108.4,94.9,107.2,94.9,105.6z M96.4,105.6c0,0.7,0.6,1.4,1.4,1.4c0.7,0,1.4-0.6,1.4-1.4c0-0.7-0.6-1.4-1.4-1.4
							C97,104.2,96.4,104.8,96.4,105.6z"/>
					</g>
				</g>
			</g>
		</g>
		<g>
			<g>
				<g>
					<g>
						<path fill="#1D1D1B" d="M29.3,102.8c0-1.6,1.3-2.8,2.8-2.8c1.6,0,2.8,1.3,2.8,2.8c0,1.6-1.3,2.8-2.8,2.8
							C30.6,105.6,29.3,104.3,29.3,102.8z M30.8,102.8c0,0.7,0.6,1.4,1.4,1.4c0.7,0,1.4-0.6,1.4-1.4c0-0.7-0.6-1.4-1.4-1.4
							C31.4,101.4,30.8,102,30.8,102.8z"/>
					</g>
				</g>
			</g>
		</g>
		<g>
			<g>
				<g>
					<g>
						<path fill="#1D1D1B" d="M31.2,100.6l2.5,0.5V60.6c0-0.6-0.4-1.1-1-1.2l0,0c-0.8-0.1-1.5,0.4-1.5,1.2V100.6z"/>
					</g>
				</g>
			</g>
		</g>
		<g>
			<g>
				<g>
					<g>
						<line fill="#FFFFFF" x1="39" y1="68.4" x2="39" y2="82.3"/>
					</g>
				</g>
				<g>
					<g>
						<polygon fill="#1D1D1B" points="38.5,82.2 39.4,82.4 39.4,68.4 38.5,68.3 						"/>
					</g>
				</g>
			</g>
			<g>
				<g>
					<g>
						<line fill="#FFFFFF" x1="69.6" y1="74.3" x2="69.6" y2="88.2"/>
					</g>
				</g>
				<g>
					<g>
						<polygon fill="#1D1D1B" points="69.2,88.1 70.1,88.3 70.1,74.4 69.2,74.2 						"/>
					</g>
				</g>
			</g>
			<g>
				<g>
					<g>
						<g>
							<line fill="#FFFFFF" x1="76.6" y1="75.6" x2="32.1" y2="67"/>
						</g>
					</g>
					<g>
						<g>
							<polygon fill="#1D1D1B" points="32.1,67.5 76.6,76.1 76.6,75.2 32.1,66.6 							"/>
						</g>
					</g>
				</g>
				<g>
					<g>
						<g>
							<line fill="#FFFFFF" x1="72.3" y1="88.7" x2="36.4" y2="81.8"/>
						</g>
					</g>
					<g>
						<g>
							<polygon fill="#1D1D1B" points="36.4,82.2 72.3,89.2 72.3,88.3 36.4,81.3 							"/>
						</g>
					</g>
				</g>
				<g>
					<g>
						<g>
							<line fill="#FFFFFF" x1="54.3" y1="71.3" x2="54.3" y2="85.2"/>
						</g>
					</g>
					<g>
						<g>
							<polygon fill="#1D1D1B" points="53.9,85.2 54.8,85.3 54.8,71.4 53.9,71.2 							"/>
						</g>
					</g>
				</g>
				<g>
					<g>
						<g>
							<line fill="#FFFFFF" x1="50.3" y1="70.5" x2="42.7" y2="83"/>
						</g>
					</g>
					<g>
						<g>
							<polygon fill="#1D1D1B" points="43.1,83.3 50.7,70.8 49.9,70.2 42.3,82.7 							"/>
						</g>
					</g>
				</g>
				<g>
					<g>
						<g>
							<line fill="#FFFFFF" x1="58.3" y1="72.1" x2="65.9" y2="87.5"/>
						</g>
					</g>
					<g>
						<g>
							<polygon fill="#1D1D1B" points="65.5,87.6 66.3,87.3 58.7,71.9 57.9,72.2 							"/>
						</g>
					</g>
				</g>
				<g>
					<g>
						<g>
							<line fill="#FFFFFF" x1="48.9" y1="84.2" x2="32.1" y2="94.4"/>
						</g>
					</g>
					<g>
						<g>
							<polygon fill="#1D1D1B" points="32.4,94.9 49.2,84.6 48.6,83.8 31.8,94 							"/>
						</g>
					</g>
				</g>
				<g>
					<g>
						<g>
							<line fill="#FFFFFF" x1="59.8" y1="86.3" x2="76.6" y2="103"/>
						</g>
					</g>
					<g>
						<g>
							<polygon fill="#1D1D1B" points="76.3,103.3 76.8,102.7 60,86 59.5,86.6 							"/>
						</g>
					</g>
				</g>
			</g>
		</g>
		<g>
			<g>
				
					<rect x="85.5" y="91.3" transform="matrix(0.2785 0.9604 -0.9604 0.2785 160.6958 -9.4731)" fill="#1D1D1B" width="2.4" height="21.8"/>
			</g>
		</g>
		<g>
			<g>
				
					<rect x="85.5" y="85.7" transform="matrix(0.2785 0.9604 -0.9604 0.2785 155.2538 -13.5611)" fill="#1D1D1B" width="2.4" height="21.8"/>
			</g>
		</g>
		<g>
			<g>
				
					<rect x="85.5" y="80" transform="matrix(0.2785 0.9604 -0.9604 0.2785 149.812 -17.6488)" fill="#1D1D1B" width="2.4" height="21.8"/>
			</g>
		</g>
		<g>
			<g>
				
					<rect x="85.5" y="74.3" transform="matrix(0.2785 0.9604 -0.9604 0.2785 144.3702 -21.7366)" fill="#1D1D1B" width="2.4" height="21.8"/>
			</g>
		</g>
		<g>
			<g>
				
					<rect x="85.5" y="68.7" transform="matrix(0.2785 0.9604 -0.9604 0.2785 138.9282 -25.8246)" fill="#1D1D1B" width="2.4" height="21.8"/>
			</g>
		</g>
		<g>
			<g>
				
					<rect x="85.5" y="63" transform="matrix(0.2785 0.9604 -0.9604 0.2785 133.4864 -29.9124)" fill="#1D1D1B" width="2.4" height="21.8"/>
			</g>
		</g>
		<g>
			<g>
				<g>
					<path fill="#1D1D1B" d="M126.5,112.1L126.5,112.1c0.3-0.3,0.3-0.7,0-1L98.9,82.2c-0.3-0.3-0.7-0.3-1,0v0c-0.3,0.3-0.3,0.7,0,1
						l27.6,28.9C125.7,112.4,126.2,112.4,126.5,112.1z"/>
				</g>
			</g>
		</g>
		<g>
			<g>
				<g>
					<path fill="#1D1D1B" d="M4.6,106.5l27.5-31.6c0.3-0.3,0.2-0.7-0.1-1l0,0c-0.3-0.3-0.7-0.2-1,0.1L3.5,105.6
						c-0.3,0.3-0.2,0.7,0.1,1l0,0C3.9,106.8,4.3,106.8,4.6,106.5z"/>
				</g>
			</g>
		</g>
		<g>
			<g>
				<g>
					<path fill="#1D1D1B" d="M85.3,123.9L85.3,123.9c0.4-0.1,0.6-0.5,0.5-0.8l-7.9-35.2c-0.1-0.4-0.5-0.6-0.8-0.5h0
						c-0.4,0.1-0.6,0.5-0.5,0.8l7.9,35.2C84.6,123.7,84.9,124,85.3,123.9z"/>
				</g>
			</g>
		</g>
		<g>
			<g>
				
					<rect x="76.5" y="99" transform="matrix(0.7334 0.6798 -0.6798 0.7334 89.1346 -26.8378)" fill="#1D1D1B" width="4.5" height="2.4"/>
			</g>
		</g>
		<g>
			<g>
				<polygon fill="#1D1D1B" points="110.1,96.3 97.3,94.2 97.8,92.6 110.6,94.7 				"/>
			</g>
		</g>
	</g>
</g>
</svg>
