<?xml version="1.0" encoding="utf-8"?>
<!-- Generator: Adobe Illustrator 16.0.0, SVG Export Plug-In . SVG Version: 6.00 Build 0)  -->
<svg version="1.2" baseProfile="tiny" id="katman_1"
	 xmlns="http://www.w3.org/2000/svg" xmlns:xlink="http://www.w3.org/1999/xlink" x="0px" y="0px" width="130px" height="130px"
	 viewBox="0 0 130 130" xml:space="preserve">
<g>
	<g>
		
			<rect x="1.3" y="112.7" transform="matrix(0.9778 0.2097 -0.2097 0.9778 24.6832 -6.6431)" fill="#E20613" width="84.8" height="0.7"/>
	</g>
	<g>
		<rect x="84.7" y="119.5" fill="#E20613" width="0.7" height="4.6"/>
	</g>
	<g>
		<polygon fill="#E20613" points="87.3,122.4 87.1,121.7 127.8,108.1 128,108.8 		"/>
	</g>
	<g>
		<rect x="127.6" y="106.2" fill="#E20613" width="0.7" height="4.6"/>
	</g>
	<g>
		<rect x="86.8" y="119.6" fill="#E20613" width="0.7" height="4.6"/>
	</g>
	<g>
		<rect x="1.8" y="101.8" fill="#E20613" width="0.7" height="4.6"/>
	</g>
	<g>
		<g>
			<g>
				<polygon fill="#D9D9D9" points="95.4,79.3 52.6,85 52.6,87.6 95.5,81.2 				"/>
			</g>
		</g>
		<g>
			<g>
				<g>
					<g>
						<path fill="#D9D9D9" d="M54.4,88.4h2.5V48.1c0-0.7-0.6-1.2-1.2-1.2l0,0c-0.7,0-1.2,0.6-1.2,1.2V88.4z"/>
					</g>
				</g>
			</g>
		</g>
		<g>
			<g>
				<g>
					<g>
						<path fill="#D9D9D9" d="M52.9,90.1c0-1.6,1.3-2.8,2.8-2.8c1.6,0,2.8,1.3,2.8,2.8c0,1.6-1.3,2.8-2.8,2.8
							C54.2,92.9,52.9,91.6,52.9,90.1z M54.4,90.1c0,0.7,0.6,1.4,1.4,1.4c0.7,0,1.4-0.6,1.4-1.4c0-0.7-0.6-1.4-1.4-1.4
							C55,88.7,54.4,89.3,54.4,90.1z"/>
					</g>
				</g>
			</g>
		</g>
		<g>
			<g>
				<line fill="#D9D9D9" x1="34.1" y1="90.1" x2="55.1" y2="84.1"/>
			</g>
			<g>
				
					<rect x="43.4" y="76.2" transform="matrix(0.2785 0.9604 -0.9604 0.2785 115.8273 20.0115)" fill="#D9D9D9" width="2.4" height="21.8"/>
			</g>
		</g>
		<g>
			<g>
				<line fill="#D9D9D9" x1="55.1" y1="78.4" x2="34.1" y2="84.5"/>
			</g>
			<g>
				
					<rect x="43.4" y="70.5" transform="matrix(0.2785 0.9604 -0.9604 0.2785 110.3853 15.9235)" fill="#D9D9D9" width="2.4" height="21.8"/>
			</g>
		</g>
		<g>
			<g>
				<line fill="#D9D9D9" x1="34.1" y1="78.8" x2="55.1" y2="72.7"/>
			</g>
			<g>
				
					<rect x="43.4" y="64.9" transform="matrix(0.2785 0.9604 -0.9604 0.2785 104.9433 11.8355)" fill="#D9D9D9" width="2.4" height="21.8"/>
			</g>
		</g>
		<g>
			<g>
				<line fill="#D9D9D9" x1="34.1" y1="73.1" x2="55.1" y2="67.1"/>
			</g>
			<g>
				
					<rect x="43.4" y="59.2" transform="matrix(0.2785 0.9604 -0.9604 0.2785 99.5018 7.7479)" fill="#D9D9D9" width="2.4" height="21.8"/>
			</g>
		</g>
		<g>
			<g>
				<line fill="#D9D9D9" x1="34.1" y1="67.5" x2="55.1" y2="61.4"/>
			</g>
			<g>
				
					<rect x="43.4" y="53.5" transform="matrix(0.2785 0.9604 -0.9604 0.2785 94.0598 3.66)" fill="#D9D9D9" width="2.4" height="21.8"/>
			</g>
		</g>
		<g>
			<g>
				<line fill="#D9D9D9" x1="34.1" y1="61.8" x2="55.1" y2="55.7"/>
			</g>
			<g>
				
					<rect x="43.4" y="47.9" transform="matrix(0.2785 0.9604 -0.9604 0.2785 88.6178 -0.428)" fill="#D9D9D9" width="2.4" height="21.8"/>
			</g>
		</g>
		<g>
			<g>
				<g>
					<g>
						<line fill="#D9D9D9" x1="62.1" y1="56.8" x2="62.1" y2="70.7"/>
					</g>
				</g>
				<g>
					<g>
						<polygon fill="#D9D9D9" points="61.7,70.6 62.6,70.8 62.6,56.9 61.7,56.7 						"/>
					</g>
				</g>
			</g>
			<g>
				<g>
					<g>
						<line fill="#D9D9D9" x1="92.8" y1="62.7" x2="92.8" y2="76.6"/>
					</g>
				</g>
				<g>
					<g>
						<polygon fill="#D9D9D9" points="92.3,76.6 93.2,76.7 93.2,62.8 92.3,62.6 						"/>
					</g>
				</g>
			</g>
			<g>
				<g>
					<g>
						<g>
							<line fill="#D9D9D9" x1="99.7" y1="64" x2="55.3" y2="55.5"/>
						</g>
					</g>
					<g>
						<g>
							<polygon fill="#D9D9D9" points="55.3,55.9 99.7,64.5 99.7,63.6 55.3,55 							"/>
						</g>
					</g>
				</g>
				<g>
					<g>
						<g>
							<line fill="#D9D9D9" x1="95.5" y1="77.2" x2="59.5" y2="70.2"/>
						</g>
					</g>
					<g>
						<g>
							<polygon fill="#D9D9D9" points="59.5,70.7 95.5,77.6 95.5,76.7 59.5,69.8 							"/>
						</g>
					</g>
				</g>
				<g>
					<g>
						<g>
							<line fill="#D9D9D9" x1="77.5" y1="59.8" x2="77.5" y2="73.7"/>
						</g>
					</g>
					<g>
						<g>
							<polygon fill="#D9D9D9" points="77.1,73.6 78,73.8 78,59.8 77.1,59.7 							"/>
						</g>
					</g>
				</g>
				<g>
					<g>
						<g>
							<line fill="#D9D9D9" x1="73.4" y1="59" x2="65.8" y2="71.4"/>
						</g>
					</g>
					<g>
						<g>
							<polygon fill="#D9D9D9" points="66.2,71.7 73.8,59.3 73,58.7 65.4,71.1 							"/>
						</g>
					</g>
				</g>
				<g>
					<g>
						<g>
							<line fill="#D9D9D9" x1="81.5" y1="60.5" x2="89.1" y2="75.9"/>
						</g>
					</g>
					<g>
						<g>
							<polygon fill="#D9D9D9" points="88.7,76.1 89.5,75.8 81.9,60.4 81.1,60.7 							"/>
						</g>
					</g>
				</g>
				<g>
					<g>
						<g>
							<line fill="#D9D9D9" x1="72.1" y1="72.6" x2="55.3" y2="82.9"/>
						</g>
					</g>
					<g>
						<g>
							<polygon fill="#D9D9D9" points="55.6,83.3 72.4,73.1 71.8,72.2 55,82.5 							"/>
						</g>
					</g>
				</g>
				<g>
					<g>
						<g>
							<line fill="#D9D9D9" x1="82.9" y1="74.7" x2="99.7" y2="91.5"/>
						</g>
					</g>
					<g>
						<g>
							<polygon fill="#D9D9D9" points="99.5,91.8 100,91.2 83.2,74.4 82.7,75 							"/>
						</g>
					</g>
				</g>
			</g>
		</g>
		<g>
			<g>
				<g>
					<g>
						<polygon fill="#D9D9D9" points="33.3,79.1 78.2,85.2 99,79.3 55.1,72.7 						"/>
					</g>
				</g>
			</g>
		</g>
		<g>
			<g>
				<g>
					<g>
						<path fill="#1D1D1B" d="M76.3,101.2h2.5V61c0-0.7-0.6-1.2-1.2-1.2l0,0c-0.7,0-1.2,0.6-1.2,1.2V101.2z"/>
					</g>
				</g>
			</g>
		</g>
		<g>
			<g>
				<g>
					<g>
						<path fill="#1D1D1B" d="M97.8,95.6h2.5V55.4c0-0.7-0.6-1.2-1.2-1.2l0,0c-0.7,0-1.2,0.6-1.2,1.2V95.6z"/>
					</g>
				</g>
			</g>
		</g>
		<g>
			<g>
				<g>
					<g>
						<path fill="#1D1D1B" d="M74.7,102.9c0-1.6,1.3-2.8,2.8-2.8c1.6,0,2.8,1.3,2.8,2.8c0,1.6-1.3,2.8-2.8,2.8
							C76,105.8,74.7,104.5,74.7,102.9z M76.2,102.9c0,0.7,0.6,1.4,1.4,1.4c0.7,0,1.4-0.6,1.4-1.4c0-0.7-0.6-1.4-1.4-1.4
							C76.8,101.6,76.2,102.2,76.2,102.9z"/>
					</g>
				</g>
			</g>
		</g>
		<g>
			<g>
				<g>
					<g>
						<path fill="#1D1D1B" d="M96.2,97.8c0-1.6,1.3-2.8,2.8-2.8c1.6,0,2.8,1.3,2.8,2.8c0,1.6-1.3,2.8-2.8,2.8
							C97.5,100.6,96.2,99.3,96.2,97.8z M97.7,97.8c0,0.7,0.6,1.4,1.4,1.4c0.7,0,1.4-0.6,1.4-1.4c0-0.7-0.6-1.4-1.4-1.4
							C98.3,96.4,97.7,97,97.7,97.8z"/>
					</g>
				</g>
			</g>
		</g>
		<g>
			<g>
				<g>
					<g>
						<path fill="#1D1D1B" d="M30.6,94.9c0-1.6,1.3-2.8,2.8-2.8c1.6,0,2.8,1.3,2.8,2.8c0,1.6-1.3,2.8-2.8,2.8
							C31.9,97.8,30.6,96.5,30.6,94.9z M32.1,94.9c0,0.7,0.6,1.4,1.4,1.4c0.7,0,1.4-0.6,1.4-1.4c0-0.7-0.6-1.4-1.4-1.4
							C32.7,93.6,32.1,94.2,32.1,94.9z"/>
					</g>
				</g>
			</g>
		</g>
		<g>
			<g>
				<g>
					<g>
						<path fill="#1D1D1B" d="M32.5,92.8l2.5,0.5V52.8c0-0.6-0.4-1.1-1-1.2l0,0c-0.8-0.1-1.5,0.4-1.5,1.2V92.8z"/>
					</g>
				</g>
			</g>
		</g>
		<g>
			<g>
				<g>
					<g>
						<line fill="#FFFFFF" x1="40.3" y1="60.5" x2="40.3" y2="74.4"/>
					</g>
				</g>
				<g>
					<g>
						<polygon fill="#1D1D1B" points="39.8,74.4 40.8,74.5 40.8,60.6 39.8,60.4 						"/>
					</g>
				</g>
			</g>
			<g>
				<g>
					<g>
						<line fill="#FFFFFF" x1="71" y1="66.4" x2="71" y2="80.4"/>
					</g>
				</g>
				<g>
					<g>
						<polygon fill="#1D1D1B" points="70.5,80.3 71.4,80.4 71.4,66.5 70.5,66.3 						"/>
					</g>
				</g>
			</g>
			<g>
				<g>
					<g>
						<g>
							<line fill="#FFFFFF" x1="77.9" y1="67.8" x2="33.4" y2="59.2"/>
						</g>
					</g>
					<g>
						<g>
							<polygon fill="#1D1D1B" points="33.5,59.6 77.9,68.2 77.9,67.3 33.5,58.7 							"/>
						</g>
					</g>
				</g>
				<g>
					<g>
						<g>
							<line fill="#FFFFFF" x1="73.7" y1="80.9" x2="37.7" y2="73.9"/>
						</g>
					</g>
					<g>
						<g>
							<polygon fill="#1D1D1B" points="37.7,74.4 73.7,81.3 73.7,80.4 37.7,73.5 							"/>
						</g>
					</g>
				</g>
				<g>
					<g>
						<g>
							<line fill="#FFFFFF" x1="55.7" y1="63.5" x2="55.7" y2="77.4"/>
						</g>
					</g>
					<g>
						<g>
							<polygon fill="#1D1D1B" points="55.2,77.3 56.1,77.5 56.1,63.6 55.2,63.4 							"/>
						</g>
					</g>
				</g>
				<g>
					<g>
						<g>
							<line fill="#FFFFFF" x1="51.6" y1="62.7" x2="44" y2="75.2"/>
						</g>
					</g>
					<g>
						<g>
							<polygon fill="#1D1D1B" points="44.4,75.4 52,63 51.2,62.4 43.6,74.9 							"/>
						</g>
					</g>
				</g>
				<g>
					<g>
						<g>
							<line fill="#FFFFFF" x1="59.7" y1="64.2" x2="67.3" y2="79.6"/>
						</g>
					</g>
					<g>
						<g>
							<polygon fill="#1D1D1B" points="66.9,79.8 67.7,79.5 60.1,64.1 59.3,64.4 							"/>
						</g>
					</g>
				</g>
				<g>
					<g>
						<g>
							<line fill="#FFFFFF" x1="50.2" y1="76.4" x2="33.4" y2="86.6"/>
						</g>
					</g>
					<g>
						<g>
							<polygon fill="#1D1D1B" points="33.7,87 50.5,76.8 50,76 33.2,86.2 							"/>
						</g>
					</g>
				</g>
				<g>
					<g>
						<g>
							<line fill="#FFFFFF" x1="61.1" y1="78.4" x2="77.9" y2="95.2"/>
						</g>
					</g>
					<g>
						<g>
							<polygon fill="#1D1D1B" points="77.6,95.5 78.2,94.9 61.4,78.2 60.8,78.7 							"/>
						</g>
					</g>
				</g>
			</g>
		</g>
		<g>
			<g>
				
					<rect x="86.8" y="83.5" transform="matrix(0.2785 0.9604 -0.9604 0.2785 154.1287 -16.411)" fill="#1D1D1B" width="2.4" height="21.8"/>
			</g>
		</g>
		<g>
			<g>
				
					<rect x="86.8" y="77.8" transform="matrix(0.2785 0.9604 -0.9604 0.2785 148.6874 -20.4985)" fill="#1D1D1B" width="2.4" height="21.8"/>
			</g>
		</g>
		<g>
			<g>
				
					<rect x="86.8" y="72.1" transform="matrix(0.2785 0.9604 -0.9604 0.2785 143.2447 -24.587)" fill="#1D1D1B" width="2.4" height="21.8"/>
			</g>
		</g>
		<g>
			<g>
				
					<rect x="86.8" y="66.5" transform="matrix(0.2785 0.9604 -0.9604 0.2785 137.8039 -28.674)" fill="#1D1D1B" width="2.4" height="21.8"/>
			</g>
		</g>
		<g>
			<g>
				
					<rect x="86.8" y="60.8" transform="matrix(0.2785 0.9604 -0.9604 0.2785 132.3612 -32.7625)" fill="#1D1D1B" width="2.4" height="21.8"/>
			</g>
		</g>
		<g>
			<g>
				
					<rect x="86.8" y="55.1" transform="matrix(0.2785 0.9604 -0.9604 0.2785 126.9192 -36.8505)" fill="#1D1D1B" width="2.4" height="21.8"/>
			</g>
		</g>
		<g>
			<g>
				<g>
					<path fill="#1D1D1B" d="M127.8,104.3L127.8,104.3c0.3-0.3,0.3-0.7,0-1l-27.6-28.9c-0.3-0.3-0.7-0.3-1,0v0c-0.3,0.3-0.3,0.7,0,1
						l27.6,28.9C127.1,104.6,127.5,104.6,127.8,104.3z"/>
				</g>
			</g>
		</g>
		<g>
			<g>
				<polygon fill="#1D1D1B" points="112,89 99.3,87 99.8,85.4 112.5,87.4 				"/>
			</g>
		</g>
		<g>
			<g>
				<g>
					<path fill="#1D1D1B" d="M86.2,116.3L86.2,116.3c0.4-0.1,0.6-0.5,0.5-0.8l-8.2-35.1c-0.1-0.4-0.5-0.6-0.8-0.5v0
						c-0.4,0.1-0.6,0.5-0.5,0.8l8.2,35.1C85.5,116.2,85.8,116.4,86.2,116.3z"/>
				</g>
			</g>
		</g>
		<g>
			<g>
				
					<rect x="77.2" y="91.5" transform="matrix(0.7334 0.6798 -0.6798 0.7334 84.2192 -29.2664)" fill="#1D1D1B" width="4.5" height="2.4"/>
			</g>
		</g>
		<g>
			<g>
				<g>
					<path fill="#1D1D1B" d="M5.9,98.7L33.4,67c0.3-0.3,0.2-0.7-0.1-1l0,0c-0.3-0.3-0.7-0.2-1,0.1L4.8,97.7c-0.3,0.3-0.2,0.7,0.1,1
						l0,0C5.2,99,5.6,98.9,5.9,98.7z"/>
				</g>
			</g>
		</g>
		<g>
			<g>
				<polygon fill="#1D1D1B" points="20.8,81.2 20.1,79.6 32.7,77 33.4,78.7 				"/>
			</g>
		</g>
	</g>
</g>
</svg>
