<?xml version="1.0" encoding="utf-8"?>
<!-- Generator: Adobe Illustrator 16.0.0, SVG Export Plug-In . SVG Version: 6.00 Build 0)  -->
<svg version="1.2" baseProfile="tiny" id="katman_1"
	 xmlns="http://www.w3.org/2000/svg" xmlns:xlink="http://www.w3.org/1999/xlink" x="0px" y="0px" width="130px" height="130px"
	 viewBox="0 0 130 130" xml:space="preserve">
<g>
	<g>
		<g>
			<g>
				<rect x="36.1" y="21.8" fill="#1D1D1B" width="2.1" height="98.8"/>
			</g>
		</g>
	</g>
	<g>
		<g>
			<g>
				<rect x="37.4" y="42.4" fill="#1D1D1B" width="36.2" height="2.1"/>
			</g>
		</g>
	</g>
	<g>
		<g>
			<g>
				<rect x="37.1" y="78.6" fill="#1D1D1B" width="36.2" height="2.1"/>
			</g>
		</g>
	</g>
	<g>
		<g>
			<g>
				<rect x="37.8" y="111.9" fill="#1D1D1B" width="35.6" height="1.7"/>
			</g>
		</g>
	</g>
	<g>
		<g>
			<g>
				<path fill="#1D1D1B" d="M37.1,125c-1.6,0-3-1.3-3-3c0-1.6,1.3-3,3-3c1.6,0,3,1.3,3,3C40,123.6,38.7,125,37.1,125z M37.1,120.6
					c-0.8,0-1.4,0.6-1.4,1.4c0,0.8,0.6,1.4,1.4,1.4c0.8,0,1.4-0.6,1.4-1.4C38.5,121.2,37.8,120.6,37.1,120.6z"/>
			</g>
		</g>
	</g>
	<g>
		<g>
			<g>
				<rect x="72.4" y="21.8" fill="#1D1D1B" width="2.1" height="98.8"/>
			</g>
		</g>
	</g>
	<g>
		<g>
			<g>
				<path fill="#1D1D1B" d="M73.4,125c-1.6,0-3-1.3-3-3c0-1.6,1.3-3,3-3c1.6,0,3,1.3,3,3C76.3,123.6,75,125,73.4,125z M73.4,120.6
					c-0.8,0-1.4,0.6-1.4,1.4c0,0.8,0.6,1.4,1.4,1.4c0.8,0,1.4-0.6,1.4-1.4C74.8,121.2,74.1,120.6,73.4,120.6z"/>
			</g>
		</g>
	</g>
	<g>
		<g>
			<g>
				<line fill="#FFFFFF" x1="68" y1="25.2" x2="68" y2="36.8"/>
			</g>
			<g>
				<rect x="67.6" y="25.2" fill="#1D1D1B" width="0.8" height="11.6"/>
			</g>
		</g>
		<g>
			<g>
				<line fill="#FFFFFF" x1="42.5" y1="25.2" x2="42.5" y2="36.8"/>
			</g>
			<g>
				<rect x="42.2" y="25.2" fill="#1D1D1B" width="0.8" height="11.6"/>
			</g>
		</g>
		<g>
			<g>
				<g>
					<line fill="#FFFFFF" x1="36.8" y1="25.2" x2="73.7" y2="25.2"/>
				</g>
				<g>
					<rect x="36.8" y="24.9" fill="#1D1D1B" width="36.9" height="0.8"/>
				</g>
			</g>
			<g>
				<g>
					<line fill="#FFFFFF" x1="40.3" y1="36.8" x2="70.2" y2="36.8"/>
				</g>
				<g>
					<rect x="40.3" y="36.4" fill="#1D1D1B" width="29.8" height="0.8"/>
				</g>
			</g>
			<g>
				<g>
					<line fill="#FFFFFF" x1="55.2" y1="25.2" x2="55.2" y2="36.8"/>
				</g>
				<g>
					<rect x="54.9" y="25.2" fill="#1D1D1B" width="0.8" height="11.6"/>
				</g>
			</g>
			<g>
				<g>
					<line fill="#FFFFFF" x1="58.6" y1="25.2" x2="64.9" y2="36.8"/>
				</g>
				<g>
					
						<rect x="55.2" y="30.6" transform="matrix(0.4795 0.8775 -0.8775 0.4795 59.3698 -38.0502)" fill="#1D1D1B" width="13.2" height="0.8"/>
				</g>
			</g>
			<g>
				<g>
					<line fill="#FFFFFF" x1="51.9" y1="25.2" x2="45.6" y2="36.8"/>
				</g>
				<g>
					
						<rect x="48.4" y="24.4" transform="matrix(0.8773 0.4799 -0.4799 0.8773 20.8706 -19.5978)" fill="#1D1D1B" width="0.8" height="13.2"/>
				</g>
			</g>
			<g>
				<g>
					<line fill="#FFFFFF" x1="59.7" y1="36.8" x2="73.7" y2="48"/>
				</g>
				<g>
					
						<rect x="57.8" y="42" transform="matrix(0.7797 0.6262 -0.6262 0.7797 41.2431 -32.4252)" fill="#1D1D1B" width="17.9" height="0.8"/>
				</g>
			</g>
			<g>
				<g>
					<line fill="#FFFFFF" x1="50.7" y1="36.8" x2="36.8" y2="48"/>
				</g>
				<g>
					
						<rect x="43.4" y="33.5" transform="matrix(0.6247 0.7809 -0.7809 0.6247 49.5265 -18.2569)" fill="#1D1D1B" width="0.8" height="17.9"/>
				</g>
			</g>
		</g>
	</g>
	<g>
		<g>
			<g>
				<line fill="#FFFFFF" x1="68" y1="61.4" x2="68" y2="73"/>
			</g>
			<g>
				<rect x="67.6" y="61.4" fill="#1D1D1B" width="0.8" height="11.6"/>
			</g>
		</g>
		<g>
			<g>
				<line fill="#FFFFFF" x1="42.5" y1="61.4" x2="42.5" y2="73"/>
			</g>
			<g>
				<rect x="42.2" y="61.4" fill="#1D1D1B" width="0.8" height="11.6"/>
			</g>
		</g>
		<g>
			<g>
				<g>
					<line fill="#FFFFFF" x1="36.8" y1="61.4" x2="73.7" y2="61.4"/>
				</g>
				<g>
					<rect x="36.8" y="61" fill="#1D1D1B" width="36.9" height="0.8"/>
				</g>
			</g>
			<g>
				<g>
					<line fill="#FFFFFF" x1="40.3" y1="73" x2="70.2" y2="73"/>
				</g>
				<g>
					<rect x="40.3" y="72.6" fill="#1D1D1B" width="29.8" height="0.8"/>
				</g>
			</g>
			<g>
				<g>
					<line fill="#FFFFFF" x1="55.2" y1="61.4" x2="55.2" y2="73"/>
				</g>
				<g>
					<rect x="54.9" y="61.4" fill="#1D1D1B" width="0.8" height="11.6"/>
				</g>
			</g>
			<g>
				<g>
					<line fill="#FFFFFF" x1="58.6" y1="61.4" x2="64.9" y2="73"/>
				</g>
				<g>
					
						<rect x="55.2" y="66.8" transform="matrix(0.4795 0.8775 -0.8775 0.4795 91.1108 -19.2238)" fill="#1D1D1B" width="13.2" height="0.8"/>
				</g>
			</g>
			<g>
				<g>
					<line fill="#FFFFFF" x1="51.9" y1="61.4" x2="45.6" y2="73"/>
				</g>
				<g>
					
						<rect x="48.4" y="60.6" transform="matrix(0.8776 0.4794 -0.4794 0.8776 38.1819 -15.1545)" fill="#1D1D1B" width="0.8" height="13.2"/>
				</g>
			</g>
			<g>
				<g>
					<line fill="#FFFFFF" x1="59.7" y1="73" x2="73.7" y2="84.2"/>
				</g>
				<g>
					
						<rect x="57.8" y="78.2" transform="matrix(0.7797 0.6261 -0.6261 0.7797 63.8874 -24.4563)" fill="#1D1D1B" width="17.9" height="0.8"/>
				</g>
			</g>
			<g>
				<g>
					<line fill="#FFFFFF" x1="50.7" y1="73" x2="36.8" y2="84.2"/>
				</g>
				<g>
					
						<rect x="43.4" y="69.6" transform="matrix(0.6244 0.7811 -0.7811 0.6244 77.8044 -4.6682)" fill="#1D1D1B" width="0.8" height="17.9"/>
				</g>
			</g>
		</g>
	</g>
	<g>
		<g>
			<g>
				<line fill="#FFFFFF" x1="68" y1="95.6" x2="68" y2="107.1"/>
			</g>
			<g>
				<rect x="67.6" y="95.6" fill="#1D1D1B" width="0.8" height="11.6"/>
			</g>
		</g>
		<g>
			<g>
				<line fill="#FFFFFF" x1="42.5" y1="95.6" x2="42.5" y2="107.1"/>
			</g>
			<g>
				<rect x="42.2" y="95.6" fill="#1D1D1B" width="0.8" height="11.6"/>
			</g>
		</g>
		<g>
			<g>
				<g>
					<line fill="#FFFFFF" x1="36.8" y1="95.6" x2="73.7" y2="95.6"/>
				</g>
				<g>
					<rect x="36.8" y="95.2" fill="#1D1D1B" width="36.9" height="0.8"/>
				</g>
			</g>
			<g>
				<g>
					<line fill="#FFFFFF" x1="40.3" y1="107.1" x2="70.2" y2="107.1"/>
				</g>
				<g>
					<rect x="40.3" y="106.8" fill="#1D1D1B" width="29.8" height="0.8"/>
				</g>
			</g>
			<g>
				<g>
					<line fill="#FFFFFF" x1="55.2" y1="95.6" x2="55.2" y2="107.1"/>
				</g>
				<g>
					<rect x="54.9" y="95.6" fill="#1D1D1B" width="0.8" height="11.6"/>
				</g>
			</g>
			<g>
				<g>
					<line fill="#FFFFFF" x1="58.6" y1="95.6" x2="64.9" y2="107.1"/>
				</g>
				<g>
					
						<rect x="55.2" y="101" transform="matrix(0.4795 0.8775 -0.8775 0.4795 121.0872 -1.4441)" fill="#1D1D1B" width="13.2" height="0.8"/>
				</g>
			</g>
			<g>
				<g>
					<line fill="#FFFFFF" x1="51.9" y1="95.6" x2="45.6" y2="107.1"/>
				</g>
				<g>
					
						<rect x="48.4" y="94.8" transform="matrix(0.8776 0.4794 -0.4794 0.8776 54.558 -10.9733)" fill="#1D1D1B" width="0.8" height="13.2"/>
				</g>
			</g>
			<g>
				<g>
					<line fill="#FFFFFF" x1="59.7" y1="107.1" x2="73.7" y2="118.3"/>
				</g>
				<g>
					
						<rect x="57.8" y="112.4" transform="matrix(0.7797 0.6262 -0.6262 0.7797 85.2847 -16.9301)" fill="#1D1D1B" width="17.9" height="0.8"/>
				</g>
			</g>
			<g>
				<g>
					<line fill="#FFFFFF" x1="50.7" y1="107.1" x2="36.8" y2="118.3"/>
				</g>
				<g>
					
						<rect x="43.4" y="103.8" transform="matrix(0.6244 0.7811 -0.7811 0.6244 104.4873 8.1629)" fill="#1D1D1B" width="0.8" height="17.9"/>
				</g>
			</g>
		</g>
	</g>
	<g>
		<g>
			<rect x="90.4" y="21.4" fill="#E20613" width="1.4" height="102.2"/>
		</g>
		<g>
			<rect x="77.1" y="20.7" fill="#E20613" width="16.8" height="1.4"/>
		</g>
		<g>
			<rect x="86.3" y="122.8" fill="#E20613" width="9.6" height="1.4"/>
		</g>
	</g>
</g>
</svg>
