<?xml version="1.0" encoding="utf-8"?>
<!-- Generator: Adobe Illustrator 16.0.0, SVG Export Plug-In . SVG Version: 6.00 Build 0)  -->
<svg version="1.2" baseProfile="tiny" id="katman_1"
	 xmlns="http://www.w3.org/2000/svg" xmlns:xlink="http://www.w3.org/1999/xlink" x="0px" y="0px" width="130px" height="130px"
	 viewBox="0 0 130 130" xml:space="preserve">
<g>
	<g>
		<g>
			<g>
				<rect x="40.1" y="21.8" fill="#1D1D1B" width="2.1" height="98.8"/>
			</g>
		</g>
	</g>
	<g>
		<g>
			<g>
				<rect x="41.4" y="42.4" fill="#1D1D1B" width="36.2" height="2.1"/>
			</g>
		</g>
	</g>
	<g>
		<g>
			<g>
				<rect x="41.1" y="78.6" fill="#1D1D1B" width="36.2" height="2.1"/>
			</g>
		</g>
	</g>
	<g>
		<g>
			<g>
				<rect x="41.8" y="111.9" fill="#1D1D1B" width="35.6" height="1.7"/>
			</g>
		</g>
	</g>
	<g>
		<g>
			<g>
				<path fill="#1D1D1B" d="M41.1,125c-1.6,0-3-1.3-3-3c0-1.6,1.3-3,3-3c1.6,0,3,1.3,3,3C44,123.6,42.7,125,41.1,125z M41.1,120.6
					c-0.8,0-1.4,0.6-1.4,1.4c0,0.8,0.6,1.4,1.4,1.4c0.8,0,1.4-0.6,1.4-1.4C42.5,121.2,41.8,120.6,41.1,120.6z"/>
			</g>
		</g>
	</g>
	<g>
		<g>
			<g>
				<rect x="76.4" y="21.8" fill="#1D1D1B" width="2.1" height="98.8"/>
			</g>
		</g>
	</g>
	<g>
		<g>
			<g>
				<path fill="#1D1D1B" d="M77.3,125c-1.6,0-3-1.3-3-3c0-1.6,1.3-3,3-3c1.6,0,3,1.3,3,3C80.3,123.6,79,125,77.3,125z M77.3,120.6
					c-0.8,0-1.4,0.6-1.4,1.4c0,0.8,0.6,1.4,1.4,1.4c0.8,0,1.4-0.6,1.4-1.4C78.8,121.2,78.1,120.6,77.3,120.6z"/>
			</g>
		</g>
	</g>
	<g>
		<g>
			<g>
				<line fill="#FFFFFF" x1="72" y1="25.2" x2="72" y2="36.8"/>
			</g>
			<g>
				<rect x="71.6" y="25.2" fill="#1D1D1B" width="0.8" height="11.6"/>
			</g>
		</g>
		<g>
			<g>
				<line fill="#FFFFFF" x1="46.5" y1="25.2" x2="46.5" y2="36.8"/>
			</g>
			<g>
				<rect x="46.2" y="25.2" fill="#1D1D1B" width="0.8" height="11.6"/>
			</g>
		</g>
		<g>
			<g>
				<g>
					<line fill="#FFFFFF" x1="40.8" y1="25.2" x2="77.7" y2="25.2"/>
				</g>
				<g>
					<rect x="40.8" y="24.9" fill="#1D1D1B" width="36.9" height="0.8"/>
				</g>
			</g>
			<g>
				<g>
					<line fill="#FFFFFF" x1="44.3" y1="36.8" x2="74.1" y2="36.8"/>
				</g>
				<g>
					<rect x="44.3" y="36.4" fill="#1D1D1B" width="29.8" height="0.8"/>
				</g>
			</g>
			<g>
				<g>
					<line fill="#FFFFFF" x1="59.2" y1="25.2" x2="59.2" y2="36.8"/>
				</g>
				<g>
					<rect x="58.8" y="25.2" fill="#1D1D1B" width="0.8" height="11.6"/>
				</g>
			</g>
			<g>
				<g>
					<line fill="#FFFFFF" x1="62.6" y1="25.2" x2="68.9" y2="36.8"/>
				</g>
				<g>
					
						<rect x="59.2" y="30.6" transform="matrix(0.4795 0.8776 -0.8776 0.4795 61.4518 -41.5567)" fill="#1D1D1B" width="13.2" height="0.8"/>
				</g>
			</g>
			<g>
				<g>
					<line fill="#FFFFFF" x1="55.9" y1="25.2" x2="49.6" y2="36.8"/>
				</g>
				<g>
					
						<rect x="52.4" y="24.4" transform="matrix(0.8773 0.4799 -0.4799 0.8773 21.3608 -21.5154)" fill="#1D1D1B" width="0.8" height="13.2"/>
				</g>
			</g>
			<g>
				<g>
					<line fill="#FFFFFF" x1="63.7" y1="36.8" x2="77.7" y2="48"/>
				</g>
				<g>
					
						<rect x="61.8" y="42" transform="matrix(0.7797 0.6262 -0.6262 0.7797 42.1234 -34.9272)" fill="#1D1D1B" width="17.9" height="0.8"/>
				</g>
			</g>
			<g>
				<g>
					<line fill="#FFFFFF" x1="54.7" y1="36.8" x2="40.8" y2="48"/>
				</g>
				<g>
					
						<rect x="47.4" y="33.5" transform="matrix(0.6251 0.7806 -0.7806 0.6251 50.9938 -21.379)" fill="#1D1D1B" width="0.8" height="17.9"/>
				</g>
			</g>
		</g>
	</g>
	<g>
		<g>
			<g>
				<line fill="#FFFFFF" x1="72" y1="61.4" x2="72" y2="73"/>
			</g>
			<g>
				<rect x="71.6" y="61.4" fill="#1D1D1B" width="0.8" height="11.6"/>
			</g>
		</g>
		<g>
			<g>
				<line fill="#FFFFFF" x1="46.5" y1="61.4" x2="46.5" y2="73"/>
			</g>
			<g>
				<rect x="46.2" y="61.4" fill="#1D1D1B" width="0.8" height="11.6"/>
			</g>
		</g>
		<g>
			<g>
				<g>
					<line fill="#FFFFFF" x1="40.8" y1="61.4" x2="77.7" y2="61.4"/>
				</g>
				<g>
					<rect x="40.8" y="61" fill="#1D1D1B" width="36.9" height="0.8"/>
				</g>
			</g>
			<g>
				<g>
					<line fill="#FFFFFF" x1="44.3" y1="73" x2="74.1" y2="73"/>
				</g>
				<g>
					<rect x="44.3" y="72.6" fill="#1D1D1B" width="29.8" height="0.8"/>
				</g>
			</g>
			<g>
				<g>
					<line fill="#FFFFFF" x1="59.2" y1="61.4" x2="59.2" y2="73"/>
				</g>
				<g>
					<rect x="58.8" y="61.4" fill="#1D1D1B" width="0.8" height="11.6"/>
				</g>
			</g>
			<g>
				<g>
					<line fill="#FFFFFF" x1="62.6" y1="61.4" x2="68.9" y2="73"/>
				</g>
				<g>
					
						<rect x="59.2" y="66.8" transform="matrix(0.4795 0.8776 -0.8776 0.4795 93.1934 -22.7292)" fill="#1D1D1B" width="13.2" height="0.8"/>
				</g>
			</g>
			<g>
				<g>
					<line fill="#FFFFFF" x1="55.9" y1="61.4" x2="49.6" y2="73"/>
				</g>
				<g>
					
						<rect x="52.4" y="60.6" transform="matrix(0.8776 0.4794 -0.4794 0.8776 38.671 -17.0701)" fill="#1D1D1B" width="0.8" height="13.2"/>
				</g>
			</g>
			<g>
				<g>
					<line fill="#FFFFFF" x1="63.7" y1="73" x2="77.7" y2="84.2"/>
				</g>
				<g>
					
						<rect x="61.8" y="78.2" transform="matrix(0.7797 0.6261 -0.6261 0.7797 64.7675 -26.9581)" fill="#1D1D1B" width="17.9" height="0.8"/>
				</g>
			</g>
			<g>
				<g>
					<line fill="#FFFFFF" x1="54.7" y1="73" x2="40.8" y2="84.2"/>
				</g>
				<g>
					
						<rect x="47.4" y="69.6" transform="matrix(0.6248 0.7808 -0.7808 0.6248 79.2616 -7.8057)" fill="#1D1D1B" width="0.8" height="17.9"/>
				</g>
			</g>
		</g>
	</g>
	<g>
		<g>
			<g>
				<line fill="#FFFFFF" x1="72" y1="95.6" x2="72" y2="107.1"/>
			</g>
			<g>
				<rect x="71.6" y="95.6" fill="#1D1D1B" width="0.8" height="11.6"/>
			</g>
		</g>
		<g>
			<g>
				<line fill="#FFFFFF" x1="46.5" y1="95.6" x2="46.5" y2="107.1"/>
			</g>
			<g>
				<rect x="46.2" y="95.6" fill="#1D1D1B" width="0.8" height="11.6"/>
			</g>
		</g>
		<g>
			<g>
				<g>
					<line fill="#FFFFFF" x1="40.8" y1="95.6" x2="77.7" y2="95.6"/>
				</g>
				<g>
					<rect x="40.8" y="95.2" fill="#1D1D1B" width="36.9" height="0.8"/>
				</g>
			</g>
			<g>
				<g>
					<line fill="#FFFFFF" x1="44.3" y1="107.1" x2="74.1" y2="107.1"/>
				</g>
				<g>
					<rect x="44.3" y="106.8" fill="#1D1D1B" width="29.8" height="0.8"/>
				</g>
			</g>
			<g>
				<g>
					<line fill="#FFFFFF" x1="59.2" y1="95.6" x2="59.2" y2="107.1"/>
				</g>
				<g>
					<rect x="58.8" y="95.6" fill="#1D1D1B" width="0.8" height="11.6"/>
				</g>
			</g>
			<g>
				<g>
					<line fill="#FFFFFF" x1="62.6" y1="95.6" x2="68.9" y2="107.1"/>
				</g>
				<g>
					
						<rect x="59.2" y="101" transform="matrix(0.4795 0.8776 -0.8776 0.4795 123.1703 -4.9486)" fill="#1D1D1B" width="13.2" height="0.8"/>
				</g>
			</g>
			<g>
				<g>
					<line fill="#FFFFFF" x1="55.9" y1="95.6" x2="49.6" y2="107.1"/>
				</g>
				<g>
					
						<rect x="52.4" y="94.8" transform="matrix(0.8776 0.4794 -0.4794 0.8776 55.0471 -12.8889)" fill="#1D1D1B" width="0.8" height="13.2"/>
				</g>
			</g>
			<g>
				<g>
					<line fill="#FFFFFF" x1="63.7" y1="107.1" x2="77.7" y2="118.3"/>
				</g>
				<g>
					
						<rect x="61.8" y="112.4" transform="matrix(0.7797 0.6262 -0.6262 0.7797 86.1651 -19.4321)" fill="#1D1D1B" width="17.9" height="0.8"/>
				</g>
			</g>
			<g>
				<g>
					<line fill="#FFFFFF" x1="54.7" y1="107.1" x2="40.8" y2="118.3"/>
				</g>
				<g>
					
						<rect x="47.4" y="103.8" transform="matrix(0.6248 0.7808 -0.7808 0.6248 105.9336 5.0119)" fill="#1D1D1B" width="0.8" height="17.9"/>
				</g>
			</g>
		</g>
	</g>
	<g>
		<g>
			<rect x="86.5" y="43.8" fill="#E20613" width="1.4" height="79.9"/>
		</g>
		<g>
			<rect x="81.9" y="43.1" fill="#E20613" width="10" height="1.4"/>
		</g>
		<g>
			<rect x="82.3" y="122.8" fill="#E20613" width="9.6" height="1.4"/>
		</g>
	</g>
</g>
</svg>
