<?xml version="1.0" encoding="UTF-8"?> <!-- Generator: Adobe Illustrator 24.0.0, SVG Export Plug-In . SVG Version: 6.00 Build 0) --> <svg xmlns="http://www.w3.org/2000/svg" xmlns:xlink="http://www.w3.org/1999/xlink" version="1.1" id="Layer_1" x="0px" y="0px" viewBox="0 0 595.28 162.32" style="enable-background:new 0 0 595.28 162.32;" xml:space="preserve"> <style type="text/css"> .st0{fill:#2E3D88;} </style> <g> <g> <g> <path class="st0" d="M70.52,35.38l0.21,92.24l131.13-0.3l-0.21-92.24L70.52,35.38z M195.22,120.71l-117.48,0.27l-0.18-78.98 l117.48-0.27L195.22,120.71z"></path> </g> <g> <path class="st0" d="M35.82,34.51l25.41,5.39l0.19,83.24l-25.38,5.51L35.82,34.51 M30.23,27.63l0.25,107.93L67,127.63 l-0.21-92.24L30.23,27.63L30.23,27.63z"></path> <path class="st0" d="M236.21,34.05l0.21,94.14l-25.41-5.39l-0.19-83.24L236.21,34.05 M241.76,27.14l-36.52,7.93l0.21,92.24 l36.55,7.76L241.76,27.14L241.76,27.14z"></path> </g> </g> <g> <g> <path class="st0" d="M305.96,63.2l-1.87-6.77l-15.6,0.04l0.02,10.49l15.6-0.04l0.03,11.14l-15.6,0.04l0.03,11.33l8.92,1.84 l0.03,14.11l-35.09,0.08l-0.03-14.11l7.05-1.87l-0.08-32.96l-7.06-1.84l-0.03-14.21l57.28-0.13l0.05,22.84L305.96,63.2z M388.94,91.05l0.03,14.11l-32.96,0.08l-0.03-14.11l4.92-1.87l-1.68-5.75l-14.02,0.03l-1.57,5.76l4.55,1.85l0.03,14.11 l-27.85,0.06l-0.03-14.11l7.14-1.87l9.39-32.98l-6.04-1.84l-0.03-14.21l37.51-0.09l12.65,48.99L388.94,91.05z M347.86,72.39 l8.26-0.02l-4.21-14.57L347.86,72.39z M468.71,56.05l0.08,32.96l6.88,1.84l0.03,14.11l-34.07,0.08l-0.03-14.11l8.91-1.88 l-0.05-22.19l-11.65,19.99l-7.24,0.02L419.8,66.94l0.05,22.19l8.92,1.84l0.03,14.11l-34.07,0.08l-0.03-14.11l7.05-1.87 l-0.08-32.96l-7.06-1.84l-0.03-14.21l30.45-0.07l11,19.94l11.1-19.99l28.41-0.06l0.03,14.21L468.71,56.05z M558.03,55.85 l0.08,32.96l6.88,1.84l0.03,14.11l-34.07,0.08l-0.03-14.11l8.91-1.88l-0.05-22.19l-11.65,19.99l-7.24,0.02l-11.74-19.93 l0.05,22.19l8.92,1.84l0.03,14.11l-34.07,0.08l-0.03-14.11l7.05-1.87L491,56l-7.06-1.84l-0.03-14.21l30.45-0.07l11,19.94 l11.1-19.99l28.41-0.06l0.03,14.21L558.03,55.85z"></path> </g> <g> <path class="st0" d="M265.92,115.15l6.65-0.02c0.67,0,1.28,0.09,1.82,0.28c0.55,0.19,1.01,0.47,1.41,0.84 c0.39,0.37,0.69,0.82,0.9,1.35c0.21,0.53,0.32,1.13,0.32,1.8c0,0.67-0.1,1.27-0.31,1.8c-0.21,0.53-0.51,0.98-0.9,1.35 c-0.39,0.37-0.86,0.65-1.4,0.84c-0.54,0.19-1.15,0.29-1.82,0.29l-5.22,0.01l0.01,6.42l-1.43,0L265.92,115.15z M267.36,122.48 l4.91-0.01c0.99,0,1.8-0.26,2.41-0.76c0.61-0.5,0.92-1.27,0.92-2.31c0-1.03-0.31-1.8-0.93-2.3c-0.62-0.5-1.42-0.75-2.41-0.75 l-4.91,0.01L267.36,122.48z"></path> <path class="st0" d="M279.13,115.12l6.85-0.02c0.62,0,1.2,0.07,1.75,0.23c0.55,0.15,1.03,0.39,1.45,0.7 c0.41,0.31,0.74,0.72,0.99,1.21c0.25,0.5,0.37,1.08,0.37,1.75c0,0.95-0.24,1.78-0.73,2.48c-0.49,0.7-1.21,1.15-2.18,1.35l0,0.04 c0.49,0.07,0.89,0.2,1.22,0.39c0.32,0.19,0.58,0.43,0.79,0.72c0.2,0.29,0.35,0.63,0.44,1.02c0.09,0.38,0.15,0.8,0.18,1.25 c0.01,0.25,0.03,0.56,0.04,0.92c0.02,0.36,0.04,0.73,0.09,1.1c0.04,0.37,0.11,0.72,0.2,1.05c0.09,0.33,0.21,0.58,0.37,0.76 l-1.57,0c-0.08-0.14-0.15-0.31-0.2-0.51c-0.05-0.2-0.09-0.41-0.12-0.63c-0.03-0.22-0.05-0.43-0.05-0.64 c-0.01-0.21-0.02-0.39-0.03-0.55c-0.03-0.52-0.08-1.04-0.14-1.57c-0.06-0.53-0.2-1-0.4-1.41c-0.2-0.41-0.5-0.74-0.88-0.99 c-0.39-0.25-0.91-0.36-1.58-0.33l-5.41,0.01l0.02,6.65l-1.43,0L279.13,115.12z M280.57,122.22l5.33-0.01 c0.43,0,0.85-0.07,1.24-0.2c0.39-0.13,0.73-0.33,1.03-0.58c0.29-0.25,0.53-0.56,0.7-0.91c0.17-0.36,0.26-0.77,0.26-1.23 c0-0.92-0.27-1.65-0.81-2.18c-0.54-0.53-1.35-0.79-2.42-0.79l-5.33,0.01L280.57,122.22z"></path> <path class="st0" d="M292.33,122.57c0-1.02,0.14-2,0.43-2.95c0.29-0.94,0.73-1.78,1.32-2.5c0.59-0.72,1.32-1.3,2.21-1.72 c0.89-0.43,1.92-0.64,3.09-0.65c1.17,0,2.2,0.21,3.08,0.63c0.88,0.42,1.62,1,2.21,1.71c0.59,0.72,1.03,1.55,1.33,2.49 c0.3,0.94,0.44,1.92,0.45,2.94c0,1.02-0.14,2-0.43,2.95c-0.29,0.94-0.73,1.78-1.31,2.5c-0.59,0.72-1.32,1.3-2.2,1.72 c-0.88,0.43-1.91,0.64-3.08,0.65c-1.17,0-2.21-0.21-3.09-0.63s-1.63-1-2.22-1.71c-0.59-0.72-1.03-1.55-1.33-2.49 C292.48,124.57,292.33,123.59,292.33,122.57z M293.75,122.57c0,0.82,0.11,1.63,0.33,2.41c0.22,0.78,0.56,1.48,1.01,2.1 c0.46,0.62,1.04,1.12,1.75,1.5c0.71,0.38,1.57,0.56,2.56,0.56c0.98,0,1.82-0.19,2.54-0.57c0.71-0.38,1.29-0.88,1.75-1.5 c0.45-0.62,0.79-1.33,1-2.11c0.21-0.78,0.32-1.59,0.32-2.41c0-0.81-0.11-1.61-0.33-2.4c-0.22-0.79-0.55-1.49-1.01-2.12 c-0.46-0.62-1.04-1.12-1.75-1.5c-0.71-0.38-1.56-0.56-2.54-0.56c-0.99,0-1.84,0.19-2.56,0.57c-0.71,0.38-1.29,0.88-1.75,1.5 c-0.45,0.62-0.79,1.33-1,2.12C293.86,120.96,293.75,121.76,293.75,122.57z"></path> <path class="st0" d="M308.75,115.05l1.43,0l0.03,14.97l-1.43,0L308.75,115.05z"></path> <path class="st0" d="M312.56,115.04l10.78-0.02l0,1.26l-9.82,12.52l10.06-0.02l0,1.22l-11.66,0.03l0-1.26l9.82-12.52l-9.18,0.02 L312.56,115.04z"></path> <path class="st0" d="M323.67,115.02l1.53,0l4.89,13.39l0.04,0l4.79-13.41l1.51,0l-5.52,14.98l-1.66,0L323.67,115.02z"></path> <path class="st0" d="M336.98,122.47c0-1.02,0.14-2,0.43-2.95c0.29-0.94,0.73-1.78,1.32-2.5c0.59-0.72,1.32-1.3,2.21-1.72 c0.89-0.43,1.92-0.64,3.09-0.65c1.17,0,2.2,0.21,3.08,0.63c0.88,0.42,1.62,1,2.21,1.71s1.03,1.55,1.33,2.49 c0.3,0.94,0.44,1.92,0.45,2.94c0,1.02-0.14,2-0.43,2.95c-0.29,0.94-0.73,1.78-1.31,2.5c-0.59,0.72-1.32,1.3-2.2,1.72 s-1.91,0.64-3.08,0.65c-1.17,0-2.21-0.21-3.09-0.63c-0.89-0.42-1.63-1-2.22-1.71c-0.59-0.72-1.03-1.55-1.33-2.49 C337.13,124.47,336.99,123.49,336.98,122.47z M338.41,122.47c0,0.82,0.11,1.63,0.33,2.41c0.22,0.78,0.56,1.48,1.01,2.1 c0.46,0.62,1.04,1.12,1.75,1.5c0.71,0.38,1.57,0.56,2.56,0.56c0.98,0,1.82-0.19,2.54-0.57c0.71-0.38,1.29-0.88,1.75-1.5 c0.45-0.62,0.79-1.33,1-2.11c0.21-0.78,0.32-1.59,0.32-2.41c0-0.81-0.11-1.61-0.33-2.4c-0.22-0.79-0.55-1.49-1.01-2.12 c-0.46-0.62-1.04-1.12-1.75-1.5s-1.56-0.56-2.54-0.56c-0.99,0-1.84,0.19-2.56,0.57c-0.71,0.38-1.29,0.88-1.75,1.5 c-0.45,0.62-0.79,1.33-1,2.12C338.51,120.86,338.41,121.66,338.41,122.47z"></path> <path class="st0" d="M353.3,114.95l5.18-0.01c2.26,0.05,3.98,0.69,5.14,1.92c1.16,1.23,1.75,3.08,1.75,5.55s-0.57,4.33-1.73,5.56 c-1.16,1.23-2.87,1.88-5.13,1.94l-5.18,0.01L353.3,114.95z M354.75,128.7l3.04-0.01c1.08,0,2-0.12,2.78-0.35 c0.78-0.23,1.41-0.6,1.92-1.11c0.5-0.5,0.87-1.15,1.11-1.95c0.24-0.8,0.35-1.75,0.35-2.87c0-1.12-0.12-2.08-0.36-2.87 c-0.24-0.8-0.61-1.45-1.12-1.95c-0.5-0.5-1.14-0.87-1.92-1.1s-1.7-0.34-2.78-0.34l-3.04,0.01L354.75,128.7z"></path> <path class="st0" d="M367.64,114.92l1.59,0l8.75,12.64l0.04,0l-0.03-12.66l1.43,0l0.03,14.97l-1.59,0l-8.75-12.64l-0.04,0 l0.03,12.66l-1.43,0L367.64,114.92z"></path> <path class="st0" d="M388.46,114.87l1.43,0l0.02,10.8c0,0.75-0.07,1.42-0.23,1.98c-0.15,0.57-0.4,1.04-0.74,1.41 c-0.34,0.37-0.79,0.65-1.34,0.83c-0.55,0.18-1.23,0.28-2.04,0.28c-0.87,0-1.57-0.14-2.11-0.43c-0.54-0.29-0.96-0.67-1.27-1.15 c-0.31-0.48-0.52-1.03-0.63-1.63s-0.17-1.24-0.17-1.9l1.43,0c0.02,0.32,0.03,0.71,0.06,1.15c0.02,0.45,0.12,0.87,0.3,1.28 c0.18,0.4,0.46,0.75,0.84,1.04s0.95,0.43,1.69,0.43c0.56,0,1.02-0.08,1.38-0.22c0.36-0.15,0.65-0.38,0.86-0.69 c0.21-0.31,0.36-0.72,0.44-1.21c0.08-0.49,0.12-1.08,0.12-1.76L388.46,114.87z"></path> <path class="st0" d="M397.28,114.85l1.59,0l5.9,14.96l-1.53,0l-1.84-4.65l-6.81,0.02l-1.79,4.66l-1.53,0L397.28,114.85z M395.04,123.95l5.89-0.01l-2.91-7.67L395.04,123.95z"></path> <path class="st0" d="M411.94,114.82l6.65-0.02c0.67,0,1.28,0.09,1.82,0.28c0.55,0.19,1.01,0.47,1.41,0.84 c0.39,0.37,0.69,0.82,0.9,1.35c0.21,0.53,0.32,1.13,0.32,1.8c0,0.67-0.1,1.27-0.31,1.8s-0.51,0.98-0.9,1.35 c-0.39,0.37-0.86,0.65-1.4,0.84c-0.54,0.19-1.15,0.29-1.82,0.29l-5.22,0.01l0.01,6.42l-1.43,0L411.94,114.82z M413.38,122.15 l4.91-0.01c0.99,0,1.8-0.26,2.41-0.76c0.61-0.5,0.92-1.27,0.92-2.31c0-1.03-0.31-1.8-0.93-2.3c-0.62-0.5-1.42-0.75-2.41-0.75 l-4.91,0.01L413.38,122.15z"></path> <path class="st0" d="M423.49,114.79l1.53,0l4.89,13.39l0.04,0l4.79-13.41l1.51,0l-5.52,14.98l-1.66,0L423.49,114.79z"></path> <path class="st0" d="M448.53,119.26c-0.13-0.57-0.34-1.09-0.62-1.54s-0.64-0.83-1.05-1.14c-0.41-0.31-0.87-0.54-1.37-0.7 c-0.5-0.16-1.02-0.24-1.56-0.24c-0.99,0-1.84,0.19-2.56,0.57c-0.71,0.38-1.3,0.88-1.75,1.5c-0.45,0.62-0.79,1.33-1,2.12 c-0.21,0.79-0.32,1.59-0.32,2.4c0,0.82,0.11,1.63,0.33,2.41c0.22,0.78,0.55,1.48,1.01,2.1c0.45,0.62,1.04,1.12,1.75,1.5 s1.57,0.56,2.56,0.56c0.69,0,1.31-0.13,1.88-0.38c0.57-0.25,1.05-0.6,1.46-1.03c0.4-0.43,0.73-0.94,0.98-1.52 c0.25-0.58,0.41-1.21,0.48-1.88l1.43,0c-0.1,0.92-0.31,1.75-0.65,2.5c-0.33,0.74-0.76,1.37-1.3,1.9 c-0.53,0.53-1.15,0.93-1.87,1.21c-0.72,0.28-1.52,0.42-2.4,0.42c-1.17,0-2.21-0.21-3.09-0.63c-0.89-0.42-1.63-1-2.22-1.71 c-0.59-0.72-1.03-1.55-1.33-2.49c-0.3-0.94-0.44-1.92-0.45-2.94c0-1.02,0.14-2,0.43-2.95c0.29-0.94,0.73-1.78,1.31-2.5 c0.59-0.72,1.32-1.3,2.21-1.72c0.89-0.43,1.92-0.64,3.09-0.65c0.71,0,1.41,0.1,2.09,0.31c0.68,0.21,1.29,0.52,1.85,0.93 c0.55,0.41,1.02,0.92,1.39,1.52c0.37,0.6,0.61,1.29,0.71,2.07L448.53,119.26z"></path> <path class="st0" d="M458.86,124.75c-0.01,0.77,0.11,1.41,0.36,1.93c0.25,0.52,0.6,0.93,1.04,1.23c0.44,0.31,0.96,0.53,1.56,0.66 c0.6,0.13,1.24,0.2,1.93,0.19c0.39,0,0.82-0.06,1.28-0.17c0.46-0.11,0.89-0.29,1.29-0.54c0.4-0.25,0.73-0.56,0.99-0.95 c0.26-0.38,0.4-0.85,0.4-1.39c0-0.42-0.1-0.78-0.29-1.09c-0.19-0.31-0.44-0.57-0.74-0.77c-0.3-0.21-0.63-0.38-1-0.51 c-0.36-0.13-0.72-0.24-1.07-0.32l-3.33-0.81c-0.45-0.11-0.87-0.25-1.28-0.42c-0.41-0.17-0.76-0.39-1.07-0.67 c-0.31-0.28-0.56-0.62-0.75-1.03c-0.19-0.41-0.28-0.9-0.29-1.49c0-0.36,0.07-0.79,0.21-1.28c0.14-0.49,0.4-0.95,0.78-1.39 c0.38-0.43,0.91-0.8,1.58-1.1s1.53-0.45,2.58-0.46c0.74,0,1.45,0.1,2.12,0.29c0.67,0.19,1.26,0.49,1.77,0.88 c0.51,0.39,0.91,0.88,1.21,1.45c0.3,0.58,0.44,1.25,0.44,2.02l-1.43,0c-0.03-0.57-0.16-1.07-0.38-1.5 c-0.22-0.43-0.53-0.78-0.9-1.07c-0.38-0.29-0.81-0.5-1.29-0.65c-0.48-0.15-0.99-0.22-1.52-0.22c-0.49,0-0.96,0.05-1.41,0.16 c-0.46,0.11-0.85,0.27-1.19,0.51c-0.34,0.23-0.62,0.54-0.83,0.91c-0.21,0.38-0.31,0.85-0.31,1.41c0,0.35,0.06,0.65,0.18,0.91 c0.12,0.26,0.28,0.47,0.49,0.65c0.21,0.17,0.45,0.32,0.72,0.44c0.27,0.12,0.56,0.21,0.87,0.28l3.65,0.89 c0.53,0.14,1.03,0.31,1.5,0.51c0.47,0.2,0.88,0.45,1.24,0.75c0.36,0.3,0.64,0.67,0.84,1.1c0.2,0.43,0.31,0.96,0.31,1.57 c0,0.17-0.02,0.39-0.05,0.67c-0.03,0.28-0.12,0.58-0.25,0.89c-0.13,0.31-0.32,0.63-0.56,0.96c-0.24,0.32-0.58,0.62-1,0.88 c-0.43,0.27-0.95,0.48-1.58,0.64c-0.63,0.16-1.38,0.24-2.26,0.25c-0.88,0-1.7-0.1-2.45-0.3s-1.4-0.51-1.93-0.94 c-0.53-0.43-0.94-0.97-1.23-1.63c-0.29-0.66-0.41-1.45-0.37-2.36L458.86,124.75z"></path> <path class="st0" d="M469.76,114.68l11.87-0.03l0,1.22l-5.22,0.01l0.03,13.75l-1.43,0l-0.03-13.75l-5.22,0.01L469.76,114.68z"></path> <path class="st0" d="M482.25,122.14c0-1.02,0.14-2,0.43-2.95c0.29-0.94,0.73-1.78,1.32-2.5c0.59-0.72,1.32-1.3,2.21-1.72 c0.89-0.43,1.92-0.64,3.09-0.65c1.17,0,2.2,0.21,3.08,0.63c0.88,0.42,1.62,1,2.21,1.71c0.59,0.72,1.03,1.55,1.33,2.49 c0.3,0.94,0.44,1.92,0.45,2.94c0,1.02-0.14,2-0.43,2.95c-0.29,0.94-0.73,1.78-1.31,2.5c-0.59,0.72-1.32,1.3-2.2,1.72 c-0.88,0.43-1.91,0.64-3.08,0.65c-1.17,0-2.21-0.21-3.09-0.63c-0.89-0.42-1.63-1-2.22-1.71c-0.59-0.72-1.03-1.55-1.33-2.49 C482.4,124.14,482.25,123.16,482.25,122.14z M483.67,122.14c0,0.82,0.11,1.63,0.33,2.41c0.22,0.78,0.56,1.48,1.01,2.1 c0.46,0.62,1.04,1.12,1.75,1.5c0.71,0.38,1.57,0.56,2.56,0.56c0.98,0,1.82-0.19,2.54-0.57c0.71-0.38,1.29-0.88,1.75-1.5 c0.45-0.62,0.79-1.33,1-2.11c0.21-0.78,0.32-1.59,0.32-2.41c0-0.81-0.11-1.61-0.33-2.4c-0.22-0.79-0.55-1.49-1.01-2.12 c-0.46-0.62-1.04-1.12-1.75-1.5c-0.71-0.38-1.56-0.56-2.54-0.56c-0.99,0-1.84,0.19-2.56,0.57c-0.71,0.38-1.29,0.88-1.75,1.5 c-0.45,0.62-0.79,1.33-1,2.12C483.78,120.53,483.67,121.33,483.67,122.14z"></path> <path class="st0" d="M498.56,114.62l1.43,0l0.03,13.75l8.39-0.02l0,1.22l-9.81,0.02L498.56,114.62z"></path> <path class="st0" d="M514.2,114.58l1.59,0l5.9,14.96l-1.53,0l-1.84-4.65l-6.81,0.02l-1.79,4.66l-1.53,0L514.2,114.58z M511.96,123.69l5.89-0.01l-2.91-7.67L511.96,123.69z"></path> <path class="st0" d="M523.03,114.56l6.85-0.02c0.62,0,1.2,0.07,1.75,0.23c0.55,0.15,1.03,0.39,1.45,0.7 c0.41,0.31,0.74,0.72,0.99,1.21c0.25,0.5,0.37,1.08,0.37,1.75c0,0.95-0.24,1.78-0.73,2.48c-0.49,0.7-1.21,1.15-2.18,1.35l0,0.04 c0.49,0.07,0.89,0.2,1.22,0.39c0.32,0.19,0.58,0.43,0.79,0.72c0.2,0.29,0.35,0.63,0.44,1.02c0.09,0.38,0.15,0.8,0.18,1.25 c0.01,0.25,0.03,0.56,0.04,0.92c0.02,0.36,0.04,0.73,0.09,1.1c0.04,0.37,0.11,0.72,0.2,1.05c0.09,0.33,0.21,0.58,0.37,0.76 l-1.57,0c-0.08-0.14-0.15-0.31-0.2-0.51c-0.05-0.2-0.09-0.41-0.12-0.63c-0.03-0.22-0.05-0.43-0.05-0.64 c-0.01-0.21-0.02-0.39-0.03-0.55c-0.03-0.52-0.08-1.04-0.14-1.57c-0.06-0.53-0.2-1-0.4-1.41c-0.2-0.41-0.5-0.74-0.88-0.99 c-0.39-0.25-0.91-0.36-1.58-0.33l-5.41,0.01l0.02,6.65l-1.43,0L523.03,114.56z M524.47,121.67l5.33-0.01 c0.43,0,0.85-0.07,1.24-0.2c0.39-0.13,0.73-0.33,1.03-0.58c0.29-0.25,0.53-0.56,0.7-0.91c0.17-0.36,0.26-0.77,0.26-1.23 c0-0.92-0.27-1.65-0.81-2.18c-0.54-0.53-1.35-0.79-2.42-0.79l-5.33,0.01L524.47,121.67z"></path> <path class="st0" d="M537.12,114.53l1.43,0l0.03,14.97l-1.43,0L537.12,114.53z"></path> <path class="st0" d="M547.7,114.51l1.43,0l0.02,10.8c0,0.75-0.07,1.42-0.23,1.98c-0.15,0.57-0.4,1.04-0.74,1.41 c-0.34,0.37-0.79,0.65-1.34,0.83c-0.55,0.18-1.23,0.28-2.04,0.28c-0.87,0-1.57-0.14-2.11-0.43c-0.54-0.28-0.96-0.67-1.27-1.15 c-0.31-0.48-0.52-1.03-0.63-1.63c-0.11-0.61-0.17-1.24-0.17-1.9l1.43,0c0.02,0.32,0.03,0.71,0.06,1.15 c0.02,0.45,0.12,0.87,0.3,1.28c0.18,0.4,0.46,0.75,0.84,1.04c0.39,0.29,0.95,0.43,1.69,0.43c0.56,0,1.02-0.08,1.38-0.22 c0.36-0.15,0.65-0.38,0.86-0.69c0.21-0.31,0.36-0.72,0.44-1.21c0.08-0.49,0.12-1.08,0.12-1.76L547.7,114.51z"></path> <path class="st0" d="M552.15,114.5l10.34-0.02l0,1.22l-8.91,0.02l0.01,5.41l8.34-0.02l0,1.22l-8.34,0.02l0.01,5.91l9.01-0.02 l0,1.22l-10.44,0.02L552.15,114.5z"></path> </g> </g> </g> </svg> 