<?xml version="1.0" encoding="utf-8"?>
<!-- Generator: Adobe Illustrator 16.0.0, SVG Export Plug-In . SVG Version: 6.00 Build 0)  -->
<svg version="1.2" baseProfile="tiny" id="katman_1"
	 xmlns="http://www.w3.org/2000/svg" xmlns:xlink="http://www.w3.org/1999/xlink" x="0px" y="0px" width="115px" height="90px"
	 viewBox="0 0 115 90" xml:space="preserve">
<g>
	<g>
		<path fill="#E20D18" d="M24,78.7c0,2.2-1.5,3.9-4.7,3.9c-1.9,0-3.6-0.6-4.6-1.7l0.6-1.1c0.8,0.9,2.3,1.5,4,1.5
			c2.2,0,3.4-1.1,3.4-2.6c0-1.7-1-2.7-4.3-2.7h-2.8l0.7-6.5h7.1v1.2h-5.9l-0.4,4.1h1.7C22.5,74.9,24,76.5,24,78.7z"/>
		<path fill="#E20D18" d="M34.4,78.7c0,2.2-1.5,3.9-4.7,3.9C27.8,82.7,26,82,25,81l0.6-1.1c0.8,0.9,2.3,1.5,4,1.5
			c2.2,0,3.4-1.1,3.4-2.6c0-1.7-1-2.7-4.3-2.7h-2.8l0.7-6.5h7.1v1.2h-5.9l-0.4,4.1H29C32.9,74.9,34.4,76.5,34.4,78.7z"/>
		<path fill="#E20D18" d="M43,82.6l-3.1-4.1l-3.1,4.1h-1.5l3.9-5l-3.7-4.7H37l2.9,3.8l2.9-3.8h1.4l-3.7,4.7l3.9,5H43z"/>
		<path fill="#E20D18" d="M54.6,81.4v1.2h-9.1v-0.9l5.4-5.3c1.5-1.4,1.7-2.3,1.7-3.2c0-1.5-1.1-2.4-3-2.4c-1.5,0-2.7,0.5-3.5,1.4
			l-0.9-0.8c1-1.2,2.6-1.9,4.6-1.9c2.6,0,4.3,1.3,4.3,3.5c0,1.2-0.4,2.4-2.1,4.1l-4.4,4.3H54.6z"/>
		<path fill="#E20D18" d="M65.1,78.7c0,2.2-1.5,3.9-4.7,3.9c-1.9,0-3.6-0.6-4.6-1.7l0.6-1.1c0.8,0.9,2.3,1.5,4,1.5
			c2.2,0,3.4-1.1,3.4-2.6c0-1.7-1-2.7-4.3-2.7h-2.8l0.7-6.5h7.1v1.2h-5.9L58,74.9h1.7C63.6,74.9,65.1,76.5,65.1,78.7z"/>
		<path fill="#E20D18" d="M71.5,77.7c0-2.9,2.1-4.9,5-4.9c1.6,0,3,0.6,3.8,1.9l-1,0.7c-0.7-1-1.7-1.4-2.8-1.4
			c-2.1,0-3.7,1.5-3.7,3.8c0,2.3,1.6,3.8,3.7,3.8c1.1,0,2.2-0.4,2.8-1.4l1,0.7c-0.8,1.3-2.2,1.9-3.8,1.9
			C73.6,82.7,71.5,80.6,71.5,77.7z"/>
		<path fill="#E20D18" d="M99,76.9v5.6h-1.3V77c0-2.1-1-3.1-2.8-3.1c-2,0-3.3,1.3-3.3,3.5v5.1h-1.3V77c0-2.1-1-3.1-2.8-3.1
			c-2,0-3.3,1.3-3.3,3.5v5.1h-1.3v-9.7h1.3v1.8c0.7-1.2,1.9-1.9,3.6-1.9c1.6,0,2.9,0.7,3.5,2.1c0.7-1.3,2.1-2.1,3.9-2.1
			C97.5,72.7,99,74.1,99,76.9z"/>
	</g>
	<path fill="#1E1E1C" stroke="#1E1E1C" stroke-width="3" stroke-miterlimit="10" d="M72,52.9H50.3c0,0-0.1,0-0.1,0l-19.8-8.1
		c-0.6-0.4-0.3-1.4,0.4-1.4h31.5c0,0,0.1,0,0.1,0l21.5,9.3c0.1,0.1,0.1,0.3-0.1,0.3H72"/>
	<line fill="none" stroke="#FFFFFF" stroke-width="0.75" stroke-miterlimit="10" x1="37.7" y1="43.3" x2="57.5" y2="51.8"/>
	<line fill="none" stroke="#FFFFFF" stroke-width="0.75" stroke-miterlimit="10" x1="33.5" y1="43.1" x2="53.3" y2="51.6"/>
	<line fill="none" stroke="#FFFFFF" stroke-width="0.75" stroke-miterlimit="10" x1="41.8" y1="43.4" x2="61.6" y2="51.9"/>
	<line fill="none" stroke="#FFFFFF" stroke-width="0.75" stroke-miterlimit="10" x1="46" y1="43.4" x2="65.8" y2="51.9"/>
	<line fill="none" stroke="#FFFFFF" stroke-width="0.75" stroke-miterlimit="10" x1="50.1" y1="43.5" x2="70" y2="52"/>
	<line fill="none" stroke="#FFFFFF" stroke-width="0.75" stroke-miterlimit="10" x1="54.3" y1="43.5" x2="74.1" y2="52"/>
	<line fill="none" stroke="#FFFFFF" stroke-width="0.75" stroke-miterlimit="10" x1="58.4" y1="43.6" x2="78.3" y2="52.1"/>
	<line fill="none" stroke="#FFFFFF" stroke-width="0.75" stroke-miterlimit="10" x1="62.6" y1="43.6" x2="82.4" y2="52.1"/>
	<g>
		<ellipse id="XMLID_00000089545857408338903280000011854991428558736262_" fill="#E20D18" cx="58.6" cy="6.4" rx="3.8" ry="3.8"/>
		<path id="XMLID_00000039818281391545868800000008664630485227703685_" fill="#E20D18" d="M63.5,11.5c-0.2,0,0.2,0-9.9,0
			c-2.4,0-4.3,2-4.3,4.4l-0.1,13.6c0,1,0.8,1.9,1.8,1.9c0,0,0,0,0,0c1,0,1.8-0.8,1.8-1.8l0.1-13.6c0-0.2,0.2-0.4,0.4-0.4
			c0.2,0,0.4,0.2,0.4,0.4l0,31.2c0,1.2,1,2.2,2.2,2.2c1.2,0,2.2-1,2.2-2.2c0-0.6,0-14.4,0-17.3c0-0.3,0.2-0.5,0.5-0.5
			c0.3,0,0.5,0.2,0.5,0.5c0,2.8,0,16.2,0,17.3c0,1.2,1,2.2,2.2,2.2c1.2,0,2.2-1,2.2-2.2l0-31.2c0-0.2,0.2-0.4,0.4-0.4
			c0.2,0,0.4,0.2,0.4,0.4l0.1,13.6c0,1,0.8,1.8,1.8,1.8c0,0,0,0,0,0c1,0,1.8-0.8,1.8-1.9l-0.1-13.6C67.8,13.5,65.9,11.5,63.5,11.5z"
			/>
	</g>
	<g>
		<polygon fill="#1E1E1C" points="78.5,61 55.9,61 56.4,59.7 53,61.2 56.4,62.7 55.9,61.4 78.5,61.4 		"/>
	</g>
	<g>
		<polygon fill="#1E1E1C" points="62.9,61.4 85.5,61.4 85,62.7 88.5,61.2 85,59.7 85.5,61 62.9,61 		"/>
	</g>
	<g>
		<line fill="#1E1E1C" x1="44.5" y1="58.7" x2="24.8" y2="50.1"/>
		<g>
			<polygon fill="#1E1E1C" points="44.6,58.4 27.6,51.1 28.6,50.2 24.8,50.1 27.4,52.8 27.4,51.5 44.4,58.9 			"/>
		</g>
	</g>
	<g>
		<line fill="#1E1E1C" x1="28.2" y1="51.6" x2="47.8" y2="60.1"/>
		<g>
			<polygon fill="#1E1E1C" points="28.1,51.8 45,59.2 44.1,60.1 47.8,60.1 45.2,57.4 45.2,58.7 28.3,51.3 			"/>
		</g>
	</g>
</g>
</svg>
