<?xml version="1.0" encoding="utf-8"?>
<!-- Generator: Adobe Illustrator 16.0.0, SVG Export Plug-In . SVG Version: 6.00 Build 0)  -->
<svg version="1.2" baseProfile="tiny" id="katman_1"
	 xmlns="http://www.w3.org/2000/svg" xmlns:xlink="http://www.w3.org/1999/xlink" x="0px" y="0px" width="115px" height="90px"
	 viewBox="0 0 115 90" xml:space="preserve">
<g>
	<g>
		<path fill="#E20D18" d="M24.4,77.1c0,2.3-1.8,3.8-4.2,3.8c-3.3,0-5.1-2.3-5.1-6.2c0-4.2,2.3-6.4,5.6-6.4c1.1,0,2.2,0.2,2.9,0.7
			l-0.5,1c-0.6-0.4-1.5-0.6-2.4-0.6c-2.7,0-4.4,1.7-4.4,5.1c0,0.3,0,0.6,0.1,1c0.6-1.4,2.1-2.1,3.8-2.1
			C22.7,73.4,24.4,74.8,24.4,77.1z M23.2,77.1c0-1.6-1.2-2.7-3.1-2.7c-1.9,0-3.2,1.2-3.2,2.7c0,1.4,1.1,2.6,3.3,2.6
			C21.9,79.8,23.2,78.7,23.2,77.1z"/>
		<path fill="#E20D18" d="M25.9,74.6c0-3.9,2.1-6.3,4.9-6.3c2.9,0,4.9,2.3,4.9,6.3s-2.1,6.3-4.9,6.3C27.9,80.8,25.9,78.5,25.9,74.6z
			 M34.4,74.6c0-3.3-1.5-5.1-3.6-5.1c-2.2,0-3.6,1.8-3.6,5.1c0,3.3,1.5,5.1,3.6,5.1C33,79.7,34.4,77.9,34.4,74.6z"/>
		<path fill="#E20D18" d="M44.1,80.7l-2.9-3.9l-3,3.9h-1.4l3.7-4.8L37,71.5h1.4l2.8,3.6l2.8-3.6h1.4L41.8,76l3.7,4.8H44.1z"/>
		<path fill="#E20D18" d="M55.2,77.1c0,2.1-1.5,3.7-4.5,3.7c-1.8,0-3.5-0.6-4.4-1.6l0.6-1c0.8,0.8,2.2,1.4,3.8,1.4
			c2.1,0,3.2-1,3.2-2.5c0-1.6-1-2.6-4.1-2.6h-2.6l0.6-6.2h6.8v1.1h-5.6l-0.4,3.9H50C53.8,73.5,55.2,74.9,55.2,77.1z"/>
		<path fill="#E20D18" d="M56.8,74.6c0-3.9,2.1-6.3,4.9-6.3c2.9,0,4.9,2.3,4.9,6.3s-2.1,6.3-4.9,6.3C58.8,80.8,56.8,78.5,56.8,74.6z
			 M65.3,74.6c0-3.3-1.5-5.1-3.6-5.1c-2.2,0-3.6,1.8-3.6,5.1c0,3.3,1.5,5.1,3.6,5.1C63.8,79.7,65.3,77.9,65.3,74.6z"/>
		<path fill="#E20D18" d="M72.9,76.1c0-2.8,2-4.7,4.8-4.7c1.6,0,2.9,0.6,3.6,1.8l-0.9,0.6c-0.6-0.9-1.6-1.4-2.7-1.4
			c-2,0-3.5,1.4-3.5,3.6c0,2.2,1.5,3.6,3.5,3.6c1.1,0,2.1-0.4,2.7-1.4l0.9,0.6c-0.7,1.2-2.1,1.8-3.6,1.8
			C75,80.8,72.9,78.9,72.9,76.1z"/>
		<path fill="#E20D18" d="M99.1,75.4v5.4h-1.3v-5.3c0-2-1-3-2.7-3c-1.9,0-3.1,1.2-3.1,3.3v4.9h-1.3v-5.3c0-2-1-3-2.7-3
			c-1.9,0-3.1,1.2-3.1,3.3v4.9h-1.3v-9.3H85v1.7c0.7-1.1,1.9-1.8,3.4-1.8c1.5,0,2.7,0.7,3.3,2c0.7-1.2,2-2,3.7-2
			C97.6,71.4,99.1,72.7,99.1,75.4z"/>
	</g>
	<path fill="#1E1E1C" stroke="#1E1E1C" stroke-width="3" stroke-miterlimit="10" d="M71.3,52.5H50.6c0,0-0.1,0-0.1,0l-18.8-7.7
		c-0.6-0.4-0.3-1.3,0.4-1.3h29.9c0,0,0.1,0,0.1,0l20.4,8.8c0.1,0.1,0.1,0.2-0.1,0.2H71.3"/>
	<line fill="none" stroke="#FFFFFF" stroke-width="0.75" stroke-miterlimit="10" x1="38.6" y1="43.4" x2="57.5" y2="51.5"/>
	<line fill="none" stroke="#FFFFFF" stroke-width="0.75" stroke-miterlimit="10" x1="34.6" y1="43.2" x2="53.5" y2="51.3"/>
	<line fill="none" stroke="#FFFFFF" stroke-width="0.75" stroke-miterlimit="10" x1="42.6" y1="43.4" x2="61.4" y2="51.5"/>
	<line fill="none" stroke="#FFFFFF" stroke-width="0.75" stroke-miterlimit="10" x1="46.5" y1="43.5" x2="65.4" y2="51.6"/>
	<line fill="none" stroke="#FFFFFF" stroke-width="0.75" stroke-miterlimit="10" x1="50.5" y1="43.5" x2="69.3" y2="51.6"/>
	<line fill="none" stroke="#FFFFFF" stroke-width="0.75" stroke-miterlimit="10" x1="54.4" y1="43.6" x2="73.3" y2="51.7"/>
	<line fill="none" stroke="#FFFFFF" stroke-width="0.75" stroke-miterlimit="10" x1="58.4" y1="43.6" x2="77.3" y2="51.7"/>
	<line fill="none" stroke="#FFFFFF" stroke-width="0.75" stroke-miterlimit="10" x1="62.3" y1="43.7" x2="81.2" y2="51.8"/>
	<g>
		<ellipse id="XMLID_00000143610526889674225060000012171883029747026876_" fill="#E20D18" cx="58.5" cy="8.3" rx="3.6" ry="3.7"/>
		<path id="XMLID_00000045596783673618851630000017884976025988003458_" fill="#E20D18" d="M63.2,13.1c-0.2,0,0.2,0-9.4,0
			c-2.3,0-4.1,1.9-4.1,4.2l-0.1,13c0,1,0.8,1.8,1.7,1.8c0,0,0,0,0,0c1,0,1.7-0.8,1.7-1.8l0.1-13c0-0.2,0.2-0.3,0.3-0.3
			c0.2,0,0.3,0.2,0.3,0.4V47c0,1.2,0.9,2.1,2.1,2.1c1.2,0,2.1-0.9,2.1-2.1c0-0.6,0-13.7,0-16.5c0-0.3,0.2-0.5,0.5-0.5
			c0.3,0,0.5,0.2,0.5,0.5c0,2.6,0,15.4,0,16.5c0,1.2,0.9,2.1,2.1,2.1c1.2,0,2.1-0.9,2.1-2.1l0-29.7c0-0.2,0.2-0.4,0.4-0.4
			c0.2,0,0.4,0.2,0.4,0.4l0.1,13c0,1,0.8,1.8,1.7,1.8c0,0,0,0,0,0c1,0,1.7-0.8,1.7-1.8l-0.1-13C67.3,15,65.4,13.1,63.2,13.1z"/>
	</g>
	<g>
		<polygon fill="#1E1E1C" points="77.5,60.2 56.1,60.2 56.7,58.9 53.2,60.4 56.7,61.9 56.1,60.6 77.5,60.6 		"/>
	</g>
	<g>
		<polygon fill="#1E1E1C" points="62.7,60.6 84,60.6 83.5,61.9 87,60.4 83.5,58.9 84,60.2 62.7,60.2 		"/>
	</g>
	<g>
		<line fill="#1E1E1C" x1="45.1" y1="58" x2="26.4" y2="49.9"/>
		<g>
			<polygon fill="#1E1E1C" points="45.2,57.8 29.2,50.8 30.2,49.9 26.4,49.9 29,52.6 29,51.3 45,58.2 			"/>
		</g>
	</g>
	<g>
		<line fill="#1E1E1C" x1="29.6" y1="51.2" x2="48.3" y2="59.4"/>
		<g>
			<polygon fill="#1E1E1C" points="29.5,51.5 45.5,58.4 44.5,59.3 48.3,59.4 45.7,56.6 45.7,58 29.7,51 			"/>
		</g>
	</g>
</g>
</svg>
