<?xml version="1.0" encoding="utf-8"?>
<!-- Generator: Adobe Illustrator 16.0.0, SVG Export Plug-In . SVG Version: 6.00 Build 0)  -->
<svg version="1.2" baseProfile="tiny" id="katman_1"
	 xmlns="http://www.w3.org/2000/svg" xmlns:xlink="http://www.w3.org/1999/xlink" x="0px" y="0px" width="115px" height="90px"
	 viewBox="0 0 115 90" xml:space="preserve">
<g>
	<g>
		<path fill="#E20D18" d="M25,78.9c0,2.4-1.9,4-4.5,4c-3.5,0-5.4-2.4-5.4-6.5c0-4.4,2.4-6.8,6-6.8c1.2,0,2.3,0.2,3.1,0.7l-0.5,1.1
			c-0.7-0.4-1.6-0.6-2.5-0.6c-2.8,0-4.6,1.8-4.6,5.4c0,0.3,0,0.7,0.1,1.1c0.7-1.4,2.2-2.2,4-2.2C23.2,75,25,76.5,25,78.9z
			 M23.7,78.9c0-1.7-1.3-2.8-3.3-2.8c-2,0-3.4,1.2-3.4,2.9c0,1.4,1.2,2.8,3.4,2.8C22.4,81.8,23.7,80.7,23.7,78.9z"/>
		<path fill="#E20D18" d="M26.6,76.3c0-4.2,2.2-6.6,5.2-6.6s5.2,2.5,5.2,6.6c0,4.2-2.2,6.6-5.2,6.6S26.6,80.4,26.6,76.3z M35.6,76.3
			c0-3.5-1.6-5.4-3.8-5.4s-3.8,1.9-3.8,5.4s1.6,5.4,3.8,5.4S35.6,79.8,35.6,76.3z"/>
		<path fill="#E20D18" d="M45.8,82.8l-3.1-4.1l-3.1,4.1h-1.5l3.9-5L38.3,73h1.5l2.9,3.8l2.9-3.8h1.5l-3.7,4.8l3.9,5H45.8z"/>
		<path fill="#E20D18" d="M58.3,78.9c0,2.4-1.9,4-4.5,4c-3.5,0-5.4-2.4-5.4-6.5c0-4.4,2.4-6.8,6-6.8c1.2,0,2.3,0.2,3.1,0.7L57,71.4
			c-0.7-0.4-1.6-0.6-2.5-0.6c-2.8,0-4.6,1.8-4.6,5.4c0,0.3,0,0.7,0.1,1.1c0.7-1.4,2.2-2.2,4-2.2C56.5,75,58.3,76.5,58.3,78.9z
			 M57,78.9c0-1.7-1.3-2.8-3.3-2.8c-2,0-3.4,1.2-3.4,2.9c0,1.4,1.2,2.8,3.4,2.8C55.7,81.8,57,80.7,57,78.9z"/>
		<path fill="#E20D18" d="M63.5,69.8v13.1h-1.3V70.9H59v-1.2H63.5z"/>
		<path fill="#E20D18" d="M71.3,77.9c0-2.9,2.1-5,5.1-5c1.7,0,3.1,0.7,3.8,1.9l-1,0.7c-0.7-1-1.7-1.5-2.9-1.5
			c-2.1,0-3.7,1.5-3.7,3.8c0,2.3,1.6,3.8,3.7,3.8c1.1,0,2.2-0.4,2.9-1.4l1,0.7c-0.8,1.3-2.2,1.9-3.8,1.9
			C73.5,82.9,71.3,80.8,71.3,77.9z"/>
		<path fill="#E20D18" d="M99,77.1v5.7h-1.3v-5.6c0-2.1-1-3.1-2.8-3.1c-2,0-3.3,1.3-3.3,3.5v5.1h-1.3v-5.6c0-2.1-1-3.1-2.8-3.1
			c-2,0-3.3,1.3-3.3,3.5v5.1h-1.3V73h1.3v1.8c0.7-1.2,2-1.9,3.6-1.9c1.6,0,2.9,0.7,3.5,2.1c0.7-1.3,2.1-2.1,3.9-2.1
			C97.4,72.9,99,74.3,99,77.1z"/>
	</g>
	<path fill="#1E1E1C" stroke="#1E1E1C" stroke-width="3" stroke-miterlimit="10" d="M72,53H50.2c0,0-0.1,0-0.1,0l-19.9-8.2
		c-0.6-0.4-0.3-1.4,0.4-1.4h31.7c0,0,0.1,0,0.1,0l21.6,9.3c0.1,0.1,0.1,0.3-0.1,0.3H72"/>
	<line fill="none" stroke="#FFFFFF" stroke-width="0.75" stroke-miterlimit="10" x1="37.5" y1="43.3" x2="57.5" y2="51.8"/>
	<line fill="none" stroke="#FFFFFF" stroke-width="0.75" stroke-miterlimit="10" x1="33.3" y1="43.1" x2="53.3" y2="51.7"/>
	<line fill="none" stroke="#FFFFFF" stroke-width="0.75" stroke-miterlimit="10" x1="41.7" y1="43.4" x2="61.7" y2="51.9"/>
	<line fill="none" stroke="#FFFFFF" stroke-width="0.75" stroke-miterlimit="10" x1="45.9" y1="43.4" x2="65.8" y2="51.9"/>
	<line fill="none" stroke="#FFFFFF" stroke-width="0.75" stroke-miterlimit="10" x1="50.1" y1="43.5" x2="70" y2="52"/>
	<line fill="none" stroke="#FFFFFF" stroke-width="0.75" stroke-miterlimit="10" x1="54.3" y1="43.5" x2="74.2" y2="52.1"/>
	<line fill="none" stroke="#FFFFFF" stroke-width="0.75" stroke-miterlimit="10" x1="58.4" y1="43.6" x2="78.4" y2="52.1"/>
	<line fill="none" stroke="#FFFFFF" stroke-width="0.75" stroke-miterlimit="10" x1="62.6" y1="43.6" x2="82.6" y2="52.2"/>
	<g>
		<ellipse id="XMLID_00000039822211635771216150000000573510482139664828_" fill="#E20D18" cx="58.6" cy="6.2" rx="3.8" ry="3.9"/>
		<path id="XMLID_00000163790844687698166720000005824917040179017403_" fill="#E20D18" d="M63.5,11.3c-0.2,0,0.2,0-9.9,0
			c-2.4,0-4.4,2-4.4,4.4l-0.1,13.7c0,1,0.8,1.9,1.8,1.9c0,0,0,0,0,0c1,0,1.8-0.8,1.8-1.9l0.1-13.7c0-0.2,0.2-0.4,0.4-0.4
			c0.2,0,0.4,0.2,0.4,0.4l0,31.4c0,1.2,1,2.2,2.2,2.2c1.2,0,2.2-1,2.2-2.2c0-0.6,0-14.5,0-17.4c0-0.3,0.2-0.5,0.5-0.5
			c0.3,0,0.5,0.2,0.5,0.5c0,2.8,0,16.3,0,17.4c0,1.2,1,2.2,2.2,2.2s2.2-1,2.2-2.2l0-31.4c0-0.2,0.2-0.4,0.4-0.4
			c0.2,0,0.4,0.2,0.4,0.4l0.1,13.7c0,1,0.8,1.9,1.8,1.9c0,0,0,0,0,0c1,0,1.8-0.8,1.8-1.9l-0.1-13.7C67.9,13.3,65.9,11.3,63.5,11.3z"
			/>
	</g>
	<g>
		<polygon fill="#1E1E1C" points="78.6,61.1 55.9,61.1 56.4,59.8 52.9,61.3 56.4,62.8 55.9,61.5 78.6,61.5 		"/>
	</g>
	<g>
		<polygon fill="#1E1E1C" points="63,61.5 85.7,61.5 85.2,62.8 88.7,61.3 85.2,59.8 85.7,61.1 63,61.1 		"/>
	</g>
	<g>
		<line fill="#1E1E1C" x1="44.4" y1="58.7" x2="24.6" y2="50.1"/>
		<g>
			<polygon fill="#1E1E1C" points="44.5,58.5 27.4,51.1 28.4,50.2 24.6,50.1 27.2,52.9 27.2,51.5 44.3,59 			"/>
		</g>
	</g>
	<g>
		<line fill="#1E1E1C" x1="28" y1="51.6" x2="47.8" y2="60.2"/>
		<g>
			<polygon fill="#1E1E1C" points="27.9,51.8 45,59.2 44,60.2 47.8,60.2 45.2,57.5 45.2,58.8 28.1,51.4 			"/>
		</g>
	</g>
</g>
</svg>
