<?xml version="1.0" encoding="utf-8"?>
<!-- Generator: Adobe Illustrator 16.0.0, SVG Export Plug-In . SVG Version: 6.00 Build 0)  -->
<svg version="1.2" baseProfile="tiny" id="katman_1"
	 xmlns="http://www.w3.org/2000/svg" xmlns:xlink="http://www.w3.org/1999/xlink" x="0px" y="0px" width="115px" height="90px"
	 viewBox="0 0 115 90" xml:space="preserve">
<g>
	<g>
		<path fill="#E20D18" d="M24.6,77.7c0,2.4-1.9,3.9-4.3,3.9c-3.3,0-5.2-2.3-5.2-6.3c0-4.3,2.3-6.5,5.8-6.5c1.1,0,2.2,0.2,3,0.7
			l-0.5,1c-0.6-0.4-1.5-0.6-2.4-0.6c-2.7,0-4.5,1.7-4.5,5.2c0,0.3,0,0.6,0.1,1c0.6-1.4,2.1-2.2,3.8-2.2
			C22.9,73.9,24.6,75.4,24.6,77.7z M23.4,77.8c0-1.7-1.2-2.7-3.2-2.7c-1.9,0-3.2,1.2-3.2,2.8c0,1.4,1.2,2.7,3.3,2.7
			C22.1,80.5,23.4,79.4,23.4,77.8z"/>
		<path fill="#E20D18" d="M26.1,75.2c0-4,2.1-6.4,5-6.4c2.9,0,5,2.4,5,6.4s-2.1,6.4-5,6.4C28.2,81.6,26.1,79.2,26.1,75.2z
			 M34.9,75.2c0-3.4-1.5-5.2-3.7-5.2c-2.2,0-3.7,1.9-3.7,5.2c0,3.4,1.5,5.2,3.7,5.2C33.3,80.4,34.9,78.6,34.9,75.2z"/>
		<path fill="#E20D18" d="M44.7,81.5l-3-4l-3,4h-1.4l3.7-4.9L37.4,72h1.4l2.8,3.7l2.8-3.7H46l-3.6,4.6l3.8,4.9H44.7z"/>
		<path fill="#E20D18" d="M56.2,68.9v0.9l-5.3,11.7h-1.4L54.7,70h-6.5v2.4H47v-3.5H56.2z"/>
		<path fill="#E20D18" d="M66.1,77.8c0,2.1-1.5,3.8-4.6,3.8C59.7,81.6,58,81,57,80l0.6-1c0.8,0.8,2.2,1.5,3.9,1.5
			c2.1,0,3.3-1,3.3-2.6c0-1.6-1-2.6-4.2-2.6h-2.7l0.6-6.3h6.9V70h-5.8l-0.4,4h1.6C64.7,74.1,66.1,75.5,66.1,77.8z"/>
		<path fill="#E20D18" d="M72.4,76.8c0-2.8,2.1-4.8,4.9-4.8c1.6,0,3,0.6,3.7,1.9l-1,0.6c-0.6-1-1.7-1.4-2.8-1.4
			c-2.1,0-3.6,1.5-3.6,3.7c0,2.2,1.5,3.7,3.6,3.7c1.1,0,2.1-0.4,2.8-1.4l1,0.6c-0.8,1.2-2.1,1.9-3.7,1.9
			C74.4,81.6,72.4,79.6,72.4,76.8z"/>
		<path fill="#E20D18" d="M99.1,76v5.5h-1.3v-5.4c0-2-1-3-2.7-3c-1.9,0-3.2,1.3-3.2,3.4v5h-1.3v-5.4c0-2-1-3-2.7-3
			c-1.9,0-3.2,1.3-3.2,3.4v5h-1.3V72h1.2v1.7c0.7-1.1,1.9-1.8,3.5-1.8c1.6,0,2.8,0.7,3.4,2c0.7-1.2,2-2,3.7-2
			C97.6,72,99.1,73.3,99.1,76z"/>
	</g>
	<path fill="#1E1E1C" stroke="#1E1E1C" stroke-width="3" stroke-miterlimit="10" d="M71.5,52.7H50.5c0,0-0.1,0-0.1,0l-19.2-7.9
		c-0.6-0.4-0.3-1.4,0.4-1.4h30.6c0,0,0.1,0,0.1,0l20.9,9c0.1,0.1,0.1,0.3-0.1,0.3H71.5"/>
	<line fill="none" stroke="#FFFFFF" stroke-width="0.75" stroke-miterlimit="10" x1="38.2" y1="43.4" x2="57.5" y2="51.6"/>
	<line fill="none" stroke="#FFFFFF" stroke-width="0.75" stroke-miterlimit="10" x1="34.2" y1="43.2" x2="53.4" y2="51.4"/>
	<line fill="none" stroke="#FFFFFF" stroke-width="0.75" stroke-miterlimit="10" x1="42.3" y1="43.4" x2="61.5" y2="51.7"/>
	<line fill="none" stroke="#FFFFFF" stroke-width="0.75" stroke-miterlimit="10" x1="46.3" y1="43.5" x2="65.6" y2="51.7"/>
	<line fill="none" stroke="#FFFFFF" stroke-width="0.75" stroke-miterlimit="10" x1="50.3" y1="43.5" x2="69.6" y2="51.8"/>
	<line fill="none" stroke="#FFFFFF" stroke-width="0.75" stroke-miterlimit="10" x1="54.4" y1="43.6" x2="73.6" y2="51.8"/>
	<line fill="none" stroke="#FFFFFF" stroke-width="0.75" stroke-miterlimit="10" x1="58.4" y1="43.6" x2="77.7" y2="51.9"/>
	<line fill="none" stroke="#FFFFFF" stroke-width="0.75" stroke-miterlimit="10" x1="62.4" y1="43.7" x2="81.7" y2="51.9"/>
	<g>
		<ellipse id="XMLID_00000153665319189053714960000015840891412349084322_" fill="#E20D18" cx="58.5" cy="7.5" rx="3.7" ry="3.7"/>
		<path id="XMLID_00000181766225338372082930000017145093355521780355_" fill="#E20D18" d="M63.3,12.5c-0.2,0,0.2,0-9.6,0
			c-2.3,0-4.2,1.9-4.2,4.2l-0.1,13.2c0,1,0.8,1.8,1.8,1.8c0,0,0,0,0,0c1,0,1.8-0.8,1.8-1.8l0.1-13.2c0-0.2,0.2-0.4,0.4-0.4
			c0.2,0,0.4,0.2,0.4,0.4l0,30.3c0,1.2,1,2.2,2.1,2.2c1.2,0,2.1-1,2.1-2.2c0-0.6,0-14,0-16.8c0-0.3,0.2-0.5,0.5-0.5
			c0.3,0,0.5,0.2,0.5,0.5c0,2.7,0,15.7,0,16.8c0,1.2,1,2.2,2.1,2.2c1.2,0,2.1-1,2.1-2.2l0-30.3c0-0.2,0.2-0.4,0.4-0.4
			c0.2,0,0.4,0.2,0.4,0.4L64,30c0,1,0.8,1.8,1.8,1.8c0,0,0,0,0,0c1,0,1.8-0.8,1.8-1.8l-0.1-13.2C67.5,14.4,65.6,12.5,63.3,12.5z"/>
	</g>
	<g>
		<polygon fill="#1E1E1C" points="77.9,60.5 56,60.5 56.6,59.3 53.1,60.7 56.6,62.2 56,61 77.9,61 		"/>
	</g>
	<g>
		<polygon fill="#1E1E1C" points="62.8,61 84.6,61 84.1,62.2 87.6,60.7 84.1,59.3 84.6,60.5 62.8,60.5 		"/>
	</g>
	<g>
		<line fill="#1E1E1C" x1="44.9" y1="58.3" x2="25.8" y2="50"/>
		<g>
			<polygon fill="#1E1E1C" points="45,58 28.6,50.9 29.5,50 25.8,50 28.4,52.7 28.4,51.4 44.8,58.5 			"/>
		</g>
	</g>
	<g>
		<line fill="#1E1E1C" x1="29" y1="51.4" x2="48.1" y2="59.7"/>
		<g>
			<polygon fill="#1E1E1C" points="28.9,51.6 45.3,58.7 44.3,59.6 48.1,59.7 45.5,56.9 45.5,58.3 29.1,51.2 			"/>
		</g>
	</g>
</g>
</svg>
