<?xml version="1.0" encoding="utf-8"?>
<!-- Generator: Adobe Illustrator 16.0.0, SVG Export Plug-In . SVG Version: 6.00 Build 0)  -->
<svg version="1.2" baseProfile="tiny" id="katman_1"
	 xmlns="http://www.w3.org/2000/svg" xmlns:xlink="http://www.w3.org/1999/xlink" x="0px" y="0px" width="90px" height="90px"
	 viewBox="0 0 90 90" xml:space="preserve">
<g>
	<rect x="3.2" y="33.4" fill="#1D1D1B" width="83.6" height="21.6"/>
	<g>
		<path fill="#FFFFFF" d="M29.4,47.7v2.1h-8.9V38.3h8.7v2.1h-6.1V43h5.4V45h-5.4v2.7H29.4z"/>
		<path fill="#FFFFFF" d="M42.1,38.3v11.5h-2.2l-5.8-7v7h-2.6V38.3h2.2l5.7,7v-7H42.1z"/>
		<path fill="#FFFFFF" d="M53.3,38.3v11.5h-2.7v-9.4h-2.3v-2.1H53.3z"/>
		<path fill="#FFFFFF" d="M63.8,46.3c0,1.9-1.5,3.7-4.8,3.7c-1.6,0-3.3-0.4-4.4-1.2l1-2c0.9,0.7,2.1,1,3.3,1c1.3,0,2.2-0.5,2.2-1.5
			c0-0.9-0.6-1.4-2.2-1.4h-1.2v-1.8l2.4-2.7h-4.9v-2.1h8.1V40l-2.6,3C62.8,43.3,63.8,44.6,63.8,46.3z"/>
		<path fill="#FFFFFF" d="M69.5,38.3v11.5h-2.7v-9.4h-2.3v-2.1H69.5z"/>
		<path d="M32.6,58.1v11.5h-1l-7.4-9.4v9.4h-1.2V58.1h1l7.4,9.4v-9.4H32.6z"/>
		<path d="M35.2,65.3c0-2.6,1.9-4.4,4.4-4.4c2.5,0,4.4,1.8,4.4,4.4c0,2.6-1.9,4.4-4.4,4.4C37.1,69.7,35.2,67.9,35.2,65.3z
			 M42.9,65.3c0-2-1.4-3.4-3.2-3.4c-1.8,0-3.2,1.4-3.2,3.4s1.4,3.4,3.2,3.4C41.5,68.7,42.9,67.3,42.9,65.3z"/>
		<path d="M50.8,60.9V62c-0.1,0-0.2,0-0.3,0c-1.8,0-2.9,1.2-2.9,3.2v4.4h-1.2V61h1.1v1.7C48.1,61.5,49.2,60.9,50.8,60.9z"/>
		<path d="M67.4,64.6v5h-1.2v-4.9c0-1.8-0.9-2.8-2.5-2.8c-1.8,0-2.9,1.2-2.9,3.1v4.6h-1.2v-4.9c0-1.8-0.9-2.8-2.5-2.8
			c-1.8,0-2.9,1.2-2.9,3.1v4.6h-1.2V61h1.1v1.6c0.6-1,1.7-1.7,3.2-1.7c1.4,0,2.6,0.6,3.1,1.8c0.6-1.1,1.9-1.8,3.4-1.8
			C66,60.9,67.4,62.1,67.4,64.6z"/>
	</g>
</g>
</svg>
