<?xml version="1.0" encoding="utf-8"?>
<!-- Generator: Adobe Illustrator 16.0.0, SVG Export Plug-In . SVG Version: 6.00 Build 0)  -->
<svg version="1.2" baseProfile="tiny" id="katman_1"
	 xmlns="http://www.w3.org/2000/svg" xmlns:xlink="http://www.w3.org/1999/xlink" x="0px" y="0px" width="90px" height="90px"
	 viewBox="0 0 90 90" xml:space="preserve">
<g>
	<path fill-rule="evenodd" fill="#E5282B" d="M1.1,45c2.8-1.6,5.6-3.2,8.4-4.8c11.8-6.8,23.7-13.6,35.5-20.4c0.4-0.2,0.6-0.2,0.9,0
		c14.2,8.3,28.5,16.6,42.7,25c0.1,0.1,0.3,0.1,0.3,0.3c-2,1.2-4,2.3-6,3.5C70.6,55.8,58.3,62.9,46,70.1c-0.5,0.3-0.9,0.3-1.5,0
		c-14.3-8.3-28.7-16.6-43-24.8C1.4,45.2,1.3,45.1,1.1,45z M81.4,45.1c-0.2-0.2-0.4-0.3-0.5-0.4C69.2,37.8,57.6,31,45.9,24.2
		c-0.5-0.3-0.9-0.3-1.4,0c-10.8,6.2-21.5,12.5-32.3,18.7c-1.2,0.7-2.4,1.4-3.5,2.1c0.1,0.2,0.3,0.3,0.4,0.4
		C21,52.2,32.9,59.1,44.7,66c0.4,0.2,0.7,0.2,1.1,0c10.5-6.1,20.9-12.3,31.4-18.4C78.6,46.7,80,45.9,81.4,45.1z"/>
	<path fill-rule="evenodd" fill="#E5282B" d="M40.5,52.2c0.1,0,0.2,0,0.4,0c0.4,0,0.9-0.1,1.2,0c0.4,0.2,0.2,0.7,0.4,1.1
		c0.5,1.2,1.6,2.1,2.9,2.1c1.4,0,2.6-0.7,3.1-2c0.5-1.3,0.3-2.6-0.7-3.6c-2.3-2.2-4.6-4.4-6.9-6.7c-2-1.9-2.7-4.2-1.9-6.9
		c0.7-2.7,2.6-4.3,5.3-4.8c3.9-0.8,7.8,2.2,8.1,6.1c0,0.3,0,0.5-0.4,0.5c-0.8,0-1.7,0-2.5,0c-0.4,0-0.5-0.1-0.5-0.5
		c-0.3-1.5-1.5-2.7-3.1-2.8c-1.6-0.1-3,0.9-3.5,2.4c-0.4,1.4-0.1,2.6,1,3.5c2.3,2.2,4.7,4.3,6.9,6.5c2.9,2.8,2.9,7.2-0.1,10
		c-2.1,1.9-4.5,2.4-7.1,1.4c-2.6-1-4-3-4.3-5.8c-0.1-0.4,0-0.6,0.5-0.6C39.7,52.2,40.1,52.2,40.5,52.2z"/>
	<path fill-rule="evenodd" fill="#E5282B" d="M56.5,45.1c0-2.2,0-4.3,0-6.5c0-0.4,0-0.6,0.5-0.6c2.6,0,5.3,0,7.9,0
		c0.4,0,0.5,0.1,0.5,0.5c0,0.7,0,1.4,0,2.1c0,0.4-0.1,0.5-0.5,0.5c-1.4,0-2.9,0-4.3,0c-0.4,0-0.5,0.1-0.5,0.5c0,0.5,0,1,0,1.5
		c0,0.3,0.1,0.4,0.4,0.4c0.6,0,1.3,0,1.9,0c0.3,0,0.4,0.1,0.4,0.4c0,0.8,0,1.6,0,2.4c0,0.3-0.1,0.4-0.4,0.4c-0.6,0-1.3,0-1.9,0
		c-0.3,0-0.4,0.1-0.4,0.4c0,0.5,0,1.1,0,1.6c0,0.4,0.1,0.5,0.5,0.5c1.4,0,2.9,0,4.3,0c0.4,0,0.6,0.1,0.5,0.5c0,0.7,0,1.5,0,2.2
		c0,0.3-0.1,0.4-0.4,0.4c-2.7,0-5.4,0-8.2,0c-0.4,0-0.4-0.2-0.4-0.5C56.5,49.4,56.5,47.3,56.5,45.1z"/>
	<path fill-rule="evenodd" fill="#E5282B" d="M28,46.7c0-1.7,0-3.3,0-5c0-0.4-0.1-0.5-0.5-0.5c-0.7,0-1.3,0-2,0
		c-0.4,0-0.5-0.1-0.5-0.5c0-0.7,0-1.4,0-2.2c0-0.3,0.1-0.4,0.4-0.4c2.9,0,5.8,0,8.7,0c0.4,0,0.5,0.1,0.5,0.5c0,0.7,0,1.4,0,2.1
		c0,0.4-0.1,0.6-0.5,0.6c-0.6,0-1.3,0-1.9,0c-0.4,0-0.5,0.1-0.5,0.5c0,3.3,0,6.5,0,9.8c0,0.5-0.1,0.7-0.7,0.6c-0.8,0-1.6,0-2.5,0
		c-0.4,0-0.5-0.1-0.5-0.5C28,50,28,48.4,28,46.7z"/>
</g>
</svg>
